<?xml version="1.0" encoding="utf-8"?>
<!-- Generator: Adobe Illustrator 17.1.0, SVG Export Plug-In . SVG Version: 6.00 Build 0)  -->
<!DOCTYPE svg PUBLIC "-//W3C//DTD SVG 1.1//EN" "http://www.w3.org/Graphics/SVG/1.1/DTD/svg11.dtd">
<svg version="1.1" id="Layer_1" xmlns="http://www.w3.org/2000/svg" xmlns:xlink="http://www.w3.org/1999/xlink" x="0px" y="0px"
	 viewBox="0 633.3 612 370" enable-background="new 0 633.3 612 370" xml:space="preserve">
<g>
	<path d="M50.2,851.6h45.2v104.2c0,27.6-10,47.1-45.2,47.1S5,983.4,5,955.8V771.9c0-27.6,10-47.1,45.2-47.1
		c34.5,0,45.2,19.5,45.2,47.1V802H71.6v-30.1c0-13.2-5.6-25.1-21.3-25.1C34,746.8,29,757.5,29,771.9v183.3
		c0,13.8,5.6,25.7,21.3,25.7c16.3,0,21.3-10.7,21.3-25.7v-81.6H50.2V851.6z"/>
	<path d="M164.5,975.2h52.1v23.2H140V728.6h76.6v23.2h-52.1V851h45.2v22.6h-45.2V975.2z"/>
	<path d="M345.9,998.5h-24.5l-7.5-61.5h-39.5l-7.5,61.5h-24.5l37-269.9h30.1L345.9,998.5z M276.8,914.4h34.5l-16.9-148.8
		L276.8,914.4z"/>
	<path d="M381,728.6h44.6c37,0,45.8,18.8,45.8,46.4v60.9c0,22.6-8.2,39.5-30.1,44.6l43.3,118h-27L418,882.3h-12.6v116.1H381V728.6
		L381,728.6z M423.7,859.7c18.2,0,23.2-8.8,23.2-23.2v-60.9c0-14.4-6.3-23.2-23.2-23.2h-18.2v107.3L423.7,859.7L423.7,859.7z"/>
	<path d="M575,922.5c0-78.5-65.9-47.7-65.9-126.8v-23.2c0-27.6,8.8-47.7,45.2-47.7c36.4,0,45.2,19.5,45.2,47.7V802H575v-29.5
		c0-13.8-4.4-25.7-20.7-25.7c-16.9,0-20.7,10.7-20.7,25.7v22.6c0,66.5,65.9,36.4,65.9,126.8v33.3c0,27.6-8.8,47.7-45.2,47.7
		s-45.2-19.5-45.2-47.7v-33.3h24.5v33.3c0,14.4,5,25.7,20.7,25.7c16.9,0,20.7-10.7,20.7-25.7V922.5L575,922.5z"/>
</g>
<g>
	<path d="M431.9,694.7L396.7,652c0,0-0.6-0.6-1.3-0.6c-1.3,0-1.3,0.6-1.3,0.6L359,695.3l-1.3,0.6c-1.9,1.3-3.8,1.9-5.6,1.9
		c-1.9,0-3.8-0.6-5.6-1.9l-1.3-0.6l-42.7-52.1l-0.6-0.6c0-1.3-0.6-1.9-0.6-3.1c0-1.9,1.3-3.8,2.5-4.4c1.9-0.6,3.8-1.3,5.6-1.3
		c1.9,0,3.8,0.6,5.6,1.9l1.3,0.6l34.5,43.3c0,0,0.6,0.6,1.3,0.6c1.3,0,1.3-0.6,1.3-0.6l35.8-43.3c0.6-0.6,1.3-0.6,1.3-0.6
		c1.3-1.3,3.1-1.9,5-1.9s3.8,0.6,5.6,1.9c0,0,0.6,0.6,1.3,0.6l35.2,43.3c0,0,0,0.6,1.3,0.6s1.3-0.6,1.3-0.6l35.2-43.3l1.3-0.6
		c1.3-1.3,3.1-1.9,5-1.9s3.8,0.6,5.6,1.9l1.3,0.6l43.9,52.1l0.6,0.6c0.6,0.6,0.6,1.3,0.6,2.5l0,0c0,1.9-1.3,3.8-2.5,4.4
		c-1.3,0.6-3.1,1.3-5,1.3s-3.8-0.6-5.6-1.9l-0.6-0.6l-36-43.4c0,0-0.6-0.6-1.3-0.6c-1.3,0-1.3,0.6-1.3,0.6l-35.2,43.3l-1.3,0.6
		c-1.9,1.3-3.8,1.9-5.6,1.9C436.2,697.2,433.7,696.5,431.9,694.7"/>
	<path d="M475.2,686.5c-3.1,0-5-3.1-5-6.3s2.5-6.3,5-6.3H489c3.1,0,5,3.1,5,6.3s-1.9,6.3-5,6.3H475.2z"/>
	<path d="M54,684.6h-1.9H32h-1.9c-11.9-1.9-17.6-10.7-17.6-18.8c0-8.8,5.6-17.6,16.9-18.8h1.9h20.1h1.9c11.3,1.3,16.9,10,16.9,18.8
		C70.9,673.9,65.3,682.7,54,684.6 M83.5,663.3L83.5,663.3c-1.3-14.4-11.9-26.4-26.4-28.9l-2.5-0.6h-2.5H32h-2.5H27
		c-14.4,2.5-25.7,14.4-27,29.5v2.5l0,0v2.5l0,0c1.3,14.4,11.9,27,26.4,28.9h2.5h2.5h20.1H54h2.5c14.4-2.5,25.7-14.4,26.4-28.9v-2.5
		l0,0L83.5,663.3z"/>
	<polygon points="531.7,634.4 612,634.4 612,647 578.1,647 578.1,696.5 566.8,696.5 565.6,696.5 565.6,647 531.7,647 	"/>
	<path d="M119.9,659.5h46.4h1.3c3.8-0.6,5-3.1,5-6.3c0-2.5-1.9-5.6-5-6.3h-1.3h-46.4V659.5z M108,696.5v-62.8h59h1.9
		c11.3,1.3,16.9,10,16.9,18.8l0,0l0,0l0,0l0,0c0,8.8-5.6,16.9-16.9,18.8H167h-46.4v25.1L108,696.5L108,696.5z"/>
	<path d="M268.7,659.5h-1.9h-40.2h-1.3c-3.1-0.6-5-3.1-5-6.3c0-2.5,1.9-5.6,5-6.3h1.3h55.2v-12.6h-55.2h-1.9
		c-11.3,1.3-16.9,10-16.9,18.8l0,0l0,0l0,0l0,0l0,0c0,8.8,5.6,16.9,16.9,18.8h1.9h40.2h1.3c3.1,0.6,5,3.1,5,6.3c0,2.5-1.9,5.6-5,6.3
		h-1.3h-59v12.6h59h1.9c11.3-1.3,16.9-10,16.9-18.8l0,0l0,0l0,0l0,0l0,0C285,669.6,279.3,660.8,268.7,659.5"/>
</g>
</svg>
