<svg xmlns="http://www.w3.org/2000/svg" width="160" height="160" viewBox="0.5 0.5 160 160" enable-background="new 0.5 0.5 160 160"><g><path fill="#fff" d="M15.453 133.454l-1.982 1.983-2.97-2.973-2.973 2.973-1.98-1.982 2.97-2.97-2.97-2.97 1.98-1.983 2.973 2.972 2.97-2.973 1.983 1.983-2.975 2.97 2.975 2.97z"/><path fill="#808083" d="M48.522 130.483l-2.975-2.97 1.983-1.982 2.97 2.974 2.973-2.972 1.98 1.983-2.97 2.97 2.97 2.97-1.98 1.982-2.973-2.973-2.97 2.973-1.983-1.983 2.975-2.97z"/><path fill="#00A6DD" d="M68.522 130.483l-2.975-2.97 1.983-1.982 2.97 2.974 2.973-2.972 1.98 1.983-2.97 2.97 2.97 2.97-1.98 1.982-2.973-2.973-2.97 2.973-1.983-1.983 2.975-2.97zM149.07 135.055l-4.227-4.21 2.007-2.025 2.22 2.205 5.08-5.08 2.007 2.022zM109.812 117.19l-8.718-10.716s-.13-.147-.357-.147c-.277 0-.365.12-.365.12L91.58 117.23l-.248.208c-.405.277-.88.396-1.365.396-.486 0-.97-.12-1.388-.405l-.254-.216-10.716-12.972-.142-.225c-.103-.185-.16-.388-.16-.605.02-.49.322-.87.698-1.09.378-.225.818-.334 1.304-.338.485-.003.95.116 1.378.416l.242.208 8.656 10.745s.13.138.357.13c.304-.01.37-.108.37-.108l8.787-10.78c.1-.104.244-.203.244-.203.403-.28.89-.4 1.368-.402.483 0 .972.124 1.388.402l.26.224 8.744 10.75s.08.132.36.12c.272-.004.35-.11.35-.11l8.775-10.78.25-.21c.406-.273.895-.395 1.375-.396.475 0 .964.12 1.375.406l.25.21 10.89 12.962.15.234c.092.174.152.365.153.57v.032c-.02.49-.32.867-.697 1.09-.377.224-.837.33-1.304.338-.456 0-.948-.114-1.374-.413l-.22-.19-8.898-10.806s-.098-.086-.346-.083c-.257.003-.34.116-.34.116l-8.77 10.776-.245.206c-.407.28-.895.396-1.374.398-.6-.004-1.214-.184-1.655-.644"/><path fill="#00A6DD" d="M120.53 115.067c-.773-.01-1.326-.712-1.326-1.506 0-.796.553-1.5 1.326-1.507h3.37c.774.008 1.325.71 1.327 1.507 0 .795-.552 1.497-1.326 1.506h-3.37z"/><path fill="#808083" d="M14.896 114.647l-.466.02H9.413l-.486-.022c-2.845-.386-4.235-2.576-4.246-4.755.01-2.178 1.4-4.32 4.28-4.712l.464-.02h5.017l.487.023c2.846.387 4.236 2.53 4.247 4.71-.01 2.178-1.398 4.367-4.278 4.757m7.434-5.366v-.006c-.297-3.647-3.03-6.61-6.64-7.185l-.602-.074-.627-.026H9.41l-.617.024-.614.074c-3.614.566-6.373 3.55-6.65 7.18l-.028.62H1.5l.023.61v.008c.296 3.645 3.03 6.653 6.64 7.23l.6.07.628.028h5.05l.618-.026.614-.072c3.613-.568 6.373-3.594 6.65-7.228l.027-.62h.002l-.022-.607zm111.743-7.19h20.017v3.14h-8.437v12.48h-3.14v-12.48h-8.44v-3.14zm-102.665 6.24H43l.27-.02c.89-.186 1.29-.84 1.3-1.53-.01-.695-.413-1.353-1.27-1.53l-.3-.02H31.41v3.1zm-3.05 9.38v-15.622L43 102.09l.524.024c2.755.383 4.184 2.534 4.18 4.658v.03c-.004 2.118-1.433 4.257-4.208 4.64l-.494.026H31.486v6.24h-3.128zm40.08-9.35l-.522-.023-9.984-.01-.298-.02c-.858-.177-1.26-.835-1.27-1.528.01-.69.41-1.347 1.296-1.53l.272-.024 13.816.003v-3.14H57.932l-.494.026c-2.775.382-4.205 2.52-4.208 4.64v.03c-.006 2.123 1.425 4.275 4.18 4.658l.522.023 9.985.01.3.02c.857.178 1.26.836 1.27 1.53-.01.69-.41 1.345-1.297 1.53l-.272.022H53.236v3.14l14.68-.005.496-.025c2.775-.384 4.205-2.522 4.207-4.64v-.032c.004-2.124-1.425-4.275-4.18-4.658m88.326-4.706c0-1.085.783-1.688 1.742-1.688s1.74.603 1.74 1.69-.78 1.693-1.74 1.693-1.74-.61-1.74-1.695m3.11 0c0-.87-.535-1.362-1.368-1.362-.834 0-1.37.493-1.37 1.363 0 .883.537 1.37 1.37 1.37.832 0 1.37-.487 1.37-1.37m-1.255.29h-.494v.702h-.345v-1.97h.84c.493 0 .655.287.655.633 0 .23-.1.468-.305.57l.42.768h-.41l-.36-.702zm.01-.95h-.505v.634h.504c.23 0 .272-.178.272-.32 0-.136-.042-.315-.273-.315"/><path fill="#fff" d="M29.07 135.04l-4.227-4.212 2.007-2.024 2.22 2.205 5.08-5.08 2.007 2.022-7.087 7.088z"/><path d="M15.417 58.197H27.13V85.2c0 7.15-2.592 12.204-11.713 12.204S3.704 92.35 3.704 85.2V37.543c0-7.152 2.59-12.205 11.713-12.205 8.94 0 11.713 5.052 11.713 12.204v7.8h-6.167v-7.8c0-3.42-1.45-6.504-5.52-6.504-4.224 0-5.52 2.773-5.52 6.504v47.5c0 3.576 1.45 6.66 5.52 6.66 4.224 0 5.52-2.773 5.52-6.66V63.898h-5.546v-5.7zm29.62 32.03h13.5v6.01h-19.85V26.325h19.85v6.01h-13.5V58.04H56.75v5.857H45.035v26.33zm47.007 6.037h-6.35L83.75 80.327H73.517l-1.944 15.937h-6.35l9.59-69.94h7.8l9.432 69.94zM74.137 74.47h8.94l-4.38-38.56-4.56 38.56zm27.003-48.146h11.557c9.588 0 11.868 4.87 11.868 12.023v15.78c0 5.857-2.125 10.237-7.8 11.56l11.22 30.577h-6.996l-10.264-30.112h-3.265v30.086h-6.322V26.324h.002zm11.064 33.972c4.716 0 6.012-2.28 6.012-6.012v-15.78c0-3.733-1.633-6.013-6.012-6.013h-4.716v27.806h4.716zm39.208 16.273c0-20.343-17.077-12.36-17.077-32.86V37.7c0-7.154 2.28-12.363 11.713-12.363s11.713 5.053 11.713 12.36v7.646h-6.347v-7.646c0-3.576-1.14-6.66-5.364-6.66-4.38 0-5.365 2.773-5.365 6.66v5.856c0 17.233 17.077 9.433 17.077 32.86v8.628c-.002 7.154-2.282 12.364-11.712 12.364s-11.713-5.053-11.713-12.36v-8.63h6.35v8.63c0 3.73 1.295 6.66 5.363 6.66 4.38 0 5.364-2.774 5.364-6.66V76.57h-.002zM114.33 17.537l-9.123-11.065s-.155-.156-.337-.156c-.337 0-.337.155-.337.155l-9.096 11.22-.337.155c-.492.337-.985.492-1.45.492-.493 0-.986-.156-1.452-.493l-.337-.155L80.8 4.19l-.155-.155c0-.337-.155-.492-.155-.803 0-.492.337-.985.648-1.14.492-.155.985-.337 1.45-.337.493 0 .986.155 1.452.492l.336.155 8.94 11.22s.155.156.337.156c.338 0 .338-.155.338-.155l9.276-11.22c.155-.154.337-.154.337-.154.34-.338.805-.493 1.298-.493.492 0 .985.155 1.45.492 0 0 .156.154.338.154l9.122 11.22s0 .156.337.156.337-.155.337-.155l9.12-11.22.338-.156c.336-.338.802-.493 1.295-.493.492 0 .985.155 1.45.492l.337.154 11.376 13.5.155.156c.155.155.155.337.155.648 0 .492-.337.985-.648 1.14-.337.155-.803.337-1.296.337s-.985-.154-1.45-.49l-.156-.156-9.33-11.248s-.154-.155-.336-.155c-.337 0-.337.155-.337.155l-9.122 11.22-.337.156c-.492.337-.985.492-1.45.492-.802.027-1.45-.155-1.917-.62M125.55 15.414c-.803 0-1.296-.804-1.296-1.634s.648-1.633 1.296-1.633h3.576c.803 0 1.296.803 1.296 1.633s-.492 1.633-1.296 1.633h-3.576zM16.4 14.92h-6.19c-3.084-.49-4.56-2.772-4.56-4.87 0-2.28 1.45-4.56 4.378-4.873h6.192c2.93.337 4.38 2.59 4.38 4.872.183 2.1-1.268 4.38-4.197 4.87M24.05 9.4c-.338-3.73-3.085-6.84-6.84-7.49l-.65-.153H9.404c-3.732.647-6.66 3.73-6.997 7.644v1.297c.337 3.732 3.084 6.997 6.84 7.49h7.802c3.732-.65 6.66-3.733 6.84-7.49v-.648l.156-.65h.003zm116.14-7.488H161v3.265h-8.785v12.827h-3.238V5.177h-8.786V1.912zM33.48 8.416h12.36c.985-.155 1.296-.803 1.296-1.633 0-.65-.492-1.452-1.296-1.634H33.48v3.265zm-3.086 9.588V1.73h15.78c2.93.337 4.38 2.59 4.38 4.872 0 2.28-1.45 4.38-4.38 4.872H33.66v6.504l-3.265.026zm41.644-9.588H60.79c-.802-.155-1.295-.803-1.295-1.633 0-.65.492-1.452 1.296-1.634h14.643V1.883H60.636c-2.928.338-4.38 2.592-4.38 4.873 0 2.28 1.452 4.38 4.38 4.872h11.246c.803.154 1.296.802 1.296 1.632 0 .648-.492 1.45-1.296 1.633H56.257v3.266h15.78c2.93-.336 4.38-2.59 4.38-4.87-.155-2.255-1.632-4.536-4.38-4.874"/><g fill="#00A6DD"><path d="M1.377 153.93v1.26H17.13v-1.26H1.378zm14.42-.574v-8.642H2.732v8.642h13.065zm-1.032-7.61v6.57h-11v-6.57h11zM113.13 148.314h-12.125v3.04h12.124v-3.04zm-11.32 2.185l.534-1.334h.644l-.533 1.333h-.645zm1.045 0l.533-1.334h.644l-.532 1.333h-.645zm1.044 0l.53-1.334h.645l-.533 1.333h-.643zm7.79-.22c-.247 0-.446-.2-.446-.447s.2-.446.445-.446.444.2.444.445-.2.444-.445.444v.003zm.77-2.766H101.7l2.12-2.8h6.492l2.15 2.8h-.003zm.67 4.638h-12.126v3.04h12.124v-3.04zm-11.32 2.186l.533-1.333h.644l-.533 1.334h-.644v-.002zm1.044 0l.533-1.333h.644l-.53 1.334h-.645v-.002zm1.044 0l.532-1.333h.644l-.533 1.334h-.643v-.002zm7.79-.22c-.246 0-.445-.2-.445-.446s.2-.445.445-.445c.246 0 .445.2.445.445s-.2.445-.445.446zM52.07 143.404v10.82h13.996v-10.82H52.07zm12.565 9.39H53.5v-7.96h11.135v7.96zm-3.583 2.276l1.43 1.43h-6.828l1.43-1.43h3.968zM151.71 152.334l1.168-3.145h-.986l-.7 2.263-.707-2.265h-1.016l1.19 3.146h1.05zm2.27-2.398l.613 2.4h.72l.614-2.4v2.4h.796v-3.147h-1.278l-.49 1.913-.492-1.915h-1.278v3.146h.796v-2.398zm-7.135-5.222v10.477H159.5v-10.476h-12.655zm4.19.56c.29 0 .526.237.526.528 0 .29-.235.527-.526.527s-.527-.237-.527-.528c0-.29.236-.527.528-.528zm-1.466 0c.29 0 .526.237.526.528 0 .29-.237.527-.528.527s-.527-.237-.527-.528c0-.29.237-.527.528-.527zm-1.465 0c.29 0 .527.237.527.528 0 .29-.236.527-.527.527s-.527-.237-.527-.528c0-.29.236-.527.528-.527zm10.657 9.155h-11.18v-7.486h11.18v7.485z"/></g></g></svg>