<?xml version="1.0" encoding="utf-8"?>
<!-- Generator: Adobe Illustrator 17.0.0, SVG Export Plug-In . SVG Version: 6.00 Build 0)  -->
<!DOCTYPE svg PUBLIC "-//W3C//DTD SVG 1.1//EN" "http://www.w3.org/Graphics/SVG/1.1/DTD/svg11.dtd">
<svg version="1.1" xmlns="http://www.w3.org/2000/svg" xmlns:xlink="http://www.w3.org/1999/xlink" x="0px" y="0px" width="160px"
	 height="160px" viewBox="0.5 0.5 160 160" enable-background="new 0.5 0.5 160 160" xml:space="preserve">
<g id="grid" display="none">
	<g display="inline">
		<g>
			<rect x="0.5" y="0.5" opacity="0.2" fill="#FC651B" width="20.024" height="20"/>
			<rect x="40.492" y="0.5" opacity="0.2" fill="#FC651B" width="20.024" height="20"/>
			<rect x="80.484" y="0.5" opacity="0.2" fill="#FC651B" width="20.024" height="20"/>
			<rect x="120.476" y="0.5" opacity="0.2" fill="#FC651B" width="20.024" height="20"/>
		</g>
		<g>
			<rect x="20.5" y="0.5" opacity="0.2" fill="#00A6DD" width="20.024" height="20"/>
			<rect x="60.492" y="0.5" opacity="0.2" fill="#00A6DD" width="20.024" height="20"/>
			<rect x="100.484" y="0.5" opacity="0.2" fill="#00A6DD" width="20.024" height="20"/>
			<rect x="140.476" y="0.5" opacity="0.2" fill="#00A6DD" width="20.024" height="20"/>
		</g>
	</g>
	<g display="inline">
		<g>
			<rect x="140.476" y="20.5" opacity="0.2" fill="#FC651B" width="20.024" height="20"/>
			<rect x="100.484" y="20.5" opacity="0.2" fill="#FC651B" width="20.024" height="20"/>
			<rect x="60.492" y="20.5" opacity="0.2" fill="#FC651B" width="20.024" height="20"/>
			<rect x="20.5" y="20.5" opacity="0.2" fill="#FC651B" width="20.024" height="20"/>
		</g>
		<g>
			<rect x="120.476" y="20.5" opacity="0.2" fill="#00A6DD" width="20.024" height="20"/>
			<rect x="80.484" y="20.5" opacity="0.2" fill="#00A6DD" width="20.024" height="20"/>
			<rect x="40.492" y="20.5" opacity="0.2" fill="#00A6DD" width="20.024" height="20"/>
			<rect x="0.5" y="20.5" opacity="0.2" fill="#00A6DD" width="20.024" height="20"/>
		</g>
	</g>
	<g display="inline">
		<g>
			<rect x="0.5" y="40.5" opacity="0.2" fill="#FC651B" width="20.024" height="20"/>
			<rect x="40.492" y="40.5" opacity="0.2" fill="#FC651B" width="20.024" height="20"/>
			<rect x="80.484" y="40.5" opacity="0.2" fill="#FC651B" width="20.024" height="20"/>
			<rect x="120.476" y="40.5" opacity="0.2" fill="#FC651B" width="20.024" height="20"/>
		</g>
		<g>
			<rect x="20.5" y="40.5" opacity="0.2" fill="#00A6DD" width="20.024" height="20"/>
			<rect x="60.492" y="40.5" opacity="0.2" fill="#00A6DD" width="20.024" height="20"/>
			<rect x="100.484" y="40.5" opacity="0.2" fill="#00A6DD" width="20.024" height="20"/>
			<rect x="140.476" y="40.5" opacity="0.2" fill="#00A6DD" width="20.024" height="20"/>
		</g>
	</g>
	<g display="inline">
		<g>
			<rect x="140.476" y="60.5" opacity="0.2" fill="#FC651B" width="20.024" height="20"/>
			<rect x="100.484" y="60.5" opacity="0.2" fill="#FC651B" width="20.024" height="20"/>
			<rect x="60.492" y="60.5" opacity="0.2" fill="#FC651B" width="20.024" height="20"/>
			<rect x="20.5" y="60.5" opacity="0.2" fill="#FC651B" width="20.024" height="20"/>
		</g>
		<g>
			<rect x="120.476" y="60.5" opacity="0.2" fill="#00A6DD" width="20.024" height="20"/>
			<rect x="80.484" y="60.5" opacity="0.2" fill="#00A6DD" width="20.024" height="20"/>
			<rect x="40.492" y="60.5" opacity="0.2" fill="#00A6DD" width="20.024" height="20"/>
			<rect x="0.5" y="60.5" opacity="0.2" fill="#00A6DD" width="20.024" height="20"/>
		</g>
	</g>
	<g display="inline">
		<g>
			<rect x="0.5" y="80.5" opacity="0.2" fill="#FC651B" width="20.024" height="20"/>
			<rect x="40.492" y="80.5" opacity="0.2" fill="#FC651B" width="20.024" height="20"/>
			<rect x="80.484" y="80.5" opacity="0.2" fill="#FC651B" width="20.024" height="20"/>
			<rect x="120.476" y="80.5" opacity="0.2" fill="#FC651B" width="20.024" height="20"/>
		</g>
		<g>
			<rect x="20.5" y="80.5" opacity="0.2" fill="#00A6DD" width="20.024" height="20"/>
			<rect x="60.492" y="80.5" opacity="0.2" fill="#00A6DD" width="20.024" height="20"/>
			<rect x="100.484" y="80.5" opacity="0.2" fill="#00A6DD" width="20.024" height="20"/>
			<rect x="140.476" y="80.5" opacity="0.2" fill="#00A6DD" width="20.024" height="20"/>
		</g>
	</g>
	<g display="inline">
		<g>
			<rect x="140.476" y="100.5" opacity="0.2" fill="#FC651B" width="20.024" height="20"/>
			<rect x="100.484" y="100.5" opacity="0.2" fill="#FC651B" width="20.024" height="20"/>
			<rect x="60.492" y="100.5" opacity="0.2" fill="#FC651B" width="20.024" height="20"/>
			<rect x="20.5" y="100.5" opacity="0.2" fill="#FC651B" width="20.024" height="20"/>
		</g>
		<g>
			<rect x="120.476" y="100.5" opacity="0.2" fill="#00A6DD" width="20.024" height="20"/>
			<rect x="80.484" y="100.5" opacity="0.2" fill="#00A6DD" width="20.024" height="20"/>
			<rect x="40.492" y="100.5" opacity="0.2" fill="#00A6DD" width="20.024" height="20"/>
			<rect x="0.5" y="100.5" opacity="0.2" fill="#00A6DD" width="20.024" height="20"/>
		</g>
	</g>
	<g display="inline">
		<g>
			<rect x="0.5" y="120.5" opacity="0.2" fill="#FC651B" width="20.024" height="20"/>
			<rect x="40.492" y="120.5" opacity="0.2" fill="#FC651B" width="20.024" height="20"/>
			<rect x="80.484" y="120.5" opacity="0.2" fill="#FC651B" width="20.024" height="20"/>
			<rect x="120.476" y="120.5" opacity="0.2" fill="#FC651B" width="20.024" height="20"/>
		</g>
		<g>
			<rect x="20.5" y="120.5" opacity="0.2" fill="#00A6DD" width="20.024" height="20"/>
			<rect x="60.492" y="120.5" opacity="0.2" fill="#00A6DD" width="20.024" height="20"/>
			<rect x="100.484" y="120.5" opacity="0.2" fill="#00A6DD" width="20.024" height="20"/>
			<rect x="140.476" y="120.5" opacity="0.2" fill="#00A6DD" width="20.024" height="20"/>
		</g>
	</g>
	<g display="inline">
		<g>
			<rect x="140.476" y="140.5" opacity="0.2" fill="#FC651B" width="20.024" height="20"/>
			<rect x="100.484" y="140.5" opacity="0.2" fill="#FC651B" width="20.024" height="20"/>
			<rect x="60.492" y="140.5" opacity="0.2" fill="#FC651B" width="20.024" height="20"/>
			<rect x="20.5" y="140.5" opacity="0.2" fill="#FC651B" width="20.024" height="20"/>
		</g>
		<g>
			<rect x="120.476" y="140.5" opacity="0.2" fill="#00A6DD" width="20.024" height="20"/>
			<rect x="80.484" y="140.5" opacity="0.2" fill="#00A6DD" width="20.024" height="20"/>
			<rect x="40.492" y="140.5" opacity="0.2" fill="#00A6DD" width="20.024" height="20"/>
			<rect x="0.5" y="140.5" opacity="0.2" fill="#00A6DD" width="20.024" height="20"/>
		</g>
	</g>
</g>
<g id="Layer_1">
	<path fill="#FFFFFF" d="M15.453,133.454l-1.982,1.983l-2.971-2.973l-2.973,2.973l-1.98-1.982l2.97-2.97l-2.97-2.97l1.98-1.983
		l2.973,2.972l2.97-2.973l1.983,1.982l-2.975,2.97L15.453,133.454z"/>
	<path fill="#808083" d="M48.522,130.483l-2.975-2.97l1.983-1.982l2.97,2.973l2.973-2.972l1.98,1.983l-2.97,2.97l2.97,2.97
		l-1.98,1.982l-2.973-2.973l-2.971,2.973l-1.982-1.983L48.522,130.483z"/>
	<path fill="#00A6DD" d="M68.522,130.483l-2.975-2.97l1.983-1.982l2.97,2.973l2.973-2.972l1.98,1.983l-2.97,2.97l2.97,2.97
		l-1.98,1.982l-2.973-2.973l-2.971,2.973l-1.982-1.983L68.522,130.483z"/>
	<polygon fill="#00A6DD" points="149.07,135.055 144.843,130.844 146.85,128.82 149.07,131.025 154.15,125.944 156.157,127.967 	"/>
	<path fill="#00A6DD" d="M109.812,117.19l-8.718-10.716c0,0-0.13-0.147-0.357-0.147c-0.277,0-0.365,0.12-0.365,0.12l-8.792,10.784
		l-0.248,0.207c-0.405,0.277-0.88,0.396-1.365,0.396c-0.486,0-0.97-0.12-1.388-0.405l-0.253-0.215L77.61,104.242l-0.142-0.225
		c-0.103-0.185-0.16-0.388-0.16-0.605c0.02-0.49,0.322-0.87,0.698-1.09c0.378-0.225,0.818-0.334,1.304-0.338
		c0.485-0.003,0.95,0.116,1.378,0.416l0.242,0.208l8.656,10.745c0,0,0.13,0.138,0.357,0.13c0.304-0.01,0.37-0.108,0.37-0.108
		l8.787-10.781c0.1-0.103,0.244-0.202,0.244-0.202c0.403-0.28,0.89-0.4,1.368-0.402c0.483,0,0.972,0.124,1.388,0.402l0.26,0.224
		l8.744,10.75c0,0,0.08,0.132,0.36,0.12c0.272-0.004,0.35-0.11,0.35-0.11l8.775-10.78l0.25-0.21
		c0.407-0.273,0.896-0.395,1.376-0.396c0.475,0,0.964,0.12,1.375,0.406l0.25,0.21l10.89,12.962l0.15,0.234
		c0.092,0.174,0.152,0.365,0.153,0.57v0.032c-0.02,0.49-0.32,0.867-0.697,1.09c-0.377,0.224-0.837,0.33-1.304,0.338
		c-0.456,0-0.948-0.114-1.374-0.413l-0.22-0.19l-8.898-10.805c0,0-0.098-0.086-0.346-0.083c-0.257,0.002-0.34,0.115-0.34,0.115
		l-8.77,10.776l-0.245,0.206c-0.406,0.28-0.894,0.396-1.373,0.398c-0.6-0.004-1.214-0.184-1.655-0.644"/>
	<path fill="#00A6DD" d="M120.53,115.067c-0.773-0.01-1.326-0.712-1.326-1.506c0-0.797,0.553-1.5,1.326-1.508h3.37
		c0.774,0.008,1.325,0.71,1.327,1.507c0,0.795-0.552,1.497-1.326,1.506h-3.37L120.53,115.067z"/>
	<path fill="#808083" d="M14.896,114.647l-0.466,0.02H9.413l-0.486-0.022c-2.845-0.386-4.235-2.576-4.246-4.755
		c0.01-2.178,1.4-4.32,4.278-4.712l0.465-0.02h5.017l0.486,0.023c2.846,0.386,4.236,2.53,4.247,4.71
		C19.164,112.068,17.776,114.257,14.896,114.647 M22.33,109.281v-0.007c-0.297-3.647-3.03-6.61-6.64-7.185l-0.602-0.073
		l-0.627-0.026h-5.05l-0.618,0.024l-0.614,0.074c-3.613,0.566-6.372,3.55-6.65,7.18l-0.027,0.62H1.5l0.023,0.61v0.008
		c0.296,3.645,3.03,6.653,6.64,7.23l0.6,0.07l0.628,0.028h5.05l0.617-0.026l0.614-0.072c3.613-0.568,6.373-3.594,6.65-7.228
		l0.027-0.62h0.003L22.33,109.281L22.33,109.281z M134.073,102.089h20.017v3.14h-8.437v12.48h-3.14V105.23h-8.44L134.073,102.089z
		 M31.408,108.329l11.593,0.002l0.27-0.022c0.888-0.185,1.29-0.84,1.3-1.53c-0.01-0.694-0.414-1.352-1.272-1.53l-0.298-0.02H31.408
		V108.329z M28.358,117.709v-15.621l14.643,0.003l0.523,0.023c2.755,0.383,4.184,2.534,4.18,4.658v0.03
		c-0.004,2.118-1.433,4.257-4.208,4.64l-0.494,0.026H31.486v6.24L28.358,117.709L28.358,117.709z M68.438,108.36l-0.522-0.023
		l-9.984-0.01l-0.298-0.02c-0.858-0.177-1.26-0.835-1.27-1.528c0.01-0.69,0.41-1.346,1.296-1.53l0.272-0.023l13.816,0.003v-3.14
		H57.932l-0.494,0.027c-2.775,0.382-4.205,2.52-4.208,4.64v0.03c-0.006,2.123,1.425,4.275,4.18,4.658l0.522,0.023l9.985,0.01
		l0.3,0.02c0.857,0.178,1.26,0.836,1.27,1.53c-0.01,0.69-0.41,1.345-1.297,1.53l-0.272,0.022H53.236v3.14l14.68-0.004l0.496-0.025
		c2.775-0.384,4.205-2.522,4.207-4.64v-0.032c0.005-2.124-1.424-4.275-4.18-4.658 M156.766,103.654c0-1.085,0.783-1.688,1.742-1.688
		s1.74,0.603,1.74,1.69s-0.78,1.693-1.74,1.693s-1.74-0.608-1.74-1.694 M159.878,103.655c0-0.87-0.535-1.362-1.368-1.362
		c-0.834,0-1.37,0.493-1.37,1.363c0,0.883,0.537,1.37,1.37,1.37c0.832,0,1.37-0.487,1.37-1.37 M158.625,103.946h-0.494v0.702h-0.346
		v-1.97h0.84c0.493,0,0.655,0.287,0.655,0.633c0,0.23-0.1,0.467-0.305,0.57l0.42,0.767h-0.41L158.625,103.946z M158.635,102.996
		h-0.505v0.634h0.504c0.23,0,0.272-0.178,0.272-0.32c0-0.136-0.042-0.315-0.273-0.315"/>
	<path fill="#FFFFFF" d="M29.07,135.04l-4.227-4.212l2.007-2.024l2.22,2.205l5.08-5.08l2.007,2.023L29.07,135.04z"/>
	<path d="M15.417,58.197H27.13v27.002c0,7.152-2.592,12.205-11.713,12.205S3.704,92.351,3.704,85.199V37.544
		c0-7.152,2.59-12.205,11.713-12.205c8.94,0,11.713,5.053,11.713,12.205v7.8h-6.167v-7.8c0-3.42-1.45-6.504-5.52-6.504
		c-4.224,0-5.52,2.773-5.52,6.504v47.5c0,3.576,1.45,6.66,5.52,6.66c4.224,0,5.52-2.773,5.52-6.66V63.898h-5.546v-5.7L15.417,58.197
		z M45.036,90.226h13.5v6.012h-19.85V26.324h19.85v6.01h-13.5v25.707H56.75v5.856H45.035L45.036,90.226L45.036,90.226z
		 M92.044,96.264h-6.35l-1.943-15.937H73.516l-1.944,15.937h-6.35l9.59-69.94h7.8C82.612,26.324,92.044,96.264,92.044,96.264z
		 M74.137,74.47h8.94l-4.38-38.56C78.697,35.91,74.137,74.47,74.137,74.47z M101.14,26.324h11.557
		c9.588,0,11.868,4.87,11.868,12.023v15.78c0,5.857-2.125,10.237-7.8,11.56l11.22,30.577h-6.996l-10.263-30.112h-3.265v30.086
		h-6.323V26.324H101.14z M112.204,60.296c4.716,0,6.012-2.28,6.012-6.012v-15.78c0-3.733-1.633-6.013-6.012-6.013h-4.716v27.805
		H112.204z M151.412,76.569c0-20.342-17.077-12.36-17.077-32.86v-6.01c0-7.153,2.28-12.362,11.713-12.362s11.713,5.053,11.713,12.36
		v7.646h-6.348v-7.646c0-3.576-1.14-6.66-5.364-6.66c-4.38,0-5.364,2.773-5.364,6.66v5.856c0,17.233,17.077,9.433,17.077,32.86
		v8.628c-0.002,7.153-2.282,12.363-11.712,12.363s-11.713-5.053-11.713-12.36v-8.63h6.35v8.63c0,3.73,1.295,6.66,5.363,6.66
		c4.38,0,5.364-2.774,5.364-6.66v-8.475H151.412z M114.33,17.538l-9.123-11.065c0,0-0.155-0.156-0.337-0.156
		c-0.337,0-0.337,0.155-0.337,0.155l-9.096,11.22L95.1,17.847c-0.492,0.337-0.985,0.492-1.45,0.492
		c-0.493,0-0.986-0.155-1.452-0.492l-0.337-0.155L80.798,4.19l-0.155-0.155c0-0.337-0.155-0.492-0.155-0.803
		c0-0.492,0.337-0.985,0.648-1.14c0.492-0.155,0.985-0.337,1.45-0.337c0.493,0,0.986,0.155,1.452,0.492l0.336,0.155l8.94,11.22
		c0,0,0.155,0.156,0.337,0.156c0.337,0,0.337-0.155,0.337-0.155l9.276-11.219c0.155-0.155,0.337-0.155,0.337-0.155
		c0.338-0.337,0.804-0.492,1.297-0.492c0.492,0,0.985,0.155,1.45,0.492c0,0,0.156,0.155,0.338,0.155l9.122,11.22
		c0,0,0,0.156,0.337,0.156s0.337-0.155,0.337-0.155l9.121-11.221l0.337-0.155c0.336-0.337,0.802-0.492,1.295-0.492
		c0.492,0,0.985,0.155,1.45,0.492l0.337,0.155l11.376,13.5l0.155,0.156c0.155,0.155,0.155,0.337,0.155,0.648
		c0,0.492-0.337,0.985-0.648,1.14c-0.337,0.155-0.803,0.337-1.296,0.337s-0.985-0.154-1.45-0.49l-0.156-0.156l-9.33-11.247
		c0,0-0.154-0.155-0.336-0.155c-0.337,0-0.337,0.155-0.337,0.155l-9.122,11.22l-0.337,0.156c-0.492,0.337-0.985,0.492-1.45,0.492
		c-0.802,0.027-1.45-0.155-1.917-0.62"/>
	<path d="M125.55,15.414c-0.803,0-1.296-0.804-1.296-1.634s0.648-1.633,1.296-1.633h3.576c0.803,0,1.296,0.803,1.296,1.633
		s-0.492,1.633-1.296,1.633L125.55,15.414L125.55,15.414z M16.4,14.921h-6.19c-3.084-0.492-4.56-2.773-4.56-4.872
		c0-2.28,1.45-4.56,4.378-4.872h6.192c2.93,0.337,4.38,2.59,4.38,4.872c0.183,2.1-1.268,4.38-4.197,4.872 M24.049,9.401
		c-0.337-3.732-3.084-6.84-6.84-7.49l-0.65-0.154H9.405c-3.732,0.647-6.66,3.73-6.997,7.644v1.296
		c0.337,3.732,3.084,6.997,6.84,7.49h7.802c3.732-0.65,6.66-3.733,6.84-7.49v-0.648l0.156-0.648L24.049,9.401z M140.19,1.912H161
		v3.265h-8.785v12.827h-3.238V5.177h-8.786L140.19,1.912z M33.48,8.416h12.36c0.985-0.155,1.296-0.803,1.296-1.633
		c0-0.65-0.492-1.452-1.296-1.634H33.48v3.266V8.416z M30.394,18.004V1.73h15.78c2.93,0.337,4.38,2.59,4.38,4.872
		c0,2.28-1.45,4.38-4.38,4.872H33.66v6.504l-3.265,0.026H30.394z M72.038,8.416H60.79c-0.802-0.155-1.295-0.803-1.295-1.633
		c0-0.65,0.492-1.452,1.296-1.634h14.642V1.884H60.636c-2.928,0.338-4.38,2.592-4.38,4.873c0,2.28,1.452,4.38,4.38,4.872h11.246
		c0.803,0.155,1.296,0.803,1.296,1.633c0,0.648-0.492,1.45-1.296,1.633H56.257v3.266h15.78c2.93-0.337,4.38-2.59,4.38-4.872
		C76.262,11.035,74.785,8.754,72.038,8.416"/>
	<g>
		<path fill="#00A6DD" d="M1.377,153.929v1.262H17.13v-1.262H1.378H1.377z M15.797,153.356v-8.642H2.732v8.642
			C2.732,153.356,15.797,153.356,15.797,153.356z M14.765,145.746v6.57h-11v-6.57H14.765z"/>
		<path fill="#00A6DD" d="M113.13,148.314h-12.125v3.04h12.124L113.13,148.314L113.13,148.314z M101.81,150.499l0.534-1.333h0.644
			l-0.533,1.333H101.81L101.81,150.499z M102.855,150.499l0.533-1.333h0.644l-0.532,1.333
			C103.5,150.499,102.855,150.499,102.855,150.499z M103.899,150.499l0.532-1.333h0.644l-0.533,1.333H103.899L103.899,150.499z
			 M111.689,150.279c-0.246,0-0.445-0.2-0.445-0.446c0-0.247,0.2-0.446,0.445-0.446c0.246,0,0.445,0.2,0.445,0.445
			s-0.2,0.444-0.445,0.444V150.279z M112.459,147.514H101.7l2.12-2.8h6.492l2.15,2.8H112.459z M113.129,152.152h-12.125v3.04h12.124
			L113.129,152.152L113.129,152.152z M101.809,154.338l0.534-1.333h0.644l-0.533,1.334h-0.644L101.809,154.338z M102.854,154.338
			l0.533-1.333h0.644l-0.531,1.334h-0.645L102.854,154.338z M103.898,154.338l0.532-1.333h0.644l-0.533,1.334h-0.644
			L103.898,154.338z M111.688,154.118c-0.246,0-0.445-0.2-0.445-0.446s0.2-0.445,0.445-0.445c0.246,0,0.445,0.2,0.445,0.445
			S111.933,154.117,111.688,154.118L111.688,154.118z"/>
		<path fill="#00A6DD" d="M52.07,143.404v10.82h13.996v-10.82H52.07z M64.635,152.794H53.5v-7.96h11.135V152.794z M61.052,155.07
			l1.43,1.43h-6.828l1.43-1.43H61.052z"/>
		<path fill="#00A6DD" d="M151.71,152.334l1.168-3.145h-0.986l-0.7,2.264l-0.707-2.265h-1.016l1.19,3.146H151.71z M153.981,149.936
			l0.612,2.4h0.72l0.614-2.4v2.4h0.796v-3.147h-1.278l-0.49,1.914l-0.492-1.915h-1.278v3.146h0.796V149.936z M146.845,144.714
			v10.477H159.5v-10.477H146.845z M151.035,145.274c0.29,0,0.526,0.237,0.526,0.528c0,0.29-0.236,0.527-0.527,0.527
			s-0.527-0.236-0.527-0.527C150.507,145.512,150.743,145.275,151.035,145.274L151.035,145.274z M149.569,145.274
			c0.29,0,0.527,0.237,0.527,0.528c0,0.29-0.237,0.527-0.528,0.527s-0.527-0.236-0.527-0.527c0-0.29,0.236-0.527,0.527-0.527
			L149.569,145.274z M148.105,145.274c0.29,0,0.527,0.237,0.527,0.528c0,0.29-0.236,0.527-0.527,0.527s-0.527-0.236-0.527-0.527
			c0-0.29,0.236-0.527,0.528-0.527L148.105,145.274z M158.762,154.429h-11.18v-7.485h11.18V154.429z"/>
	</g>
</g>
</svg>
