<?xml version="1.0" encoding="utf-8"?>
<!-- Generator: Adobe Illustrator 17.0.0, SVG Export Plug-In . SVG Version: 6.00 Build 0)  -->
<!DOCTYPE svg PUBLIC "-//W3C//DTD SVG 1.1//EN" "http://www.w3.org/Graphics/SVG/1.1/DTD/svg11.dtd">
<svg version="1.1" id="Layer_1" xmlns="http://www.w3.org/2000/svg" xmlns:xlink="http://www.w3.org/1999/xlink" x="0px" y="0px"
	 width="160px" height="40px" viewBox="0 0 160 40" enable-background="new 0 0 160 40" xml:space="preserve">
<path fill="#FFFFFF" d="M15.453,33.47l-1.982,1.983L10.5,32.48l-2.973,2.973l-1.98-1.982l2.97-2.971l-2.97-2.97l1.98-1.983
	L10.5,28.52l2.97-2.973l1.983,1.982L12.478,30.5L15.453,33.47z M149.07,35.055l-4.227-4.212l2.007-2.024l2.22,2.206l5.08-5.08
	l2.007,2.023L149.07,35.055z"/>
<g>
	<path fill="#00A6DD" d="M109.035,17.843l-8.787-10.8c0,0-0.13-0.148-0.36-0.148c-0.279,0-0.368,0.121-0.368,0.121l-8.861,10.869
		l-0.25,0.209c-0.408,0.279-0.888,0.399-1.376,0.399c-0.49,0-0.979-0.121-1.399-0.408l-0.254-0.217L76.578,4.793l-0.142-0.227
		c-0.104-0.186-0.161-0.391-0.16-0.61c0.02-0.494,0.324-0.876,0.702-1.099c0.381-0.227,0.824-0.337,1.314-0.341
		c0.489-0.003,0.958,0.117,1.389,0.419l0.244,0.21l8.724,10.83c0,0,0.132,0.14,0.36,0.132c0.306-0.011,0.373-0.109,0.373-0.109
		L98.24,3.132c0.099-0.104,0.245-0.204,0.245-0.204c0.406-0.283,0.898-0.404,1.379-0.405c0.487,0,0.98,0.125,1.399,0.405
		c0,0,0.18,0.155,0.262,0.226l8.813,10.835c0,0,0.081,0.133,0.363,0.121c0.274-0.004,0.353-0.112,0.353-0.112l8.844-10.865
		l0.254-0.212c0.409-0.274,0.902-0.397,1.386-0.398c0.479,0.001,0.972,0.122,1.386,0.409l0.252,0.213l10.974,13.063l0.151,0.236
		c0.094,0.175,0.154,0.368,0.155,0.575c-0.001,0,0,0.029,0,0.029c-0.02,0.493-0.323,0.874-0.702,1.098
		c-0.38,0.227-0.844,0.335-1.314,0.342c-0.46,0-0.955-0.115-1.385-0.416l-0.221-0.19l-8.971-10.891c0,0-0.099-0.087-0.349-0.084
		c-0.259,0.002-0.342,0.116-0.342,0.116l-8.839,10.861l-0.248,0.208c-0.408,0.281-0.9,0.399-1.383,0.401
		C110.099,18.488,109.48,18.307,109.035,17.843"/>
	<path fill="#00A6DD" d="M119.837,15.704c-0.779-0.01-1.336-0.718-1.336-1.518c0.001-0.803,0.557-1.511,1.336-1.52h3.398
		c0.779,0.009,1.334,0.718,1.336,1.52c-0.001,0.801-0.556,1.509-1.336,1.518H119.837z"/>
	<path fill="#808083" d="M13.999,15.28l-0.469,0.021H8.474l-0.49-0.023c-2.868-0.39-4.269-2.597-4.28-4.793
		C3.715,8.29,5.115,6.13,8.016,5.736l0.469-0.021h5.057l0.49,0.024c2.868,0.389,4.269,2.55,4.28,4.746
		C18.301,12.68,16.902,14.886,13.999,15.28 M21.493,9.871V9.864c-0.299-3.675-3.054-6.661-6.692-7.241l-0.607-0.074l-0.632-0.026
		H8.471L7.85,2.549L7.231,2.622C3.59,3.193,0.809,6.199,0.528,9.86l-0.026,0.625H0.5l0.023,0.614v0.008
		c0.298,3.674,3.053,6.705,6.691,7.286l0.607,0.073l0.632,0.027h5.091l0.621-0.026l0.619-0.073c3.641-0.572,6.423-3.622,6.703-7.285
		l0.026-0.624h0.003L21.493,9.871z"/>
	<polygon fill="#808083" points="134.116,2.623 154.291,2.623 154.291,5.789 145.787,5.789 145.787,18.368 142.946,18.368 
		142.623,18.368 142.623,5.789 134.116,5.789 	"/>
	<path fill="#808083" d="M30.642,8.913l11.684,0.002l0.273-0.022c0.894-0.186,1.298-0.847,1.308-1.543
		c-0.01-0.698-0.416-1.362-1.281-1.54l-0.3-0.021H30.642V8.913z M27.568,18.366V2.622l14.758,0.004l0.527,0.023
		c2.777,0.385,4.217,2.553,4.212,4.694V7.35v0.008v0.005v0.009v0.001c-0.003,2.135-1.443,4.291-4.24,4.677l-0.498,0.026H30.722
		v6.289L27.568,18.366L27.568,18.366z"/>
	<path fill="#808083" d="M67.964,8.944l-0.526-0.023L57.375,8.912l-0.3-0.021c-0.865-0.178-1.27-0.842-1.281-1.54
		c0.01-0.696,0.413-1.357,1.307-1.543l0.274-0.022L71.3,5.789V2.623H57.375L56.877,2.65c-2.797,0.385-4.238,2.54-4.241,4.676v0.001
		v0.009v0.006V7.35v0.007c-0.006,2.14,1.436,4.309,4.213,4.695l0.526,0.023l10.064,0.009l0.3,0.022
		c0.865,0.178,1.27,0.842,1.281,1.54c-0.011,0.696-0.413,1.357-1.307,1.543l-0.274,0.022L52.641,15.21v3.165l14.798-0.003
		l0.499-0.026c2.797-0.387,4.238-2.542,4.24-4.678v-0.001v-0.009v-0.005v-0.008v-0.006C72.183,11.498,70.743,9.33,67.964,8.944"/>
	<path fill="#808083" d="M156.989,4.202c0-1.095,0.788-1.702,1.755-1.702c0.967,0,1.755,0.608,1.755,1.702s-0.788,1.707-1.755,1.707
		C157.777,5.909,156.989,5.296,156.989,4.202 M160.125,4.202c0-0.877-0.54-1.374-1.38-1.374c-0.841,0-1.38,0.497-1.38,1.374
		c0,0.889,0.54,1.38,1.38,1.38C159.584,5.582,160.125,5.091,160.125,4.202 M158.861,4.493h-0.497v0.708h-0.349V3.214h0.846
		c0.498,0,0.661,0.29,0.661,0.639c0,0.232-0.101,0.471-0.307,0.576l0.423,0.772h-0.412L158.861,4.493z M158.872,3.535h-0.508v0.64
		h0.508c0.232,0,0.275-0.179,0.275-0.322C159.146,3.715,159.104,3.535,158.872,3.535"/>
</g>
<polygon fill="#00A6DD" points="79.07,35.055 74.843,30.843 76.85,28.819 79.07,31.025 84.15,25.945 86.157,27.968 "/>
</svg>
