<?xml version="1.0" encoding="utf-8"?>
<!-- Generator: Adobe Illustrator 17.0.0, SVG Export Plug-In . SVG Version: 6.00 Build 0)  -->
<!DOCTYPE svg PUBLIC "-//W3C//DTD SVG 1.1//EN" "http://www.w3.org/Graphics/SVG/1.1/DTD/svg11.dtd">
<svg version="1.1" id="Layer_1" xmlns="http://www.w3.org/2000/svg" xmlns:xlink="http://www.w3.org/1999/xlink" x="0px" y="0px"
	 width="157px" height="17px" viewBox="-1.115 0 157 17" enable-background="new -1.115 0 157 17" xml:space="preserve">
<g>
	<path fill="#FFFFFF" d="M108.565,16.12L99.708,5.375c0,0-0.151-0.151-0.327-0.151c-0.327,0-0.327,0.151-0.327,0.151l-8.832,10.896
		l-0.327,0.151c-0.478,0.327-0.956,0.478-1.409,0.478c-0.478,0-0.956-0.151-1.409-0.478l-0.327-0.151L76.004,3.161L75.853,3.01
		c0-0.327-0.151-0.478-0.151-0.78c0-0.478,0.327-0.956,0.629-1.107c0.478-0.151,0.956-0.327,1.409-0.327
		c0.478,0,0.956,0.151,1.409,0.478l0.327,0.151l8.681,10.896c0,0,0.151,0.151,0.327,0.151c0.327,0,0.327-0.151,0.327-0.151
		l9.009-10.896c0.151-0.151,0.327-0.151,0.327-0.151c0.327-0.327,0.78-0.478,1.258-0.478c0.478,0,0.956,0.151,1.409,0.478
		c0,0,0.151,0.151,0.327,0.151L110,12.321c0,0,0,0.151,0.327,0.151c0.327,0,0.327-0.151,0.327-0.151l8.858-10.896l0.327-0.151
		c0.327-0.327,0.78-0.478,1.258-0.478s0.956,0.151,1.409,0.478l0.327,0.151l11.047,13.11l0.151,0.151
		c0.151,0.151,0.151,0.327,0.151,0.629l0,0c0,0.478-0.327,0.956-0.629,1.107c-0.327,0.151-0.78,0.327-1.258,0.327
		s-0.956-0.151-1.409-0.478l-0.151-0.151l-9.06-10.921c0,0-0.151-0.151-0.327-0.151c-0.327,0-0.327,0.151-0.327,0.151l-8.858,10.896
		l-0.327,0.151c-0.478,0.327-0.956,0.478-1.409,0.478C109.647,16.749,109.018,16.573,108.565,16.12"/>
	<path fill="#FFFFFF" d="M119.461,14.057c-0.78,0-1.258-0.78-1.258-1.585s0.629-1.585,1.258-1.585h3.472
		c0.78,0,1.258,0.78,1.258,1.585s-0.478,1.585-1.258,1.585H119.461z"/>
	<path fill="#FFFFFF" d="M13.473,13.579h-0.478H7.937H7.459C4.464,13.101,3.03,10.886,3.03,8.848c0-2.214,1.409-4.429,4.253-4.731
		h0.478h5.058h0.478c2.844,0.327,4.253,2.516,4.253,4.731C17.726,10.886,16.316,13.101,13.473,13.579 M20.896,8.219L20.896,8.219
		c-0.327-3.624-2.994-6.643-6.643-7.272l-0.629-0.151h-0.629H7.937H7.308H6.679C3.055,1.425,0.212,4.419-0.115,8.219v0.629l0,0
		v0.629l0,0c0.327,3.624,2.994,6.794,6.643,7.272h0.629h0.629h5.058h0.629h0.629c3.624-0.629,6.467-3.624,6.643-7.272V8.848l0,0
		L20.896,8.219z"/>
	<polygon fill="#FFFFFF" points="133.678,0.947 153.885,0.947 153.885,4.117 145.354,4.117 145.354,16.573 142.511,16.573 
		142.209,16.573 142.209,4.117 133.678,4.117 	"/>
	<path fill="#FFFFFF" d="M30.056,7.263h11.676h0.327c0.956-0.151,1.258-0.78,1.258-1.585c0-0.629-0.478-1.409-1.258-1.585h-0.327
		H30.056V7.263z M27.061,16.573V0.771h14.846h0.478c2.844,0.327,4.253,2.516,4.253,4.731l0,0l0,0l0,0l0,0
		c0,2.214-1.409,4.253-4.253,4.731h-0.478H30.232v6.316L27.061,16.573L27.061,16.573z"/>
	<path fill="#FFFFFF" d="M67.499,7.263h-0.478H56.905h-0.327c-0.78-0.151-1.258-0.78-1.258-1.585c0-0.629,0.478-1.409,1.258-1.585
		h0.327h13.89V0.922h-13.89h-0.478c-2.844,0.327-4.253,2.516-4.253,4.731l0,0l0,0l0,0l0,0l0,0c0,2.214,1.409,4.253,4.253,4.731
		h0.478h10.116h0.327c0.78,0.151,1.258,0.78,1.258,1.585c0,0.629-0.478,1.409-1.258,1.585h-0.327H52.174v3.171h14.846h0.478
		c2.844-0.327,4.253-2.516,4.253-4.731l0,0l0,0l0,0l0,0l0,0C71.6,9.804,70.166,7.59,67.499,7.263"/>
</g>
</svg>
