<?xml version="1.0" encoding="utf-8"?>
<!-- Generator: Adobe Illustrator 17.0.0, SVG Export Plug-In . SVG Version: 6.00 Build 0)  -->
<!DOCTYPE svg PUBLIC "-//W3C//DTD SVG 1.1//EN" "http://www.w3.org/Graphics/SVG/1.1/DTD/svg11.dtd">
<svg version="1.1" id="Layer_1" xmlns="http://www.w3.org/2000/svg" xmlns:xlink="http://www.w3.org/1999/xlink" x="0px" y="0px"
	 width="100px" height="100px" viewBox="0 0 100 100" enable-background="new 0 0 100 100" xml:space="preserve">
<polygon id="check-mark-icon" fill="#58595B" points="-1706.068,1440.377 -1745.766,1480.075 -1762.96,1462.875 -1775.711,1475.629 
	-1745.765,1505.583 -1693.311,1453.125 "/>
<polygon id="x-mark-icon" fill="#58595B" points="-1467.633,1496.699 -1491.36,1472.975 -1467.636,1449.25 -1480.392,1436.501 
	-1504.112,1460.225 -1527.836,1436.505 -1540.59,1449.25 -1516.862,1472.977 -1540.587,1496.705 -1527.841,1509.459 
	-1504.111,1485.727 -1480.381,1509.456 "/>
<polygon id="x-mark-icon_1_" fill="#58595B" points="-1230.953,1463.957 -1264.506,1463.959 -1264.507,1430.407 -1282.542,1430.413 
	-1282.539,1463.961 -1316.088,1463.963 -1316.093,1481.994 -1282.538,1481.993 -1282.536,1515.548 -1264.505,1515.553 
	-1264.506,1481.992 -1230.947,1481.992 "/>
<polygon id="x-mark-icon_2_" fill="#58595B" points="-999.668,1464.069 -1084.803,1464.076 -1084.808,1482.107 -999.663,1482.104 
	"/>
<path id="menu-icon" fill="#58595B" d="M-771.738,1454.846h-82.4v-13h82.4V1454.846z M-771.738,1466.846h-82.4v13h82.4V1466.846z
	 M-771.738,1491.846h-82.4v13h82.4V1491.846z"/>
<polygon id="arrow-25-icon" fill="#58595B" points="-1299.537,1673.157 -1288.507,1662.18 -1247.503,1703.38 -1288.507,1744.58 
	-1299.537,1733.603 -1269.458,1703.38 "/>
<path id="menu-2-icon" fill="#58595B" d="M-839.465,1733.574h-14.605v-13h14.605V1733.574z M-839.465,1695.574h-14.605v13h14.605
	V1695.574z M-839.465,1670.574h-14.605v13h14.605V1670.574z M-830.465,1670.574v13h58.795v-13H-830.465z M-830.465,1708.574h58.795
	v-13h-58.795V1708.574z M-830.465,1733.574h58.795v-13h-58.795V1733.574z"/>
<path id="warning-4-icon" fill="#58595B" d="M-1748.835,1899.393h16.678v50.581h-16.678V1899.393L-1748.835,1899.393z
	 M-1740.496,1975.455c-4.971,0-9-4.03-9-9c0-4.971,4.029-9,9-9c4.97,0,9,4.03,9,9
	C-1731.496,1971.426-1735.525,1975.455-1740.496,1975.455z"/>
<path id="help-icon" fill="#58595B" d="M-1503.419,1974.98c-4.973,0-9.006-4.033-9.006-9.008c0-4.972,4.033-9.004,9.006-9.004
	c4.974,0,9.006,4.032,9.006,9.004C-1494.413,1970.947-1498.445,1974.98-1503.419,1974.98z M-1496.338,1948.36v1.62
	c0,0-13.503,0-14.846,0v-1.62c0-4.584,0.669-10.465,5.991-15.578c5.323-5.113,11.974-9.337,11.974-15.725
	c0-7.062-4.901-10.797-11.08-10.797c-10.297,0-10.969,10.679-11.223,13.03h-14.44c0.385-11.135,5.091-26.71,25.749-26.71
	c17.903,0,25.951,11.99,25.951,23.233C-1478.261,1933.709-1496.338,1936.818-1496.338,1948.36z"/>
<path id="refresh-3-icon" fill="#58595B" d="M-1250.267,1910.021l-7.45,7.451c-4.045-4.045-9.632-6.546-15.804-6.546
	c-12.344,0-22.35,10.011-22.35,22.355c0,0.003,0-0.003,0,0h8.682l-13.868,13.863l-13.854-13.863h8.503c0-0.002,0,0.001,0,0
	c0-18.163,14.724-32.892,32.887-32.892C-1264.44,1900.389-1256.218,1904.07-1250.267,1910.021z M-1232.511,1932.133l-13.854-13.863
	l-13.868,13.863h8.682c0,0.003,0-0.003,0,0c0,12.344-10.007,22.355-22.35,22.355c-6.172,0-11.759-2.502-15.804-6.546l-7.45,7.451
	c5.952,5.951,14.173,9.632,23.255,9.632c18.163,0,32.887-14.729,32.887-32.892c0-0.001,0,0.002,0,0L-1232.511,1932.133
	L-1232.511,1932.133z"/>
<path id="magnifier-2-icon" fill="#58595B" d="M-1002.44,1966.898l-21.302-21.302c4.008-5.511,6.377-12.287,6.377-19.607
	c0-18.421-14.987-33.408-33.409-33.408c-18.421,0-33.408,14.987-33.408,33.408c0,18.421,14.987,33.408,33.408,33.408
	c6.982,0,13.47-2.155,18.837-5.832l21.415,21.415L-1002.44,1966.898z M-1074.385,1925.988c0-13.019,10.592-23.611,23.611-23.611
	c13.02,0,23.611,10.592,23.611,23.611c0,13.019-10.592,23.611-23.611,23.611
	C-1063.793,1949.599-1074.385,1939.008-1074.385,1925.988z"/>
<path id="download-2-icon" fill="#58595B" d="M-797.348,1927.771h13.252l-28.815,28.865l-28.814-28.865h13.251v-36.265h31.127
	L-797.348,1927.771L-797.348,1927.771z M-789.064,1950.872v13.034h-47.694v-13.034h-10v23.034h67.695v-23.034H-789.064z"/>
<path id="blank-file-2-icon" fill="#58595B" d="M-1495.748,2130.98v17.15h17.173v49.25h-51.073v-66.4H-1495.748 M-1490.748,2122.98
	h-46.9v82.4h67.073v-62.25L-1490.748,2122.98z"/>
<path id="folder-icon" fill="#58595B" d="M-1279.894,2140.633c-2.552,0-5.001-1.011-6.81-2.812l-6.538-6.509h-21.67v65.736h82.4
	v-56.415H-1279.894z"/>
<path id="email-3-icon" fill="#58595B" d="M-1043.308,2167.667l-41.034-34.006h82.181L-1043.308,2167.667z M-1043.315,2178.76
	l-41.197-34.131v50.07h82.4v-49.988L-1043.315,2178.76z"/>
<path id="location-5-icon" fill="#58595B" d="M-812.911,2122.98c-18.612,0-33.7,15.088-33.7,33.7c0,18.9,16.386,31.367,33.7,48.7
	c17.314-17.333,33.7-29.8,33.7-48.7C-779.211,2138.068-794.299,2122.98-812.911,2122.98z"/>
<path id="laptop-5-icon" fill="#58595B" d="M-1784.403,2419.571v7.93h99v-7.93H-1784.403z M-1693.787,2415.966v-54.306h-82.1v54.306
	H-1693.787z M-1700.275,2368.148v41.291h-69.124v-41.291H-1700.275z"/>
<path id="server-3-icon" fill="#58595B" d="M-1232.511,2383.442h-82.4v20.653h82.4V2383.442z M-1309.431,2398.298l3.623-9.059h4.377
	l-3.623,9.059H-1309.431z M-1302.336,2398.298l3.623-9.059h4.377l-3.623,9.059H-1302.336z M-1295.242,2398.298l3.623-9.059h4.377
	l-3.623,9.059H-1295.242z M-1242.294,2396.794c-1.67,0-3.025-1.354-3.025-3.025c0-1.671,1.355-3.025,3.025-3.025
	c1.671,0,3.026,1.354,3.026,3.025C-1239.269,2395.439-1240.623,2396.794-1242.294,2396.794z M-1237.054,2378.008h-73.138
	l14.424-19.03h44.113L-1237.054,2378.008z M-1232.511,2409.53h-82.4v20.653h82.4V2409.53z M-1309.431,2424.385l3.623-9.059h4.377
	l-3.623,9.059H-1309.431z M-1302.336,2424.385l3.623-9.059h4.377l-3.623,9.059H-1302.336z M-1295.242,2424.385l3.623-9.059h4.377
	l-3.623,9.059H-1295.242z M-1242.294,2422.881c-1.67,0-3.025-1.354-3.025-3.025c0-1.671,1.355-3.025,3.025-3.025
	c1.671,0,3.026,1.354,3.026,3.025C-1239.269,2421.527-1240.623,2422.881-1242.294,2422.881z"/>
<g>
	<polygon fill="#58595B" points="-1052.221,2410.846 -1044.248,2389.371 -1050.982,2389.371 -1055.754,2404.825 -1060.587,2389.371 
		-1067.524,2389.371 -1059.414,2410.846 	"/>
	<polygon fill="#58595B" points="-1036.718,2394.469 -1032.539,2410.846 -1027.62,2410.846 -1023.432,2394.469 -1023.432,2410.846 
		-1017.998,2410.846 -1017.998,2389.371 -1026.719,2389.371 -1030.061,2402.438 -1033.426,2389.371 -1042.153,2389.371 
		-1042.153,2410.846 -1036.718,2410.846 	"/>
	<path fill="#58595B" d="M-1085.435,2358.814v71.531h86.4v-71.531H-1085.435z M-1056.835,2362.646c1.988,0,3.6,1.612,3.6,3.6
		c0,1.988-1.612,3.6-3.6,3.6s-3.6-1.612-3.6-3.6C-1060.435,2364.258-1058.823,2362.646-1056.835,2362.646z M-1066.835,2362.646
		c1.988,0,3.6,1.612,3.6,3.6c0,1.988-1.612,3.6-3.6,3.6s-3.6-1.612-3.6-3.6C-1070.435,2364.258-1068.823,2362.646-1066.835,2362.646
		z M-1076.835,2362.646c1.988,0,3.6,1.612,3.6,3.6c0,1.988-1.612,3.6-3.6,3.6s-3.6-1.612-3.6-3.6
		C-1080.435,2364.258-1078.823,2362.646-1076.835,2362.646z M-1004.075,2425.146h-76.32v-51.11h76.32V2425.146z"/>
</g>
<path fill="#58595B" d="M-812.871,2353.364c-19.882,0-36,16.118-36,36v46.408l12.829-12.816l11.629,11.628l11.592-11.592
	l11.438,11.437l11.566-11.566l12.947,12.934v-46.433C-776.87,2369.481-792.988,2353.364-812.871,2353.364z M-827.27,2400.096
	c-5.965,0-10.8-4.835-10.8-10.8s4.835-10.8,10.8-10.8c5.965,0,10.8,4.835,10.8,10.8S-821.306,2400.096-827.27,2400.096z
	 M-798.47,2400.096c-5.965,0-10.8-4.835-10.8-10.8s4.835-10.8,10.8-10.8c5.965,0,10.8,4.835,10.8,10.8
	S-792.506,2400.096-798.47,2400.096z"/>
<path id="shield-icon" fill="#58595B" d="M-1734.933,2583.78c-10.284,10.283-25.033,13.4-37.1,13.4c0,29.467,16.733,55.6,37.1,69
	c20.367-13.4,37.1-39.533,37.1-69C-1709.9,2597.18-1724.65,2594.063-1734.933,2583.78z"/>
<path id="firewall-icon" fill="#58595B" d="M-1470.475,2625.652c-1.246,5.315-7.102,10.548-10.963,10.583
	c4.064-9.291,4.795-23.691-3.875-35.767c-0.86,6.204-4.723,10.315-8.833,11.437c4.361-15.325-11.171-29.461-24.642-30.816
	c8.052,20.089-27.438,31.19-5.96,57.169c-3.37-0.147-11.344-2.804-12.858-12.031c-3.761,17.324,6.331,39.378,24.124,41.291
	c7.582,0,14.085,0,18.349,0C-1484.195,2667.518-1466.211,2651.124-1470.475,2625.652z"/>
<path id="lock-icon" fill="#58595B" d="M-1296.229,2618.447v-12.533c0-12.204,9.929-22.134,22.133-22.134
	c12.204,0,22.133,9.929,22.133,22.134v12.533h-10v-12.533c0-6.69-5.443-12.134-12.133-12.134s-12.133,5.443-12.133,12.134v12.533
	H-1296.229z M-1303.695,2624.447v41.733h59.2v-41.733H-1303.695z"/>
<path fill="#58595B" d="M-1016.596,2613.867c-4.399-13.587-17.157-23.412-32.209-23.412c-18.694,0-33.848,15.155-33.848,33.848
	c0,2.697,0.316,5.321,0.912,7.835h25.101v25.101c2.515,0.596,5.138,0.912,7.835,0.912c14.879,0,27.515-9.6,32.053-22.944
	l15.098,10.922v-43.654L-1016.596,2613.867z M-1063.287,2621.098c-3.786,0-6.856-3.069-6.856-6.856s3.069-6.856,6.856-6.856
	s6.856,3.07,6.856,6.856S-1059.501,2621.098-1063.287,2621.098z"/>
<path id="user-6-icon" fill="#58595B" d="M-788.659,2602.35c0,13.255-10.745,24-24,24c-13.255,0-24-10.745-24-24
	c0-13.255,10.745-24,24-24C-799.405,2578.35-788.659,2589.095-788.659,2602.35z M-792.85,2627.482
	c-5.594,4.417-12.527,6.868-19.809,6.868c-7.367,0-14.368-2.509-19.987-7.01c-14.811,5.435-21.424,24.436-21.424,33.11h82.4
	C-771.67,2651.85-778.335,2632.985-792.85,2627.482z"/>
<g>
	<path fill="#58595B" d="M-1769.577,2820.315L-1769.577,2820.315c-6.032,6.032-6.032,15.903,0,21.935l8.434,8.434l21.935-21.935
		l-8.434-8.434C-1753.674,2814.282-1763.545,2814.282-1769.577,2820.315z"/>
	<path fill="#58595B" d="M-1699.446,2868.51l-8.434-8.434l-21.935,21.935l8.434,8.434c6.032,6.032,15.903,6.032,21.935,0l0,0
		C-1693.414,2884.413-1693.414,2874.542-1699.446,2868.51z"/>
	<path fill="#58595B" d="M-1757.435,2854.391l23.912,23.913l21.935-21.935l-23.912-23.912L-1757.435,2854.391z M-1719.215,2853.591
		c1.266,1.266,1.266,3.319,0,4.585c-1.266,1.266-3.319,1.266-4.585,0s-1.266-3.319,0-4.585
		C-1722.534,2852.325-1720.482,2852.325-1719.215,2853.591z M-1725.223,2859.598c1.266,1.266,1.266,3.319,0,4.585
		c-1.266,1.266-3.319,1.266-4.585,0c-1.266-1.266-1.266-3.319,0-4.585C-1728.542,2858.332-1726.489,2858.332-1725.223,2859.598z
		 M-1731.23,2865.606c1.266,1.266,1.266,3.319,0,4.585c-1.266,1.266-3.319,1.266-4.585,0c-1.266-1.266-1.266-3.319,0-4.585
		C-1734.549,2864.34-1732.496,2864.34-1731.23,2865.606z M-1725.828,2846.978c1.266,1.266,1.266,3.319,0,4.585
		c-1.266,1.266-3.319,1.266-4.585,0s-1.266-3.319,0-4.585S-1727.094,2845.712-1725.828,2846.978z M-1731.836,2852.986
		c1.266,1.266,1.266,3.319,0,4.585c-1.266,1.266-3.319,1.266-4.585,0c-1.266-1.266-1.266-3.319,0-4.585
		C-1735.155,2851.719-1733.102,2851.719-1731.836,2852.986z M-1737.843,2858.993c1.266,1.266,1.266,3.319,0,4.585
		c-1.266,1.266-3.319,1.266-4.585,0c-1.266-1.266-1.266-3.319,0-4.585S-1739.109,2857.727-1737.843,2858.993z M-1732.722,2840.084
		c1.266,1.266,1.266,3.319,0,4.585c-1.266,1.266-3.319,1.266-4.585,0c-1.266-1.266-1.266-3.319,0-4.585
		C-1736.041,2838.818-1733.988,2838.818-1732.722,2840.084z M-1738.729,2846.092c1.266,1.266,1.266,3.319,0,4.585
		c-1.266,1.266-3.319,1.266-4.585,0s-1.266-3.319,0-4.585S-1739.996,2844.825-1738.729,2846.092z M-1744.737,2852.099
		c1.266,1.266,1.266,3.319,0,4.585c-1.266,1.266-3.319,1.266-4.585,0c-1.266-1.266-1.266-3.319,0-4.585
		C-1748.056,2850.833-1746.003,2850.833-1744.737,2852.099z"/>
</g>
<g>
	<polygon fill="#58595B" points="-1541.785,2819.985 -1481.928,2819.984 -1481.928,2824.785 -1476.401,2824.785 -1476.401,2814.458 
		-1547.311,2814.458 -1547.311,2869.28 -1536.985,2869.28 -1536.985,2860.312 -1541.785,2860.312 	"/>
	<polygon fill="#58595B" points="-1506.416,2889.055 -1513.663,2896.302 -1479.069,2896.302 -1486.316,2889.055 	"/>
	<path fill="#58595B" d="M-1531.821,2829.948v54.822h70.91v-54.822H-1531.821z M-1526.295,2835.475l59.857,0v40.328h-59.857
		L-1526.295,2835.475z"/>
</g>
<path id="virus-icon" fill="#58595B" d="M-1239.274,2848.427c-1.561,0-3.001,0.514-4.161,1.383
	c-2.381,1.782-5.277,2.751-8.251,2.751c-2.425,0-4.627-1.417-5.63-3.625c-1.158-2.543-0.517-5.257,1.228-7.001
	c2.11-2.11,4.827-3.465,7.78-3.889c1.434-0.206,2.816-0.861,3.92-1.964c2.716-2.716,2.715-7.118,0-9.834
	c-2.715-2.715-7.118-2.716-9.834,0c-1.104,1.104-1.758,2.485-1.964,3.92c-0.423,2.944-1.785,5.677-3.888,7.78
	c-1.776,1.776-4.45,2.307-6.769,1.343c-0.008-0.003-0.016-0.007-0.024-0.01c-2.319-0.959-3.834-3.224-3.834-5.734
	c0-2.984,0.963-5.863,2.751-8.252c0.868-1.16,1.383-2.6,1.383-4.16c0-3.841-3.113-6.954-6.954-6.954s-6.954,3.113-6.954,6.953
	c0,1.561,0.514,3,1.383,4.161c1.782,2.381,2.751,5.276,2.751,8.25c0,2.51-1.514,4.776-3.834,5.735
	c-0.008,0.003-0.016,0.007-0.024,0.01c-2.319,0.963-4.993,0.433-6.768-1.342c-2.11-2.11-3.465-4.826-3.889-7.781
	c-0.206-1.434-0.861-2.816-1.964-3.92c-2.715-2.716-7.118-2.715-9.834,0c-2.716,2.716-2.716,7.118,0,9.834
	c1.103,1.104,2.485,1.758,3.92,1.964c2.944,0.423,5.677,1.786,7.78,3.889c1.776,1.776,2.306,4.45,1.343,6.769
	c-0.003,0.008-0.007,0.016-0.01,0.024c-0.959,2.32-3.225,3.834-5.735,3.834c-2.985,0-5.862-0.963-8.251-2.751
	c-1.16-0.868-2.6-1.383-4.161-1.383c-3.84,0-6.953,3.113-6.953,6.954c0,3.84,3.113,6.953,6.953,6.953
	c1.561,0,3.001-0.514,4.161-1.383c2.381-1.782,5.276-2.751,8.25-2.751c2.51,0,4.776,1.514,5.735,3.834
	c0.003,0.008,0.007,0.016,0.01,0.024c0.963,2.319,0.433,4.993-1.342,6.768c-2.11,2.11-4.826,3.465-7.78,3.889
	c-1.434,0.206-2.816,0.861-3.92,1.965c-2.715,2.716-2.715,7.118,0,9.833c2.715,2.716,7.118,2.716,9.833,0
	c1.104-1.104,1.758-2.486,1.964-3.92c0.423-2.943,1.786-5.676,3.889-7.779c1.776-1.776,4.449-2.307,6.769-1.343
	c0.008,0.003,0.016,0.007,0.024,0.01c2.319,0.959,3.834,3.224,3.834,5.734c0,2.984-0.963,5.863-2.751,8.252
	c-0.868,1.16-1.383,2.6-1.383,4.161c0,3.84,3.113,6.953,6.953,6.953s6.954-3.113,6.954-6.953c0-1.565-0.517-3.009-1.39-4.171
	c-1.778-2.365-2.744-5.245-2.744-8.204c0-2.504,1.506-4.888,4.055-5.851c2.277-0.863,4.849-0.311,6.571,1.411
	c2.11,2.11,3.466,4.827,3.89,7.781c0.206,1.434,0.861,2.816,1.964,3.92c2.716,2.716,7.118,2.716,9.834,0
	c2.716-2.715,2.716-7.118,0-9.833c-1.107-1.107-2.494-1.762-3.932-1.966c-2.93-0.416-5.65-1.77-7.743-3.863
	c-1.788-1.788-2.324-4.479-1.358-6.815c0,0,0-0.001,0.001-0.002c0.959-2.32,3.224-3.834,5.734-3.834
	c2.984,0,5.862,0.962,8.252,2.751c1.16,0.868,2.6,1.383,4.161,1.383c3.84,0,6.953-3.113,6.953-6.953
	C-1232.32,2851.54-1235.433,2848.427-1239.274,2848.427z M-1280.266,2864.559c-1.878,0-3.4-1.522-3.4-3.4c0-1.878,1.522-3.4,3.4-3.4
	c1.878,0,3.4,1.522,3.4,3.4C-1276.866,2863.037-1278.388,2864.559-1280.266,2864.559z M-1275.933,2853.768
	c-2.945,0-5.333-2.388-5.333-5.333s2.388-5.333,5.333-5.333c2.946,0,5.334,2.388,5.334,5.333S-1272.987,2853.768-1275.933,2853.768z
	 M-1265.883,2863.959c-2.494,0-4.517-2.022-4.517-4.517c0-2.495,2.022-4.517,4.517-4.517c2.494,0,4.517,2.022,4.517,4.517
	C-1261.366,2861.937-1263.388,2863.959-1265.883,2863.959z"/>
<path id="cursor-pointer-icon" fill="#58595B" d="M-1060.816,2820.871v37.77c-3.196-3.479-8.721-7.629-14.124-7.305
	c-6.482,0.388-7.713,7.329-2.112,12.573c9.428,8.828,18.915,21.854,21.033,32.648c0,0,28.129,0,36.882,0
	c0-21.759,7.032-26.383,8.311-37.741c0.957-8.498-1.327-15.144-8.205-16.123l0.948,2.686c0.365,1.202-0.315,2.473-1.518,2.837
	c-1.204,0.364-2.474-0.315-2.838-1.519l-0.904-2.501c-0.947-3.128-3.854-3.542-8.169-4.116l1.128,3.32
	c0.365,1.203-0.316,2.474-1.52,2.839c-1.202,0.363-2.473-0.316-2.837-1.52l-0.817-2.569c-0.979-3.232-3.615-3.583-8.396-4.311
	l1.07,3.566c1,3.305-5.307,4.902-5.307-4.309v-16.225c0-3.708-2.606-6.714-6.314-6.714S-1060.816,2817.163-1060.816,2820.871z"/>
<path id="cloud-icon" fill="#58595B" d="M-776.868,2850.863c-1.978-24.905-34.772-33.112-48.176-11.785
	c-8.694-4.916-19.782,0.868-20.477,11.029c-9.532,1.167-16.916,9.285-16.916,19.133c0,10.649,8.633,19.282,19.282,19.282h60.435
	c10.649,0,19.282-8.633,19.282-19.282C-763.436,2860.63-769.079,2853.341-776.868,2850.863z"/>
<path id="danger-icon" fill="#58595B" d="M-1715.506,4031.157c3.568-2.42,6.634-5.434,9.128-8.974l12.493,12.493l-9.051,9.051
	L-1715.506,4031.157z M-1776.285,4034.676l12.462-12.461c2.494,3.54,5.559,6.554,9.128,8.974l-12.538,12.538L-1776.285,4034.676z
	 M-1705.962,3982.455c-2.427-3.575-5.437-6.645-8.963-9.139l11.989-11.989l9.051,9.051L-1705.962,3982.455z M-1776.285,3970.378
	l9.051-9.051l11.973,11.973c-3.526,2.495-6.536,5.564-8.963,9.139L-1776.285,3970.378z M-1735.085,3972.947
	c-16.071,0-29.098,13.028-29.098,29.098c0,11.831,7.061,22.012,17.198,26.561v7.12c0.709,1.19,2.658,2.05,5.158,2.58v-4.101h4v4.643
	c1.817,0.13,3.718,0.129,5.533-0.004v-4.639h4v4.09c2.476-0.531,4.404-1.387,5.108-2.569v-7.121
	c10.138-4.549,17.198-14.73,17.198-26.561C-1705.987,3985.975-1719.014,3972.947-1735.085,3972.947z M-1747.835,4012.944
	c-5.112,0-9.256-4.144-9.256-9.257c0-5.113,4.144-9.257,9.256-9.257c5.112,0,9.257,4.144,9.257,9.257
	C-1738.578,4008.8-1742.723,4012.944-1747.835,4012.944z M-1741.03,4020.255l6.129-8.475l0.006,0.01l0.006-0.01l6.147,8.475
	H-1741.03L-1741.03,4020.255z M-1721.935,4012.944c-5.112,0-9.256-4.144-9.256-9.257c0-5.113,4.144-9.257,9.256-9.257
	c5.112,0,9.257,4.144,9.257,9.257C-1712.678,4008.8-1716.823,4012.944-1721.935,4012.944z"/>
<path id="danger-3-icon" fill="#58595B" d="M-1499.182,3994.476l7.433-12.874c7.388,4.274,12.358,12.262,12.358,21.411h-14.856
	C-1494.247,3999.37-1496.235,3996.183-1499.182,3994.476z M-1509.041,4011.552l-7.432,12.873c3.637,2.104,7.859,3.308,12.362,3.308
	s8.726-1.204,12.362-3.308l-7.433-12.874C-1502.167,4013.282-1505.927,4013.356-1509.041,4011.552z M-1509.041,3994.476
	l-7.432-12.873c-7.388,4.274-12.358,12.262-12.358,21.411h14.856C-1513.976,3999.37-1511.988,3996.183-1509.041,3994.476z
	 M-1504.111,4008.678c3.128,0,5.664-2.536,5.664-5.664c0-3.128-2.536-5.664-5.664-5.664s-5.664,2.536-5.664,5.664
	C-1509.776,4006.142-1507.239,4008.678-1504.111,4008.678z M-1462.911,4002.668c0,22.754-18.446,41.2-41.2,41.2
	s-41.2-18.446-41.2-41.2s18.446-41.2,41.2-41.2S-1462.911,3979.914-1462.911,4002.668z M-1470.911,4002.668
	c0-18.351-14.852-33.2-33.2-33.2c-18.351,0-33.2,14.852-33.2,33.2c0,18.351,14.852,33.2,33.2,33.2
	C-1485.76,4035.868-1470.911,4021.016-1470.911,4002.668z"/>
<path id="time-icon" fill="#58595B" d="M-1251.32,4010.568h-27.9v-30.7h9v21.7h18.9V4010.568z M-1273.52,3970.468
	c-17.798,0-32.2,14.404-32.2,32.2c0,17.798,14.405,32.2,32.2,32.2c17.798,0,32.2-14.405,32.2-32.2
	C-1241.32,3984.869-1255.725,3970.468-1273.52,3970.468 M-1273.52,3961.468c22.754,0,41.2,18.446,41.2,41.2s-18.446,41.2-41.2,41.2
	c-22.754,0-41.2-18.446-41.2-41.2S-1296.274,3961.468-1273.52,3961.468z"/>
<path id="time-4-icon" fill="#58595B" d="M-1042.886,3982.443v20.25h18.09v8.1h-26.19v-28.35H-1042.886z M-1045.533,3961.468
	c-11.243,0-22.232,4.505-29.666,11.807l-7.093-7.093l-4.606,25.235l25.235-4.606l-7.172-7.172
	c5.805-5.673,14.544-9.171,23.302-9.171c17.784,0,32.2,14.416,32.2,32.2s-14.416,32.2-32.2,32.2
	c-17.733,0-32.116-14.334-32.198-32.048l-8.959,1.692c0.965,21.898,19.021,39.355,41.157,39.355c22.754,0,41.2-18.446,41.2-41.2
	S-1022.779,3961.468-1045.533,3961.468z"/>
<path id="dashboard-3-icon" fill="#58595B" d="M-776.296,4006.568c0-22.754-18.446-41.2-41.2-41.2c-22.754,0-41.2,18.446-41.2,41.2
	c0,8.868,2.803,17.082,7.569,23.804h14.961c3.194,5.656,10.351,9.596,18.67,9.596c8.318,0,15.476-3.94,18.67-9.596h14.961
	C-779.098,4023.65-776.296,4015.436-776.296,4006.568z M-791.721,3984.469l-7.563,7.563c-1.085-1.358-2.319-2.592-3.677-3.677
	l7.563-7.563C-794.083,3981.921-792.849,3983.155-791.721,3984.469z M-806.931,3974.292c1.642,0.538,3.255,1.207,4.802,1.994
	l-4.097,9.883c-1.521-0.842-3.133-1.51-4.803-1.992L-806.931,3974.292z M-820.096,3972.715c0.877-0.067,1.75-0.101,2.6-0.101
	c0.85,0,1.723,0.034,2.6,0.101v10.695c-0.863-0.096-1.736-0.144-2.6-0.144c-0.864,0-1.737,0.049-2.6,0.144V3972.715z
	 M-821.373,4008.561l3.878-18.174l3.878,18.174c2.47,1.367,4.144,3.999,4.144,7.022c0,4.43-3.591,8.021-8.021,8.021
	c-4.43,0-8.021-3.591-8.021-8.021C-825.517,4012.559-823.844,4009.928-821.373,4008.561z M-828.189,3974.335l4.137,9.868
	c-1.668,0.488-3.277,1.163-4.795,2.012l-4.137-9.867C-831.441,3975.556-829.832,3974.88-828.189,3974.335z M-839.594,3980.793
	l7.563,7.563c-1.358,1.085-2.592,2.319-3.677,3.677l-7.563-7.563C-842.143,3983.155-840.908,3981.921-839.594,3980.793z
	 M-849.774,3996.008c0.538-1.643,1.207-3.255,1.993-4.803l9.884,4.095c-0.842,1.521-1.51,3.133-1.991,4.804L-849.774,3996.008z
	 M-795.206,3999.754c-0.507-1.659-1.201-3.26-2.068-4.771l9.82-4.25c0.807,1.529,1.501,3.131,2.066,4.772L-795.206,3999.754z"/>
<path id="gamepad-7-icon" fill="#58595B" d="M-1688.148,3100.938l-8.791-36.226c-0.769-3.077-3.533-5.235-6.704-5.235h-58.32
	c-3.171,0-5.935,2.158-6.704,5.235l-8.791,36.226c-2.443,9.776,8.651,14.609,15.092,8.168l11.215-11.219
	c1.66-1.984,4.114-3.131,6.701-3.131h23.293c2.587,0,5.041,1.146,6.701,3.131l11.215,11.219
	C-1696.798,3115.546-1685.704,3110.713-1688.148,3100.938z M-1744.501,3079.576h-5.983v5.983h-4.735v-5.983h-5.984v-4.735h5.984
	v-5.983h4.735v5.983h5.983V3079.576z M-1729.603,3085.161h-6.441v-2.784h6.441V3085.161z M-1716.482,3079.214
	c-1.109,1.109-2.908,1.109-4.018,0c-1.11-1.11-1.11-2.908,0-4.018c1.11-1.109,2.909-1.109,4.018,0
	C-1715.373,3076.306-1715.373,3078.105-1716.482,3079.214z M-1710.197,3085.002c-1.109,1.11-2.909,1.11-4.019,0
	c-1.109-1.11-1.109-2.909,0-4.018c1.11-1.109,2.909-1.109,4.019,0C-1709.088,3082.093-1709.088,3083.892-1710.197,3085.002z
	 M-1710.197,3073.533c-1.109,1.109-2.909,1.109-4.019,0c-1.109-1.11-1.109-2.909,0-4.018c1.11-1.11,2.909-1.11,4.019,0
	C-1709.088,3070.625-1709.088,3072.424-1710.197,3073.533z M-1703.931,3079.214c-1.11,1.109-2.909,1.109-4.018,0
	c-1.109-1.11-1.109-2.908,0-4.018c1.109-1.109,2.908-1.109,4.018,0C-1702.822,3076.306-1702.822,3078.105-1703.931,3079.214z"/>
<path id="gear-icon" fill="#58595B" d="M-1462.911,3091.329v-11.097l-5.996-2.132c-2.286-0.813-4.126-2.559-5.055-4.8
	c0-0.001-0.001-0.002-0.001-0.002c-0.932-2.247-0.867-4.784,0.178-6.981l2.731-5.745l-7.847-7.847l-5.744,2.73
	c-2.196,1.044-4.736,1.109-6.982,0.178c-0.001,0-0.002-0.001-0.003-0.001c-2.243-0.93-3.987-2.767-4.8-5.055l-2.133-5.997h-11.097
	l-2.132,5.996c-0.813,2.286-2.559,4.125-4.8,5.055c-0.001,0-0.002,0.001-0.003,0.001c-2.247,0.932-4.784,0.867-6.981-0.178
	l-5.745-2.731l-7.847,7.847l2.731,5.744c1.044,2.196,1.109,4.736,0.178,6.982c0,0-0.001,0.002-0.001,0.003
	c-0.93,2.243-2.767,3.986-5.054,4.8l-5.997,2.133v11.097l5.996,2.132c2.286,0.813,4.125,2.559,5.055,4.8
	c0,0.001,0.001,0.002,0.001,0.002c0.932,2.248,0.867,4.785-0.177,6.982l-2.731,5.745l7.847,7.847l5.744-2.73
	c2.196-1.044,4.736-1.109,6.982-0.178c0.001,0,0.002,0.001,0.002,0.001c2.244,0.93,3.987,2.767,4.8,5.055l2.133,5.997h11.097
	l2.119-5.958c0.821-2.308,2.582-4.165,4.843-5.105c0.001,0,0.002-0.001,0.003-0.001c2.225-0.926,4.739-0.862,6.916,0.173l5.78,2.748
	l7.847-7.847l-2.732-5.747c-1.043-2.194-1.108-4.732-0.177-6.975c0-0.001,0.001-0.002,0.001-0.003
	c0.931-2.245,2.77-3.99,5.059-4.804L-1462.911,3091.329z M-1504.111,3103.689c-9.891,0-17.91-8.018-17.91-17.909
	c0-9.891,8.018-17.909,17.91-17.909c9.891,0,17.909,8.019,17.909,17.909C-1486.202,3095.671-1494.22,3103.689-1504.111,3103.689z"/>
<path id="wrench-icon" fill="#58595B" d="M-1235.878,3109.57l-33.137-33.137c-2.271-2.271-3.44-5.428-3.192-8.63
	c0.469-6.065-1.615-12.29-6.254-16.929c-6.038-6.038-14.764-7.748-22.326-5.133l13.729,13.729
	c0.315,5.356-7.966,13.637-13.322,13.322l-13.729-13.729c-2.615,7.562-0.905,16.288,5.133,22.326
	c4.639,4.639,10.864,6.722,16.929,6.254c3.205-0.248,6.357,0.92,8.63,3.192l33.137,33.137c3.977,3.977,10.425,3.977,14.403,0
	C-1231.901,3119.995-1231.901,3113.547-1235.878,3109.57z M-1243.576,3120.347c-2.318,0-4.197-1.879-4.197-4.197
	s1.879-4.197,4.197-4.197c2.318,0,4.197,1.879,4.197,4.197C-1239.379,3118.468-1241.258,3120.347-1243.576,3120.347z"/>
<polygon id="arrow-37-icon" fill="#58595B" points="-1008.719,3086.273 -1068.319,3127.473 -1068.319,3045.073 "/>
<path id="pause-icon" fill="#58595B" d="M-820.601,3126.956h-24v-82.4h24V3126.956z M-781.272,3044.555h-24v82.4h24V3044.555z"/>
<path id="share-4-icon_1_" fill="#58595B" d="M-1759.329,3328.88c7.329-31.917,43.829-39.344,43.829-39.344v-9.826l21.767,21.731
	l-21.767,21.732v-9.826C-1715.5,3313.348-1743.726,3312.173-1759.329,3328.88z M-1715.323,3332.889v8.006h-52.608v-34.074h11.512
	c2.3-2.963,4.912-5.697,7.796-8.202h-27.51v50.479h69.012V3324.7L-1715.323,3332.889z"/>
<path id="twitter-icon" fill="#58595B" d="M-1462.911,3290.625c-3.032,1.345-6.29,2.254-9.709,2.662
	c3.49-2.092,6.171-5.405,7.433-9.353c-3.267,1.937-6.884,3.344-10.735,4.102c-3.084-3.286-7.477-5.338-12.34-5.338
	c-10.912,0-18.934,10.183-16.467,20.757c-14.05-0.705-26.507-7.435-34.845-17.663c-4.428,7.597-2.297,17.538,5.232,22.57
	c-2.771-0.088-5.378-0.848-7.657-2.115c-0.183,7.832,5.429,15.156,13.559,16.79c-2.379,0.647-4.985,0.796-7.634,0.289
	c2.151,6.716,8.394,11.604,15.792,11.74c-7.107,5.57-16.059,8.058-25.028,7.001c7.481,4.796,16.367,7.595,25.914,7.595
	c31.386,0,49.119-26.51,48.05-50.287C-1468.043,3296.992-1465.178,3294.015-1462.911,3290.625z"/>
<path id="facebook-icon" fill="#58595B" d="M-1284.482,3302.271h-8.629v14.085h8.629v41.376h16.593v-41.552h11.576l1.232-13.909
	h-12.809c0,0,0-5.194,0-7.923c0-3.28,0.66-4.578,3.829-4.578c2.553,0,8.979,0,8.979,0v-14.438c0,0-9.465,0-11.488,0
	c-12.347,0-17.913,5.436-17.913,15.846C-1284.482,3300.246-1284.482,3302.271-1284.482,3302.271z"/>
<g id="google-plus-icon">
	<path fill="#58595B" d="M-770.62,3293.225h-10.924v10.924h-5.462v-10.924h-10.924v-5.462h10.924v-10.924h5.462v10.924h10.924
		V3293.225z M-801.504,3338.408c0,8.189-7.477,18.157-26.287,18.157c-13.757,0-25.23-5.934-25.23-15.914
		c0-7.703,4.877-17.702,27.665-17.702c-3.384-2.759-4.215-6.615-2.147-10.792c-13.343,0-20.176-7.844-20.176-17.804
		c0-9.746,7.248-18.606,22.03-18.606c3.732,0,23.68,0,23.68,0l-5.291,5.554h-6.216c4.385,2.512,6.717,7.687,6.717,13.39
		c0,5.235-2.883,9.475-6.997,12.656c-7.301,5.644-5.432,8.796,2.217,14.374C-803.996,3327.371-801.504,3331.732-801.504,3338.408z
		 M-816.273,3295.046c-1.101-8.381-6.561-15.257-12.941-15.449c-6.382-0.19-10.662,6.224-9.56,14.607
		c1.102,8.381,7.167,14.236,13.55,14.428C-818.844,3308.822-815.172,3303.428-816.273,3295.046z M-809.694,3339.248
		c0-6.893-6.288-13.463-16.838-13.463c-9.508-0.104-17.566,6.008-17.566,13.094c0,7.231,6.867,13.25,16.376,13.25
		C-815.567,3352.129-809.694,3346.479-809.694,3339.248z"/>
</g>
<path id="key-icon" fill="#58595B" d="M-1728.931,3560.241l-8.909,8.909h-8.626l0,8.625l-8.994,0v8.129h-19.974v-13.852
	l28.652-28.652C-1743.549,3551.101-1737.152,3557.335-1728.931,3560.241z M-1701.58,3514.404c9.53,9.53,9.529,24.981,0,34.511
	c-9.53,9.531-24.981,9.531-34.511,0c-9.53-9.53-9.53-24.981,0-34.511C-1726.562,3504.874-1711.11,3504.874-1701.58,3514.404z
	 M-1706.479,3519.285c-2.364-2.363-6.196-2.364-8.56,0c-2.364,2.364-2.364,6.196,0,8.56c2.363,2.364,6.195,2.364,8.559,0
	C-1704.115,3525.481-1704.115,3521.648-1706.479,3519.285z"/>
<path id="twitter-4-icon" fill="#58595B" d="M-1504.111,3505.38c-22.754,0-41.2,18.446-41.2,41.2s18.446,41.2,41.2,41.2
	c22.754,0,41.2-18.446,41.2-41.2S-1481.357,3505.38-1504.111,3505.38z M-1483.391,3539.481c0.604,13.44-9.419,28.425-27.16,28.425
	c-5.396,0-10.419-1.582-14.648-4.293c5.069,0.597,10.129-0.809,14.147-3.957c-4.181-0.077-7.711-2.84-8.926-6.636
	c1.497,0.286,2.97,0.203,4.315-0.163c-4.595-0.923-7.768-5.063-7.664-9.49c1.288,0.716,2.762,1.146,4.328,1.195
	c-4.256-2.844-5.461-8.464-2.957-12.758c4.713,5.781,11.754,9.586,19.696,9.984c-1.394-5.977,3.14-11.733,9.308-11.733
	c2.748,0,5.232,1.16,6.975,3.018c2.177-0.429,4.222-1.224,6.068-2.319c-0.713,2.231-2.229,4.104-4.202,5.287
	c1.933-0.231,3.775-0.744,5.488-1.505C-1479.904,3536.451-1481.524,3538.134-1483.391,3539.481z"/>
<path id="facebook-circle-icon" fill="#58595B" d="M-1273.52,3505.38c-22.754,0-41.2,18.446-41.2,41.2s18.446,41.2,41.2,41.2
	s41.2-18.446,41.2-41.2S-1250.766,3505.38-1273.52,3505.38z M-1261.327,3529.618c0,0-4.121,0-5.758,0
	c-2.032,0-2.456,0.833-2.456,2.936c0,1.75,0,5.081,0,5.081h8.214l-0.79,8.919h-7.424v26.646h-10.64v-26.532h-5.533v-9.032h5.533
	c0,0,0-1.299,0-7.113c0-6.676,3.57-10.161,11.487-10.161c1.297,0,7.367,0,7.367,0L-1261.327,3529.618L-1261.327,3529.618z"/>
<path id="linkedin-circle-icon" fill="#58595B" d="M-1044.248,3505.38c-22.754,0-41.2,18.446-41.2,41.2s18.446,41.2,41.2,41.2
	c22.754,0,41.2-18.446,41.2-41.2S-1021.493,3505.38-1044.248,3505.38z M-1055.24,3566.499h-9.046v-29.225h9.046V3566.499z
	 M-1059.806,3533.447c-2.954,0-5.349-2.415-5.349-5.393c0-2.978,2.395-5.393,5.349-5.393c2.954,0,5.349,2.415,5.349,5.393
	C-1054.457,3531.032-1056.852,3533.447-1059.806,3533.447z M-1021.34,3566.499h-9.002c0,0,0-11.133,0-15.341
	c0-4.208-1.598-6.556-4.925-6.556c-3.621,0-5.512,2.446-5.512,6.556c0,4.501,0,15.341,0,15.341h-8.676v-29.225h8.676v3.936
	c0,0,2.609-4.827,8.806-4.827c6.197,0,10.633,3.783,10.633,11.612C-1021.34,3555.822-1021.34,3566.499-1021.34,3566.499z"/>
<path id="linkedin-icon" fill="#58595B" d="M-1063.305,3285.469c0,5.598-4.502,10.136-10.055,10.136s-10.055-4.538-10.055-10.136
	s4.502-10.136,10.055-10.136C-1067.807,3275.333-1063.305,3279.871-1063.305,3285.469z M-1064.777,3302.799h-17.003v54.933h17.003
	V3302.799z M-1037.596,3302.799h-16.308v54.933h16.308c0,0,0-20.375,0-28.836c0-7.725,3.556-12.323,10.361-12.323
	c6.254,0,9.258,4.414,9.258,12.323c0,7.909,0,28.836,0,28.836h16.921c0,0,0-20.069,0-34.783c0-14.714-8.338-21.826-19.987-21.826
	c-11.649,0-16.554,9.074-16.554,9.074L-1037.596,3302.799L-1037.596,3302.799z"/>
<path id="google-plus-circle-icon" fill="#58595B" d="M-809.546,3561.512c0,4.049-3.289,7.213-10.096,7.213
	c-5.325,0-9.17-3.371-9.17-7.42c0-3.968,4.512-7.391,9.837-7.333C-813.067,3553.972-809.546,3557.652-809.546,3561.512z
	 M-771.736,3546.58c0,22.754-18.446,41.2-41.2,41.2c-22.754,0-41.2-18.446-41.2-41.2s18.446-41.2,41.2-41.2
	C-790.182,3505.38-771.736,3523.826-771.736,3546.58z M-804.959,3561.041c0-3.738-1.396-6.18-5.619-9.345
	c-4.283-3.124-5.33-4.888-1.242-8.05c2.304-1.781,3.918-4.156,3.918-7.087c0-3.194-1.306-6.091-3.762-7.499h3.481l2.963-3.11
	c0,0-11.171,0-13.261,0c-8.278,0-12.337,4.962-12.337,10.42c0,5.578,3.826,9.971,11.298,9.971c-1.158,2.339-0.693,4.499,1.202,6.043
	c-12.761,0-15.492,5.6-15.492,9.913c0,5.589,6.425,8.912,14.129,8.912C-809.146,3571.209-804.959,3565.627-804.959,3561.041z
	 M-787.665,3532.68h-6.118v-6.118h-3.059v6.118h-6.118v3.059h6.118v6.117h3.059v-6.117h6.118V3532.68z M-813.23,3536.759
	c-0.617-4.693-3.674-8.544-7.247-8.651c-3.574-0.106-5.971,3.485-5.353,8.18c0.617,4.693,4.013,7.972,7.588,8.08
	C-814.67,3544.473-812.614,3541.453-813.23,3536.759z"/>
<path id="info-2-icon" fill="#58595B" d="M-1726.445,3808.789h-16.132v-38.33h16.132V3808.789z M-1734.511,3762.53
	c-4.904,0-8.879-3.976-8.879-8.88c0-4.903,3.975-8.879,8.879-8.879c4.904,0,8.879,3.976,8.879,8.879
	C-1725.632,3758.555-1729.607,3762.53-1734.511,3762.53z"/>
<path id="bar_chart_4_icon" fill="#58595B" d="M-834.81,3817.98h-21.417v-20.787h21.417V3817.98L-834.81,3817.98z
	 M-806.884,3787.325h-21.627v30.655h21.627V3787.325z M-779.168,3773.887h-21.627v44.093h21.627V3773.887z M-778.765,3735.58
	l-17.526,3.032l3.857,3.896l-26.359,25.333l-9.574-9.051l-26.803,26.704l6.594,6.485l19.932-19.931l9.872,9.341l32.906-32.123
	l3.746,3.781L-778.765,3735.58z"/>
<path id="disk-icon" fill="#58595B" d="M-1050.378,3760.501c-1.495,0.898-2.722,2.06-3.732,3.363l-3.376-1.17
	c1.354-2.017,3.118-3.795,5.331-5.132c2.22-1.338,4.613-2.067,7.028-2.325l-0.543,3.534
	C-1047.29,3759.056-1048.89,3759.601-1050.378,3760.501z M-1044.591,3751.717l0.53-3.469c-3.983,0.126-7.987,1.229-11.641,3.435
	c-3.654,2.204-6.498,5.234-8.466,8.699l3.316,1.147c1.67-2.741,3.99-5.138,6.927-6.907
	C-1050.995,3752.852-1047.793,3751.915-1044.591,3751.717z M-1037.381,3770.914c0,3.794-3.071,6.866-6.867,6.866
	c-3.794,0-6.867-3.073-6.867-6.866c0-3.794,3.073-6.867,6.867-6.867C-1040.452,3764.047-1037.381,3767.12-1037.381,3770.914z
	 M-1040.814,3770.914c0-1.893-1.541-3.433-3.433-3.433s-3.433,1.541-3.433,3.433s1.541,3.433,3.433,3.433
	S-1040.814,3772.806-1040.814,3770.914z M-1009.914,3736.58v80.4h-68.666v-80.4H-1009.914z M-1021.877,3799.916
	c-2.427-2.863-9.029-10.575-10.199-12.151c-1.763-2.38-4.546-0.949-3.474,1.911c0.865,2.313,4.345,11.514,5.804,15.222
	C-1026.565,3812.972-1016.218,3806.601-1021.877,3799.916z M-1016.781,3770.914c0-15.17-12.298-27.467-27.467-27.467
	c-15.17,0-27.467,12.296-27.467,27.467c0,15.168,12.297,27.467,27.467,27.467c2.739,0,5.381-0.412,7.879-1.16
	c-1.053-2.773-2.005-5.294-2.394-6.337c-2.473-6.565,5.335-10.712,9.442-5.167c0.5,0.671,2.22,2.729,4.111,4.969
	C-1020.02,3785.689-1016.781,3778.685-1016.781,3770.914z"/>
<path id="globe-3-icon" fill="#58595B" d="M-1232.895,3776.78c0-23.121-18.752-41.2-41.2-41.2c-22.292,0-41.2,17.89-41.2,41.2
	c0,23.447,19.025,41.2,41.2,41.2C-1251.783,3817.98-1232.895,3800.061-1232.895,3776.78z M-1293.59,3761.664
	c-0.786,3.78-1.273,7.806-1.429,11.958h-11.82c0.527-5.53,2.422-10.66,5.345-15.048
	C-1298.956,3759.858-1296.283,3760.868-1293.59,3761.664z M-1295.001,3779.938c0.18,4.189,0.698,8.244,1.52,12.044
	c-2.757,0.809-5.398,1.808-7.956,3.092c-2.955-4.408-4.871-9.57-5.402-15.136H-1295.001z M-1291.824,3798.072
	c0.987,2.958,2.243,5.875,3.859,8.543c-3.487-1.624-6.642-3.839-9.335-6.519
	C-1295.601,3799.326-1293.768,3798.649-1291.824,3798.072z M-1270.938,3789.412v-9.474h11.533c-0.171,3.699-0.628,7.263-1.34,10.591
	C-1264.002,3789.93-1267.424,3789.552-1270.938,3789.412z M-1262.44,3796.635c-1.546,4.429-4.379,10.179-8.498,12.416v-13.319
	C-1268.006,3795.859-1265.155,3796.163-1262.44,3796.635z M-1270.938,3773.622v-9.357c3.553-0.142,7.012-0.527,10.302-1.138
	c0.677,3.306,1.101,6.837,1.248,10.495L-1270.938,3773.622L-1270.938,3773.622z M-1270.938,3757.944v-13.856
	c4.25,2.308,7.13,8.333,8.671,12.922C-1265.034,3757.5-1267.943,3757.815-1270.938,3757.944z M-1277.253,3744.145v13.795
	c-2.958-0.132-5.831-0.445-8.566-0.93C-1284.286,3752.443-1281.438,3746.493-1277.253,3744.145z M-1277.253,3764.26v9.362h-11.445
	c0.148-3.658,0.572-7.189,1.248-10.495C-1284.193,3763.732-1280.769,3764.115-1277.253,3764.26z M-1287.341,3790.53
	c-0.713-3.328-1.169-6.892-1.34-10.592h11.428v9.478C-1280.73,3789.56-1284.116,3789.936-1287.341,3790.53z M-1277.253,3795.737
	v13.258c-4.062-2.28-6.856-7.959-8.393-12.359C-1282.963,3796.168-1280.148,3795.866-1277.253,3795.737z M-1256.262,3798.072
	c1.918,0.569,3.726,1.235,5.404,1.991c-2.663,2.657-5.78,4.86-9.223,6.483C-1258.476,3803.883-1257.24,3801-1256.262,3798.072z
	 M-1254.604,3791.981c0.822-3.799,1.34-7.854,1.52-12.043h11.732c-0.529,5.55-2.436,10.697-5.375,15.095
	C-1249.29,3793.756-1251.895,3792.776-1254.604,3791.981z M-1246.67,3758.614c2.907,4.38,4.793,9.496,5.318,15.008h-11.714
	c-0.156-4.153-0.643-8.178-1.429-11.958C-1251.814,3760.871-1249.168,3759.872-1246.67,3758.614z M-1250.779,3753.578
	c-1.653,0.75-3.435,1.411-5.323,1.979c-0.942-2.916-2.126-5.759-3.635-8.379C-1256.395,3748.801-1253.37,3750.974-1250.779,3753.578
	z M-1288.307,3747.106c-1.542,2.665-2.731,5.521-3.677,8.45c-1.916-0.576-3.722-1.248-5.396-2.012
	C-1294.757,3750.917-1291.693,3748.73-1288.307,3747.106z"/>
<path id="wireless-icon" fill="#58595B" d="M-1517.111,3792.913c3.327-3.327,7.923-5.385,13-5.385s9.673,2.058,13,5.385l-13,13
	L-1517.111,3792.913z M-1523.111,3786.913c4.862-4.862,11.58-7.87,19-7.87c7.42,0,14.138,3.008,19,7.87l8-8
	c-6.91-6.91-16.456-11.184-27-11.184s-20.09,4.274-27,11.184L-1523.111,3786.913z M-1537.111,3772.913
	c8.445-8.446,20.113-13.669,33-13.669c12.887,0,24.554,5.223,33,13.669l8.2-8.2c-10.544-10.544-25.11-17.066-41.2-17.066
	s-30.656,6.522-41.2,17.066L-1537.111,3772.913z"/>
<path id="pencil-4-icon" fill="#58595B" d="M-1694.142,2142.08l-54.877,54.877l-27.085,4.998l5.464-26.62l54.876-54.876
	C-1703.55,2117.52-1691.203,2129.867-1694.142,2142.08z M-1752.305,2190.853c1.609-6.026-6.205-13.84-12.23-12.23l-3.082,15.014
	L-1752.305,2190.853z"/>
<polygon id="arrow-25-icon_1_" fill="#58595B" points="-1708.495,1733.603 -1719.524,1744.58 -1760.528,1703.38 -1719.524,1662.18 
	-1708.495,1673.157 -1738.573,1703.38 "/>
<polygon id="arrow-25-icon_2_" fill="#58595B" points="-1534.334,1729.397 -1545.311,1718.367 -1504.111,1677.363 
	-1462.911,1718.367 -1473.889,1729.397 -1504.111,1699.318 "/>
<polygon id="arrow-25-icon_3_" fill="#58595B" points="-1012.013,1677.363 -1001.035,1688.393 -1042.235,1729.397 
	-1083.435,1688.393 -1072.458,1677.363 -1042.235,1707.442 "/>
<path id="computer-icon" fill="#58595B" d="M-1549.111,2352.472v69.581h90v-69.581H-1549.111z M-1468.31,2412.854h-71.603l0-51.184
	l71.603,0L-1468.31,2412.854L-1468.31,2412.854z M-1491.355,2427.49l9.198,9.198h-43.908l9.198-9.198H-1491.355z"/>
<path id="book-15-icon" fill="#58595B" d="M-1504.111,4208.558c-12.122-7.546-30.589-10.586-49.5-11.163v68.083
	c16.24,0.496,32.152,2.808,44,8.229c3.494,1.599,7.51,1.597,11.004-0.002c11.847-5.421,27.758-7.732,43.996-8.228v-68.083
	C-1473.522,4197.972-1491.99,4201.012-1504.111,4208.558z M-1544,4207.558c11.415,0.958,25.354,3.278,35.083,9.33v46.673
	c-9.448-3.749-21.184-6.161-35.083-7.206V4207.558z M-1464.223,4256.356c-13.899,1.045-25.635,3.457-35.083,7.206v-46.673
	c9.729-6.053,23.668-8.372,35.083-9.33V4256.356z"/>
<path id="lifebuoy-icon" fill="#58595B" d="M-817.496,4191.15c-24.838,0-45,20.145-45,45c0,24.845,20.152,45,45,45
	c24.835,0,45-20.142,45-45C-772.496,4211.314-792.639,4191.15-817.496,4191.15z M-801.123,4252.523
	c-9.041,9.041-23.691,9.056-32.746,0c-9.043-9.043-9.053-23.694,0-32.747c9.047-9.047,23.697-9.05,32.746,0
	C-792.081,4228.818-792.069,4243.47-801.123,4252.523z M-799.964,4200.691l-5.42,9.515c-7.627-3.57-16.589-3.573-24.225,0
	l-5.42-9.515C-824.23,4195.34-811.126,4195.159-799.964,4200.691z M-852.981,4218.672l9.516,5.42
	c-3.558,7.644-3.595,16.777,0.235,24.607l-9.507,5.416C-858.301,4243.229-858.551,4229.955-852.981,4218.672z M-834.749,4271.746
	l5.424-9.521c7.47,3.396,16.179,3.4,23.659,0l5.424,9.521C-810.936,4276.939-823.784,4277.071-834.749,4271.746z M-791.761,4248.7
	c3.823-7.817,3.8-16.949,0.235-24.607l9.516-5.42c5.388,10.914,5.506,24.193-0.244,35.444L-791.761,4248.7z"/>
<path id="home-4-icon" fill="#58595B" d="M-1238.381,4240.479v36.309h-25.944v-19.732h-19.54v19.732h-25.944v-36.309h-9.285
	l45-44.966l45,44.966L-1238.381,4240.479L-1238.381,4240.479z"/>
<path id="printer-5-icon" fill="#58595B" d="M-1009.602,4218.322v-19.992h-69.291v19.992h-12.154v46.118h11.804l9.014-17.91h52.332
	l8.834,17.91h11.617v-46.118H-1009.602L-1009.602,4218.322z M-1018.689,4218.322h-51.116v-10.905h51.116V4218.322z
	 M-1006.459,4229.855c-1.518,0-2.749-1.231-2.749-2.749c0-1.519,1.231-2.749,2.749-2.749c1.518,0,2.749,1.23,2.749,2.749
	C-1003.71,4228.625-1004.941,4229.855-1006.459,4229.855z M-1023.634,4255.163l8.826,18.808h-58.689l9.009-18.808H-1023.634"/>
<g>
	<path fill="#58595B" d="M-1710.162,4218.014v-34.477h-49.846v34.477h-7.477v57.323h64.8v-57.323H-1710.162z M-1752.531,4191.014
		h34.892v27h-34.892V4191.014z M-1710.162,4267.86h-49.846v-42.37h49.846V4267.86z"/>
	<rect x="-1749.149" y="4197.304" fill="#58595B" width="10.681" height="10.681"/>
	<rect x="-1731.703" y="4197.428" fill="#58595B" width="10.681" height="10.681"/>
</g>
<path fill="#0073A8" d="M144.779,2801.109v223.935h1633.45v-223.935H144.779z M204.2,2962.188l39.286-98.225h47.461l-39.288,98.225
	H204.2z M281.126,2962.188l39.286-98.225h47.457l-39.286,98.225H281.126z M358.047,2962.188l39.286-98.225h47.457l-39.288,98.225
	H358.047z M431.2,2962.188l39.286-98.225h47.461l-39.288,98.225H431.2z M555.583,2962.188h-47.457l39.286-98.225h47.457
	L555.583,2962.188z M1431.152,2945.876c-18.112,0-32.8-14.688-32.8-32.804s14.688-32.8,32.8-32.8
	c18.121,0,32.808,14.683,32.808,32.8S1449.272,2945.876,1431.152,2945.876z M1552.152,2945.876c-18.112,0-32.8-14.688-32.8-32.804
	s14.688-32.8,32.8-32.8c18.121,0,32.808,14.683,32.808,32.8S1570.272,2945.876,1552.152,2945.876z M1672.152,2945.876
	c-18.112,0-32.8-14.688-32.8-32.804s14.688-32.8,32.8-32.8c18.121,0,32.808,14.683,32.808,32.8S1690.272,2945.876,1672.152,2945.876
	z"/>
<polygon fill="#0073A8" points="559.433,2606.45 1369.258,2606.45 1699.607,2772.18 223.402,2772.18 "/>
<path fill="#0073A8" d="M-18.499,116.668v17h124.003v-17H-18.499z M-13.988,128.896l2.982-7.457h3.603l-2.983,7.457H-13.988z
	 M-8.148,128.896l2.982-7.457h3.603l-2.982,7.457H-8.148z M-2.308,128.896l2.982-7.457h3.603l-2.983,7.457H-2.308z M3.245,128.896
	l2.982-7.457H9.83l-2.983,7.457H3.245z M12.687,128.896H9.085l2.982-7.457h3.603L12.687,128.896z M79.156,127.658
	c-1.375,0-2.49-1.115-2.49-2.49s1.115-2.49,2.49-2.49c1.376,0,2.491,1.115,2.491,2.49S80.532,127.658,79.156,127.658z
	 M88.342,127.658c-1.375,0-2.49-1.115-2.49-2.49s1.115-2.49,2.49-2.49c1.376,0,2.491,1.115,2.491,2.49
	S89.718,127.658,88.342,127.658z M97.452,127.658c-1.375,0-2.49-1.115-2.49-2.49s1.115-2.49,2.49-2.49
	c1.376,0,2.491,1.115,2.491,2.49S98.827,127.658,97.452,127.658z"/>
<g>
	<path fill="#7F7F7F" d="M66.218,0H9.3v100H90.7V24.454L66.218,0z M84.759,95.189H15.242V4.811h46.142v23.343h23.374V95.189z"/>
	<rect x="23.796" y="45.075" fill="#7F7F7F" width="51.045" height="5.941"/>
	<rect x="23.796" y="58.424" fill="#7F7F7F" width="51.045" height="5.941"/>
	<rect x="23.796" y="70.56" fill="#7F7F7F" width="51.045" height="5.941"/>
</g>
</svg>
