<svg xmlns="http://www.w3.org/2000/svg" width="100" height="100" viewBox="0 0 100 100"><path fill="#58595B" d="M-1706.068 1440.377l-39.698 39.698-17.194-17.2-12.75 12.754 29.945 29.953 52.454-52.458z"/><path fill="#58595B" d="M-1467.633 1496.7l-23.727-23.725 23.724-23.725-12.756-12.75-23.72 23.725-23.724-23.72-12.754 12.745 23.728 23.727-23.725 23.728 12.746 12.754 23.73-23.733 23.73 23.73z"/><path fill="#58595B" d="M-1230.953 1463.957l-33.553.002v-33.553l-18.036.006.003 33.548-33.548.003-.005 18.03h33.555l.002 33.555 18.03.005v-33.56h33.56z"/><path fill="#58595B" d="M-999.668 1464.07l-85.135.006-.005 18.03 85.145-.002z"/><path fill="#58595B" d="M-771.738 1454.846h-82.4v-13h82.4v13zm0 12h-82.4v13h82.4v-13zm0 25h-82.4v13h82.4v-13z"/><path fill="#58595B" d="M-1299.537 1673.157l11.03-10.977 41.004 41.2-41.004 41.2-11.03-10.977 30.08-30.223z"/><path fill="#58595B" d="M-839.465 1733.574h-14.605v-13h14.605v13zm0-38h-14.605v13h14.605v-13zm0-25h-14.605v13h14.605v-13zm9 0v13h58.795v-13h-58.795zm0 38h58.795v-13h-58.795v13zm0 25h58.795v-13h-58.795v13z"/><path fill="#58595B" d="M-1748.835 1899.393h16.678v50.58h-16.678v-50.58zm8.34 76.062c-4.972 0-9-4.03-9-9s4.028-9 9-9c4.97 0 9 4.03 9 9s-4.03 9-9 9z"/><path fill="#58595B" d="M-1503.42 1974.98c-4.972 0-9.005-4.033-9.005-9.008 0-4.972 4.033-9.004 9.006-9.004 4.975 0 9.007 4.032 9.007 9.004 0 4.975-4.032 9.008-9.006 9.008zm7.082-26.62v1.62h-14.846v-1.62c0-4.584.67-10.465 5.99-15.578 5.324-5.113 11.975-9.337 11.975-15.725 0-7.062-4.9-10.797-11.08-10.797-10.296 0-10.968 10.68-11.222 13.03h-14.44c.385-11.135 5.09-26.71 25.75-26.71 17.902 0 25.95 11.99 25.95 23.233 0 17.896-18.076 21.005-18.076 32.547z"/><path fill="#58595B" d="M-1250.267 1910.02l-7.45 7.452c-4.045-4.045-9.632-6.546-15.804-6.546-12.345 0-22.35 10.01-22.35 22.355 0 .004 0-.002 0 0h8.68l-13.867 13.864-13.854-13.863h8.502s0 .002 0 0c0-18.162 14.724-32.89 32.887-32.89 9.08 0 17.302 3.68 23.253 9.63zm17.756 22.113l-13.855-13.863-13.868 13.863h8.682c0 .003 0-.003 0 0 0 12.344-10.008 22.355-22.35 22.355-6.173 0-11.76-2.502-15.805-6.546l-7.45 7.45c5.952 5.952 14.173 9.633 23.255 9.633 18.163 0 32.887-14.73 32.887-32.892 0 0 0 .002 0 0h8.502z"/><path fill="#58595B" d="M-1002.44 1966.898l-21.302-21.302c4.008-5.51 6.377-12.287 6.377-19.607 0-18.422-14.987-33.41-33.41-33.41-18.42 0-33.407 14.988-33.407 33.41 0 18.42 14.987 33.407 33.408 33.407 6.982 0 13.47-2.155 18.837-5.832l21.415 21.415 8.082-8.082zm-71.945-40.91c0-13.02 10.592-23.61 23.61-23.61 13.02 0 23.612 10.59 23.612 23.61s-10.592 23.61-23.61 23.61c-13.02 0-23.612-10.59-23.612-23.61z"/><path fill="#58595B" d="M-797.348 1927.77h13.252l-28.815 28.866-28.815-28.865h13.25v-36.264h31.128v36.265zm8.284 23.102v13.034h-47.694v-13.034h-10v23.034h67.695v-23.034h-10z"/><path fill="#58595B" d="M-1495.748 2130.98v17.15h17.173v49.25h-51.073v-66.4h33.9m5-8h-46.9v82.4h67.073v-62.25l-20.173-20.15z"/><path fill="#58595B" d="M-1279.894 2140.633c-2.552 0-5-1.01-6.81-2.812l-6.538-6.508h-21.67v65.736h82.4v-56.415h-47.382z"/><path fill="#58595B" d="M-1043.308 2167.667l-41.034-34.006h82.18l-41.146 34.007zm-.007 11.093l-41.197-34.13v50.07h82.4v-49.99l-41.203 34.05z"/><path fill="#58595B" d="M-812.91 2122.98c-18.613 0-33.7 15.088-33.7 33.7 0 18.9 16.385 31.367 33.7 48.7 17.313-17.333 33.7-29.8 33.7-48.7 0-18.612-15.09-33.7-33.7-33.7z"/><path fill="#58595B" d="M-1784.403 2419.57v7.93h99v-7.93h-99zm90.616-3.604v-54.306h-82.1v54.306h82.1zm-6.488-47.818v41.29h-69.124v-41.29h69.125z"/><path fill="#58595B" d="M-1232.51 2383.442h-82.4v20.653h82.4v-20.653zm-76.92 14.856l3.622-9.06h4.377l-3.624 9.06h-4.377zm7.094 0l3.623-9.06h4.377l-3.623 9.06h-4.376zm7.094 0l3.623-9.06h4.378l-3.623 9.06h-4.377zm52.948-1.504c-1.67 0-3.025-1.354-3.025-3.025 0-1.672 1.356-3.026 3.026-3.026 1.67 0 3.026 1.354 3.026 3.025 0 1.67-1.355 3.024-3.026 3.024zm5.24-18.786h-73.138l14.424-19.03h44.113l14.6 19.03zm4.543 31.522h-82.4v20.653h82.4v-20.653zm-76.92 14.855l3.622-9.06h4.377l-3.624 9.06h-4.377zm7.094 0l3.623-9.06h4.377l-3.623 9.06h-4.376zm7.094 0l3.623-9.06h4.378l-3.623 9.06h-4.377zm52.948-1.504c-1.67 0-3.025-1.353-3.025-3.024 0-1.67 1.356-3.025 3.026-3.025 1.67 0 3.026 1.355 3.026 3.026 0 1.67-1.355 3.025-3.026 3.025z"/><g fill="#58595B"><path d="M-1052.22 2410.846l7.972-21.475h-6.734l-4.772 15.455-4.833-15.454h-6.937l8.11 21.476zM-1036.718 2394.47l4.18 16.376h4.918l4.188-16.377v16.376h5.434v-21.475h-8.72l-3.343 13.068-3.366-13.067h-8.727v21.476h5.435zM-1085.435 2358.814v71.53h86.4v-71.53h-86.4zm28.6 3.832c1.988 0 3.6 1.612 3.6 3.6s-1.612 3.6-3.6 3.6-3.6-1.612-3.6-3.6 1.612-3.6 3.6-3.6zm-10 0c1.988 0 3.6 1.612 3.6 3.6s-1.612 3.6-3.6 3.6-3.6-1.612-3.6-3.6 1.612-3.6 3.6-3.6zm-10 0c1.988 0 3.6 1.612 3.6 3.6s-1.612 3.6-3.6 3.6-3.6-1.612-3.6-3.6 1.612-3.6 3.6-3.6zm72.76 62.5h-76.32v-51.11h76.32v51.11z"/></g><path fill="#58595B" d="M-812.87 2353.364c-19.883 0-36 16.118-36 36v46.408l12.828-12.816 11.63 11.628 11.59-11.592 11.44 11.437 11.565-11.567 12.947 12.934v-46.433c0-19.883-16.118-36-36-36zm-14.4 46.732c-5.965 0-10.8-4.835-10.8-10.8s4.835-10.8 10.8-10.8c5.965 0 10.8 4.835 10.8 10.8s-4.836 10.8-10.8 10.8zm28.8 0c-5.965 0-10.8-4.835-10.8-10.8s4.835-10.8 10.8-10.8c5.965 0 10.8 4.835 10.8 10.8s-4.836 10.8-10.8 10.8z"/><path fill="#58595B" d="M-1734.933 2583.78c-10.284 10.283-25.033 13.4-37.1 13.4 0 29.467 16.733 55.6 37.1 69 20.367-13.4 37.1-39.533 37.1-69-12.067 0-26.817-3.117-37.1-13.4z"/><path fill="#58595B" d="M-1470.475 2625.652c-1.246 5.315-7.102 10.548-10.963 10.583 4.064-9.29 4.795-23.69-3.875-35.767-.86 6.204-4.723 10.315-8.833 11.437 4.36-15.325-11.17-29.46-24.642-30.816 8.052 20.088-27.438 31.19-5.96 57.168-3.37-.147-11.344-2.804-12.858-12.03-3.76 17.323 6.33 39.377 24.124 41.29h18.35c10.937 0 28.92-16.394 24.657-41.866z"/><path fill="#58595B" d="M-1296.23 2618.447v-12.533c0-12.204 9.93-22.134 22.134-22.134s22.133 9.93 22.133 22.134v12.533h-10v-12.533c0-6.69-5.443-12.134-12.133-12.134s-12.133 5.443-12.133 12.134v12.533h-10zm-7.465 6v41.733h59.2v-41.733h-59.2z"/><path fill="#58595B" d="M-1016.596 2613.867c-4.4-13.587-17.157-23.412-32.21-23.412-18.693 0-33.847 15.155-33.847 33.848 0 2.697.316 5.32.912 7.835h25.1v25.1c2.515.597 5.138.913 7.835.913 14.88 0 27.515-9.6 32.053-22.943l15.098 10.922v-43.655l-14.942 11.392zm-46.69 7.23c-3.787 0-6.857-3.068-6.857-6.855s3.07-6.856 6.856-6.856 6.856 3.07 6.856 6.856-3.07 6.856-6.857 6.856z"/><path fill="#58595B" d="M-788.66 2602.35c0 13.255-10.744 24-24 24-13.254 0-24-10.745-24-24s10.746-24 24-24c13.255 0 24 10.745 24 24zm-4.19 25.132c-5.594 4.417-12.527 6.868-19.81 6.868-7.366 0-14.367-2.51-19.986-7.01-14.81 5.435-21.424 24.436-21.424 33.11h82.4c0-8.6-6.665-27.465-21.18-32.968z"/><g fill="#58595B"><path d="M-1769.577 2820.315c-6.032 6.032-6.032 15.903 0 21.935l8.434 8.434 21.935-21.935-8.434-8.435c-6.032-6.033-15.903-6.033-21.935 0zM-1699.446 2868.51l-8.434-8.434-21.935 21.935 8.434 8.435c6.03 6.032 15.902 6.032 21.934 0 6.032-6.032 6.032-15.903 0-21.935zM-1757.435 2854.39l23.912 23.914 21.935-21.935-23.912-23.913-21.935 21.934zm38.22-.8c1.266 1.267 1.266 3.32 0 4.586-1.266 1.266-3.32 1.266-4.585 0s-1.266-3.32 0-4.585c1.266-1.265 3.318-1.265 4.585 0zm-6.008 6.008c1.266 1.266 1.266 3.32 0 4.585-1.266 1.266-3.32 1.266-4.585 0-1.266-1.266-1.266-3.32 0-4.585 1.266-1.266 3.32-1.266 4.585 0zm-6.007 6.008c1.266 1.266 1.266 3.32 0 4.585-1.266 1.267-3.32 1.267-4.585 0-1.266-1.265-1.266-3.318 0-4.584 1.266-1.266 3.32-1.266 4.585 0zm5.402-18.628c1.266 1.266 1.266 3.32 0 4.585-1.266 1.266-3.32 1.266-4.585 0s-1.266-3.32 0-4.585 3.32-1.266 4.585 0zm-6.008 6.008c1.266 1.266 1.266 3.32 0 4.585-1.266 1.267-3.32 1.267-4.585 0-1.267-1.265-1.267-3.318 0-4.584 1.265-1.267 3.318-1.267 4.584 0zm-6.007 6.007c1.266 1.266 1.266 3.32 0 4.585-1.266 1.266-3.32 1.266-4.585 0-1.266-1.266-1.266-3.32 0-4.585s3.32-1.266 4.585 0zm5.12-18.91c1.267 1.267 1.267 3.32 0 4.586-1.265 1.265-3.318 1.265-4.584 0-1.266-1.267-1.266-3.32 0-4.586 1.266-1.266 3.32-1.266 4.585 0zm-6.006 6.01c1.267 1.265 1.267 3.318 0 4.584-1.265 1.266-3.318 1.266-4.584 0s-1.266-3.32 0-4.585 3.318-1.267 4.585 0zm-6.007 6.006c1.266 1.265 1.266 3.318 0 4.584-1.266 1.266-3.32 1.266-4.585 0-1.266-1.266-1.266-3.32 0-4.585 1.266-1.267 3.32-1.267 4.585 0z"/></g><g fill="#58595B"><path d="M-1541.785 2819.985h59.857v4.8h5.527v-10.327h-70.91v54.822h10.325v-8.968h-4.8zM-1506.416 2889.055l-7.247 7.247h34.594l-7.246-7.247zM-1531.82 2829.948v54.822h70.91v-54.822h-70.91zm5.525 5.527h59.857v40.328h-59.857v-40.328z"/></g><path fill="#58595B" d="M-1239.274 2848.427c-1.56 0-3 .514-4.16 1.383-2.382 1.782-5.278 2.75-8.252 2.75-2.425 0-4.627-1.416-5.63-3.624-1.158-2.543-.517-5.257 1.228-7 2.11-2.11 4.827-3.466 7.78-3.89 1.434-.206 2.816-.86 3.92-1.964 2.716-2.716 2.715-7.118 0-9.834-2.715-2.715-7.118-2.716-9.834 0-1.104 1.104-1.758 2.485-1.964 3.92-.423 2.944-1.785 5.677-3.888 7.78-1.776 1.776-4.45 2.307-6.77 1.343l-.023-.01c-2.32-.958-3.834-3.223-3.834-5.733 0-2.984.962-5.863 2.75-8.252.868-1.16 1.383-2.6 1.383-4.16 0-3.84-3.113-6.954-6.954-6.954s-6.955 3.114-6.955 6.954c0 1.56.514 3 1.383 4.16 1.782 2.382 2.75 5.277 2.75 8.25 0 2.51-1.513 4.777-3.833 5.736l-.024.01c-2.318.963-4.992.433-6.767-1.342-2.11-2.11-3.465-4.826-3.89-7.78-.205-1.435-.86-2.817-1.963-3.92-2.715-2.717-7.118-2.716-9.834 0-2.716 2.715-2.716 7.117 0 9.833 1.103 1.105 2.485 1.76 3.92 1.965 2.944.423 5.677 1.786 7.78 3.89 1.776 1.775 2.306 4.45 1.343 6.768-.004.008-.008.016-.01.024-.96 2.32-3.226 3.834-5.736 3.834-2.985 0-5.862-.962-8.25-2.75-1.16-.868-2.6-1.383-4.162-1.383-3.84 0-6.953 3.113-6.953 6.954 0 3.84 3.112 6.954 6.952 6.954 1.56 0 3-.514 4.16-1.383 2.382-1.78 5.277-2.75 8.25-2.75 2.51 0 4.777 1.514 5.736 3.834l.01.024c.963 2.32.433 4.993-1.342 6.768-2.11 2.11-4.826 3.465-7.78 3.89-1.434.205-2.816.86-3.92 1.964-2.715 2.716-2.715 7.118 0 9.833 2.715 2.716 7.118 2.716 9.833 0 1.103-1.104 1.757-2.486 1.963-3.92.423-2.943 1.786-5.676 3.89-7.78 1.775-1.775 4.448-2.306 6.768-1.342.01.004.017.008.025.01 2.32.96 3.834 3.225 3.834 5.735 0 2.984-.964 5.863-2.752 8.252-.868 1.16-1.383 2.6-1.383 4.16 0 3.84 3.113 6.954 6.953 6.954s6.954-3.112 6.954-6.952c0-1.565-.517-3.01-1.39-4.17-1.778-2.366-2.744-5.246-2.744-8.205 0-2.504 1.506-4.888 4.055-5.85 2.277-.864 4.85-.312 6.57 1.41 2.11 2.11 3.467 4.827 3.89 7.78.207 1.435.862 2.817 1.965 3.92 2.716 2.717 7.118 2.717 9.834 0 2.716-2.714 2.716-7.117 0-9.832-1.107-1.106-2.494-1.76-3.932-1.965-2.93-.416-5.65-1.77-7.743-3.863-1.788-1.788-2.324-4.48-1.358-6.815v-.002c.96-2.32 3.224-3.834 5.734-3.834 2.984 0 5.862.963 8.252 2.752 1.16.868 2.6 1.383 4.16 1.383 3.84 0 6.954-3.113 6.954-6.953 0-3.842-3.113-6.955-6.954-6.955zm-40.992 16.132c-1.878 0-3.4-1.523-3.4-3.4 0-1.88 1.522-3.4 3.4-3.4s3.4 1.52 3.4 3.4c0 1.877-1.522 3.4-3.4 3.4zm4.333-10.792c-2.945 0-5.333-2.388-5.333-5.333s2.388-5.333 5.333-5.333c2.946 0 5.334 2.388 5.334 5.333s-2.387 5.333-5.333 5.333zm10.05 10.19c-2.494 0-4.517-2.02-4.517-4.516 0-2.495 2.022-4.517 4.517-4.517 2.494 0 4.517 2.022 4.517 4.517 0 2.495-2.022 4.517-4.517 4.517z"/><path fill="#58595B" d="M-1060.816 2820.87v37.77c-3.196-3.478-8.72-7.628-14.124-7.304-6.482.388-7.713 7.33-2.112 12.573 9.428 8.827 18.915 21.853 21.033 32.647h36.883c0-21.76 7.032-26.383 8.31-37.74.958-8.5-1.326-15.145-8.204-16.124l.947 2.686c.365 1.2-.315 2.472-1.518 2.836-1.205.364-2.475-.315-2.84-1.52l-.903-2.5c-.947-3.128-3.854-3.542-8.17-4.116l1.13 3.32c.364 1.203-.317 2.474-1.52 2.84-1.203.362-2.474-.317-2.838-1.52l-.818-2.57c-.98-3.232-3.615-3.583-8.396-4.31l1.07 3.565c1 3.305-5.307 4.902-5.307-4.31v-16.224c0-3.707-2.607-6.713-6.315-6.713s-6.31 3.006-6.31 6.714z"/><path fill="#58595B" d="M-776.868 2850.863c-1.978-24.905-34.772-33.112-48.176-11.785-8.694-4.916-19.782.868-20.477 11.03-9.533 1.166-16.917 9.284-16.917 19.132 0 10.65 8.633 19.282 19.282 19.282h60.435c10.65 0 19.282-8.633 19.282-19.282.002-8.61-5.64-15.9-13.43-18.377z"/><path fill="#58595B" d="M-1715.506 4031.157c3.568-2.42 6.634-5.434 9.128-8.974l12.493 12.493-9.05 9.05-12.57-12.57zm-60.78 3.52l12.463-12.462c2.494 3.54 5.56 6.554 9.128 8.974l-12.538 12.537-9.052-9.05zm70.324-52.222c-2.427-3.575-5.437-6.645-8.963-9.14l11.99-11.988 9.05 9.05-12.077 12.078zm-70.323-12.077l9.05-9.05 11.974 11.972c-3.527 2.495-6.537 5.564-8.964 9.14l-12.06-12.062zm41.2 2.57c-16.07 0-29.098 13.027-29.098 29.097 0 11.83 7.06 22.012 17.198 26.56v7.12c.71 1.19 2.658 2.05 5.158 2.58v-4.1h4v4.643c1.817.13 3.718.13 5.533-.004v-4.64h4v4.09c2.476-.53 4.404-1.386 5.108-2.568v-7.12c10.138-4.55 17.198-14.73 17.198-26.562 0-16.07-13.026-29.097-29.097-29.097zm-12.75 39.996c-5.112 0-9.256-4.144-9.256-9.257 0-5.113 4.143-9.257 9.255-9.257 5.112 0 9.257 4.144 9.257 9.257 0 5.113-4.145 9.257-9.257 9.257zm6.805 7.31l6.13-8.474.005.01.006-.01 6.148 8.475h-12.288zm19.095-7.31c-5.112 0-9.256-4.144-9.256-9.257 0-5.113 4.143-9.257 9.255-9.257 5.112 0 9.257 4.144 9.257 9.257 0 5.113-4.145 9.257-9.257 9.257z"/><path fill="#58595B" d="M-1499.182 3994.476l7.433-12.874c7.39 4.274 12.36 12.262 12.36 21.41h-14.857c0-3.642-1.988-6.83-4.935-8.536zm-9.86 17.076l-7.43 12.873c3.636 2.104 7.858 3.308 12.36 3.308s8.727-1.204 12.363-3.308l-7.432-12.874c-2.985 1.732-6.745 1.806-9.86.002zm0-17.076l-7.43-12.873c-7.39 4.274-12.36 12.262-12.36 21.41h14.857c0-3.643 1.987-6.83 4.934-8.537zm4.93 14.202c3.13 0 5.665-2.536 5.665-5.664 0-3.128-2.536-5.664-5.664-5.664s-5.665 2.536-5.665 5.664c0 3.128 2.536 5.664 5.664 5.664zm41.2-6.01c0 22.754-18.445 41.2-41.2 41.2s-41.2-18.446-41.2-41.2 18.447-41.2 41.2-41.2 41.2 18.446 41.2 41.2zm-8 0c0-18.35-14.85-33.2-33.2-33.2s-33.2 14.852-33.2 33.2c0 18.35 14.853 33.2 33.2 33.2 18.352 0 33.2-14.852 33.2-33.2z"/><path fill="#58595B" d="M-1251.32 4010.568h-27.9v-30.7h9v21.7h18.9v9zm-22.2-40.1c-17.798 0-32.2 14.404-32.2 32.2 0 17.798 14.405 32.2 32.2 32.2 17.798 0 32.2-14.405 32.2-32.2 0-17.8-14.405-32.2-32.2-32.2m0-9c22.754 0 41.2 18.446 41.2 41.2s-18.446 41.2-41.2 41.2-41.2-18.446-41.2-41.2 18.446-41.2 41.2-41.2z"/><path fill="#58595B" d="M-1042.886 3982.443v20.25h18.09v8.1h-26.19v-28.35h8.1zm-2.647-20.975c-11.243 0-22.232 4.505-29.666 11.807l-7.092-7.093-4.606 25.235 25.235-4.606-7.172-7.17c5.805-5.674 14.544-9.172 23.302-9.172 17.784 0 32.2 14.416 32.2 32.2s-14.416 32.2-32.2 32.2c-17.733 0-32.116-14.334-32.198-32.048l-8.96 1.692c.965 21.898 19.02 39.355 41.157 39.355 22.754 0 41.2-18.446 41.2-41.2s-18.446-41.2-41.2-41.2z"/><path fill="#58595B" d="M-776.296 4006.568c0-22.754-18.446-41.2-41.2-41.2s-41.2 18.446-41.2 41.2c0 8.868 2.803 17.082 7.57 23.804h14.96c3.194 5.656 10.35 9.596 18.67 9.596 8.318 0 15.476-3.94 18.67-9.596h14.96c4.768-6.722 7.57-14.936 7.57-23.804zm-15.425-22.1l-7.564 7.564c-1.085-1.358-2.32-2.592-3.677-3.677l7.562-7.563c1.315 1.13 2.55 2.363 3.677 3.677zm-15.21-10.176c1.64.538 3.254 1.207 4.8 1.994l-4.096 9.883c-1.52-.843-3.133-1.51-4.803-1.993l4.1-9.885zm-13.166-1.577c.877-.067 1.75-.1 2.6-.1.85 0 1.723.033 2.6.1v10.695c-.863-.096-1.736-.144-2.6-.144-.864 0-1.737.05-2.6.144v-10.695zm-1.277 35.846l3.878-18.173 3.878 18.174c2.47 1.368 4.144 4 4.144 7.023 0 4.43-3.59 8.02-8.02 8.02s-8.022-3.59-8.022-8.02c-.002-3.024 1.67-5.655 4.142-7.022zm-6.816-34.225l4.138 9.868c-1.668.488-3.277 1.163-4.795 2.012l-4.137-9.867c1.543-.792 3.152-1.468 4.795-2.013zm-11.404 6.458l7.563 7.563c-1.36 1.085-2.593 2.32-3.678 3.677l-7.563-7.563c1.127-1.315 2.362-2.55 3.676-3.677zm-10.18 15.215c.538-1.643 1.207-3.255 1.993-4.803l9.883 4.095c-.842 1.52-1.51 3.133-1.99 4.804l-9.887-4.096zm54.568 3.746c-.507-1.66-1.2-3.26-2.068-4.77l9.82-4.25c.807 1.528 1.5 3.13 2.066 4.77l-9.818 4.25z"/><path fill="#58595B" d="M-1688.148 3100.938l-8.79-36.226c-.77-3.077-3.534-5.235-6.705-5.235h-58.32c-3.17 0-5.935 2.158-6.704 5.235l-8.79 36.226c-2.444 9.776 8.65 14.61 15.09 8.168l11.216-11.22c1.66-1.983 4.113-3.13 6.7-3.13h23.293c2.587 0 5.04 1.146 6.7 3.13l11.216 11.22c6.442 6.44 17.536 1.607 15.092-8.168zm-56.353-21.362h-5.984v5.983h-4.735v-5.984h-5.983v-4.735h5.984v-5.982h4.736v5.983h5.983v4.736zm14.897 5.585h-6.44v-2.783h6.44v2.784zm13.12-5.946c-1.108 1.11-2.907 1.11-4.017 0-1.11-1.11-1.11-2.908 0-4.018 1.11-1.11 2.91-1.11 4.018 0 1.11 1.11 1.11 2.91 0 4.018zm6.286 5.788c-1.11 1.11-2.91 1.11-4.02 0-1.108-1.11-1.108-2.91 0-4.018 1.11-1.11 2.91-1.11 4.02 0 1.11 1.11 1.11 2.908 0 4.018zm0-11.47c-1.11 1.11-2.91 1.11-4.02 0-1.108-1.11-1.108-2.908 0-4.017 1.11-1.11 2.91-1.11 4.02 0 1.11 1.11 1.11 2.91 0 4.018zm6.266 5.682c-1.11 1.11-2.91 1.11-4.02 0-1.108-1.11-1.108-2.908 0-4.018 1.11-1.11 2.91-1.11 4.02 0 1.108 1.11 1.108 2.91 0 4.018z"/><path fill="#58595B" d="M-1462.91 3091.33v-11.098l-5.997-2.132c-2.286-.813-4.126-2.56-5.055-4.8v-.002c-.933-2.247-.868-4.784.177-6.98l2.73-5.746-7.846-7.847-5.745 2.73c-2.196 1.044-4.736 1.11-6.982.178h-.003c-2.243-.93-3.987-2.768-4.8-5.056l-2.133-5.997h-11.097l-2.132 5.996c-.813 2.286-2.56 4.125-4.8 5.055l-.003.002c-2.247.932-4.784.867-6.98-.178l-5.746-2.73-7.848 7.846 2.73 5.744c1.045 2.196 1.11 4.736.18 6.982l-.002.003c-.93 2.242-2.767 3.985-5.054 4.8l-5.997 2.132v11.097l5.995 2.13c2.286.814 4.125 2.56 5.055 4.8v.003c.933 2.248.868 4.785-.176 6.982l-2.73 5.745 7.846 7.847 5.744-2.73c2.196-1.044 4.736-1.11 6.982-.178h.002c2.244.93 3.987 2.767 4.8 5.055l2.133 5.997h11.098l2.12-5.958c.82-2.308 2.58-4.165 4.842-5.105l.003-.002c2.225-.926 4.74-.862 6.916.173l5.78 2.75 7.846-7.848-2.732-5.747c-1.043-2.194-1.108-4.732-.177-6.975v-.003c.932-2.245 2.77-3.99 5.06-4.804l5.992-2.134zm-41.2 12.36c-9.892 0-17.91-8.02-17.91-17.91s8.017-17.91 17.91-17.91c9.89 0 17.908 8.02 17.908 17.91s-8.018 17.91-17.91 17.91z"/><path fill="#58595B" d="M-1235.878 3109.57l-33.137-33.137c-2.27-2.27-3.44-5.428-3.192-8.63.47-6.065-1.615-12.29-6.254-16.93-6.04-6.037-14.765-7.747-22.327-5.132l13.73 13.73c.314 5.356-7.967 13.637-13.323 13.322l-13.73-13.73c-2.614 7.563-.904 16.29 5.134 22.327 4.64 4.638 10.864 6.72 16.93 6.253 3.204-.248 6.356.92 8.63 3.192l33.136 33.137c3.977 3.977 10.425 3.977 14.403 0 3.976-3.977 3.976-10.425 0-14.402zm-7.698 10.777c-2.318 0-4.197-1.88-4.197-4.197s1.88-4.197 4.197-4.197c2.318 0 4.197 1.88 4.197 4.197 0 2.318-1.878 4.197-4.196 4.197z"/><path fill="#58595B" d="M-1008.72 3086.273l-59.6 41.2v-82.4z"/><path fill="#58595B" d="M-820.6 3126.956h-24v-82.4h24v82.4zm39.328-82.4h-24v82.4h24v-82.4z"/><path fill="#58595B" d="M-1759.33 3328.88c7.33-31.917 43.83-39.344 43.83-39.344v-9.826l21.767 21.73-21.767 21.733v-9.826s-28.226-1.174-43.83 15.533zm44.007 4.01v8.005h-52.608v-34.074h11.51c2.3-2.962 4.913-5.696 7.797-8.2h-27.51v50.478h69.012V3324.7l-8.203 8.19z"/><path fill="#58595B" d="M-1462.91 3290.625c-3.033 1.345-6.29 2.254-9.71 2.662 3.49-2.092 6.17-5.405 7.433-9.353-3.267 1.937-6.884 3.344-10.735 4.102-3.084-3.286-7.477-5.338-12.34-5.338-10.912 0-18.934 10.183-16.467 20.757-14.05-.705-26.506-7.435-34.844-17.663-4.428 7.597-2.297 17.538 5.232 22.57-2.77-.088-5.378-.848-7.657-2.115-.182 7.832 5.43 15.156 13.56 16.79-2.38.647-4.985.796-7.634.29 2.15 6.715 8.394 11.603 15.792 11.74-7.107 5.57-16.06 8.057-25.028 7 7.48 4.796 16.367 7.595 25.914 7.595 31.386 0 49.12-26.51 48.05-50.287 3.303-2.383 6.168-5.36 8.435-8.75z"/><path fill="#58595B" d="M-1284.482 3302.27h-8.63v14.086h8.63v41.376h16.593v-41.552h11.577l1.232-13.91h-12.81v-7.922c0-3.28.66-4.578 3.83-4.578h8.978v-14.438h-11.488c-12.347 0-17.913 5.436-17.913 15.846v11.093z"/><path fill="#58595B" d="M-770.62 3293.225h-10.924v10.924h-5.462v-10.925h-10.924v-5.462h10.924v-10.924h5.462v10.923h10.924v5.462zm-30.884 45.183c0 8.19-7.477 18.157-26.287 18.157-13.758 0-25.23-5.934-25.23-15.914 0-7.702 4.876-17.7 27.664-17.7-3.384-2.76-4.215-6.616-2.147-10.793-13.343 0-20.176-7.844-20.176-17.804 0-9.746 7.25-18.606 22.03-18.606h23.68l-5.29 5.554h-6.216c4.385 2.513 6.717 7.688 6.717 13.39 0 5.236-2.882 9.476-6.996 12.657-7.3 5.644-5.432 8.796 2.217 14.374 7.544 5.65 10.036 10.012 10.036 16.688zm-14.77-43.362c-1.1-8.38-6.56-15.257-12.94-15.45-6.382-.19-10.662 6.225-9.56 14.608 1.102 8.38 7.167 14.236 13.55 14.428 6.38.19 10.052-5.204 8.95-13.586zm6.58 44.202c0-6.893-6.288-13.463-16.838-13.463-9.508-.104-17.566 6.008-17.566 13.094 0 7.23 6.867 13.25 16.376 13.25 12.155 0 18.028-5.65 18.028-12.882z"/><path fill="#58595B" d="M-1728.93 3560.24l-8.91 8.91h-8.626v8.625h-8.994v8.13h-19.974v-13.853l28.652-28.652c3.233 7.7 9.63 13.935 17.85 16.84zm27.35-45.836c9.53 9.53 9.53 24.98 0 34.51-9.53 9.532-24.98 9.532-34.51 0-9.53-9.53-9.53-24.98 0-34.51 9.528-9.53 24.98-9.53 34.51 0zm-4.9 4.88c-2.363-2.362-6.195-2.363-8.56 0-2.363 2.365-2.363 6.197 0 8.56 2.364 2.365 6.196 2.365 8.56 0 2.365-2.363 2.365-6.196 0-8.56z"/><path fill="#58595B" d="M-1504.11 3505.38c-22.755 0-41.2 18.446-41.2 41.2s18.445 41.2 41.2 41.2c22.753 0 41.2-18.446 41.2-41.2s-18.447-41.2-41.2-41.2zm20.72 34.1c.603 13.44-9.42 28.426-27.16 28.426-5.397 0-10.42-1.582-14.65-4.293 5.07.597 10.13-.81 14.148-3.957-4.18-.077-7.71-2.84-8.926-6.636 1.497.286 2.97.203 4.315-.163-4.595-.923-7.768-5.063-7.664-9.49 1.288.716 2.762 1.146 4.328 1.195-4.255-2.844-5.46-8.464-2.956-12.758 4.713 5.78 11.754 9.586 19.696 9.984-1.394-5.977 3.14-11.733 9.308-11.733 2.748 0 5.232 1.16 6.975 3.018 2.177-.43 4.222-1.224 6.068-2.32-.712 2.232-2.228 4.105-4.2 5.288 1.932-.23 3.774-.743 5.487-1.504-1.28 1.915-2.9 3.598-4.768 4.945z"/><path fill="#58595B" d="M-1273.52 3505.38c-22.754 0-41.2 18.446-41.2 41.2s18.446 41.2 41.2 41.2 41.2-18.446 41.2-41.2-18.446-41.2-41.2-41.2zm12.193 24.238h-5.758c-2.032 0-2.456.833-2.456 2.936v5.08h8.213l-.79 8.92h-7.424v26.646h-10.64v-26.532h-5.534v-9.032h5.533v-7.113c0-6.676 3.57-10.16 11.486-10.16h7.367v9.255z"/><path fill="#58595B" d="M-1044.248 3505.38c-22.754 0-41.2 18.446-41.2 41.2s18.446 41.2 41.2 41.2 41.2-18.446 41.2-41.2-18.445-41.2-41.2-41.2zm-10.992 61.12h-9.046v-29.226h9.046v29.225zm-4.566-33.053c-2.954 0-5.35-2.415-5.35-5.393 0-2.978 2.396-5.393 5.35-5.393 2.954 0 5.35 2.416 5.35 5.394s-2.396 5.393-5.35 5.393zm38.466 33.052h-9.002v-15.342c0-4.208-1.598-6.556-4.925-6.556-3.62 0-5.512 2.446-5.512 6.556v15.34h-8.675v-29.224h8.676v3.936s2.61-4.827 8.807-4.827c6.197 0 10.633 3.783 10.633 11.612v18.504z"/><path fill="#58595B" d="M-1063.305 3285.47c0 5.597-4.502 10.135-10.055 10.135s-10.055-4.538-10.055-10.136 4.502-10.137 10.055-10.137 10.055 4.538 10.055 10.136zm-1.472 17.33h-17.003v54.932h17.003V3302.8zm27.18 0h-16.307v54.932h16.308v-28.836c0-7.725 3.556-12.323 10.36-12.323 6.255 0 9.26 4.414 9.26 12.323v28.836h16.92v-34.783c0-14.715-8.338-21.827-19.987-21.827-11.65 0-16.554 9.074-16.554 9.074v-7.398z"/><path fill="#58595B" d="M-809.546 3561.512c0 4.05-3.29 7.213-10.096 7.213-5.325 0-9.17-3.37-9.17-7.42 0-3.968 4.512-7.39 9.837-7.333 5.908 0 9.43 3.68 9.43 7.54zm37.81-14.932c0 22.754-18.446 41.2-41.2 41.2s-41.2-18.446-41.2-41.2 18.446-41.2 41.2-41.2 41.2 18.446 41.2 41.2zm-33.223 14.46c0-3.737-1.395-6.18-5.618-9.344-4.283-3.124-5.33-4.888-1.242-8.05 2.304-1.78 3.918-4.156 3.918-7.087 0-3.195-1.306-6.092-3.762-7.5h3.48l2.964-3.11h-13.26c-8.28 0-12.338 4.962-12.338 10.42 0 5.578 3.826 9.97 11.298 9.97-1.158 2.34-.693 4.5 1.202 6.044-12.76 0-15.492 5.6-15.492 9.913 0 5.59 6.425 8.912 14.13 8.912 10.534 0 14.72-5.583 14.72-10.17zm17.295-28.36h-6.118v-6.118h-3.06v6.118h-6.117v3.06h6.118v6.116h3.06v-6.117h6.117v-3.06zm-25.565 4.08c-.617-4.694-3.674-8.545-7.247-8.652-3.574-.106-5.97 3.485-5.353 8.18.617 4.693 4.013 7.972 7.588 8.08 3.572.105 5.628-2.915 5.012-7.61z"/><path fill="#58595B" d="M-1726.445 3808.79h-16.132v-38.33h16.132v38.33zm-8.066-46.26c-4.905 0-8.88-3.976-8.88-8.88 0-4.903 3.975-8.88 8.88-8.88 4.903 0 8.878 3.977 8.878 8.88 0 4.905-3.975 8.88-8.88 8.88z"/><path fill="#58595B" d="M-834.81 3817.98h-21.417v-20.787h21.417v20.787zm27.926-30.655h-21.627v30.655h21.626v-30.655zm27.716-13.438h-21.627v44.093h21.627v-44.093zm.403-38.307l-17.526 3.032 3.856 3.896-26.36 25.333-9.573-9.05-26.803 26.704 6.594 6.485 19.932-19.932 9.872 9.34 32.906-32.122 3.746 3.78 3.355-17.466z"/><path fill="#58595B" d="M-1050.378 3760.5c-1.495.9-2.722 2.06-3.732 3.364l-3.376-1.17c1.354-2.017 3.118-3.795 5.33-5.132 2.22-1.338 4.614-2.067 7.03-2.325l-.544 3.534c-1.62.286-3.22.83-4.708 1.73zm5.787-8.783l.53-3.47c-3.984.127-7.988 1.23-11.642 3.436-3.654 2.204-6.498 5.234-8.466 8.7l3.316 1.146c1.67-2.742 3.99-5.14 6.927-6.908 2.93-1.77 6.132-2.707 9.334-2.905zm7.21 19.197c0 3.794-3.072 6.866-6.868 6.866-3.794 0-6.867-3.073-6.867-6.866 0-3.794 3.073-6.867 6.867-6.867 3.796 0 6.867 3.073 6.867 6.867zm-3.434 0c0-1.893-1.54-3.433-3.433-3.433s-3.433 1.542-3.433 3.434 1.54 3.433 3.433 3.433 3.433-1.54 3.433-3.433zm30.9-34.334v80.4h-68.666v-80.4h68.666zm-11.963 63.336c-2.427-2.863-9.03-10.575-10.2-12.15-1.762-2.38-4.545-.95-3.473 1.91.865 2.313 4.345 11.514 5.804 15.222 3.18 8.074 13.528 1.703 7.87-4.982zm5.096-29.002c0-15.17-12.3-27.467-27.468-27.467-15.17 0-27.467 12.296-27.467 27.467 0 15.168 12.297 27.467 27.467 27.467 2.74 0 5.38-.41 7.88-1.16-1.054-2.772-2.006-5.293-2.395-6.336-2.473-6.565 5.335-10.712 9.442-5.167.5.67 2.22 2.73 4.11 4.97 5.19-4.998 8.43-12.002 8.43-19.773z"/><path fill="#58595B" d="M-1232.895 3776.78c0-23.12-18.752-41.2-41.2-41.2-22.292 0-41.2 17.89-41.2 41.2 0 23.447 19.025 41.2 41.2 41.2 22.312 0 41.2-17.92 41.2-41.2zm-60.695-15.116c-.786 3.78-1.273 7.806-1.43 11.958h-11.82c.528-5.53 2.423-10.66 5.346-15.048 2.538 1.284 5.21 2.294 7.904 3.09zm-1.41 18.274c.18 4.19.697 8.244 1.52 12.044-2.758.81-5.4 1.808-7.957 3.092-2.955-4.408-4.87-9.57-5.402-15.136h11.84zm3.176 18.134c.987 2.958 2.243 5.875 3.86 8.543-3.488-1.624-6.643-3.84-9.336-6.52 1.7-.77 3.532-1.446 5.476-2.023zm20.886-8.66v-9.474h11.533c-.17 3.7-.628 7.263-1.34 10.59-3.257-.598-6.68-.976-10.193-1.116zm8.498 7.223c-1.546 4.43-4.38 10.18-8.498 12.416v-13.318c2.932.127 5.783.43 8.498.903zm-8.498-23.013v-9.357c3.553-.142 7.012-.527 10.302-1.138.677 3.306 1.1 6.837 1.248 10.495h-11.55zm0-15.678v-13.856c4.25 2.308 7.13 8.333 8.67 12.922-2.766.49-5.675.805-8.67.934zm-6.315-13.8v13.796c-2.958-.132-5.83-.445-8.566-.93 1.534-4.567 4.382-10.517 8.567-12.865zm0 20.116v9.362h-11.445c.148-3.658.572-7.19 1.248-10.495 3.257.605 6.68.988 10.197 1.133zm-10.088 26.27c-.714-3.328-1.17-6.892-1.34-10.592h11.427v9.478c-3.477.144-6.863.52-10.088 1.114zm10.087 5.207v13.258c-4.062-2.28-6.856-7.96-8.393-12.36 2.683-.467 5.498-.77 8.393-.898zm20.99 2.335c1.92.57 3.727 1.235 5.405 1.99-2.663 2.658-5.78 4.86-9.223 6.484 1.604-2.663 2.84-5.546 3.818-8.474zm1.66-6.09c.82-3.8 1.34-7.855 1.52-12.044h11.73c-.528 5.55-2.435 10.697-5.374 15.095-2.563-1.277-5.168-2.257-7.877-3.052zm7.933-33.368c2.907 4.38 4.793 9.496 5.318 15.008h-11.714c-.156-4.153-.643-8.178-1.43-11.958 2.682-.793 5.328-1.792 7.826-3.05zm-4.11-5.036c-1.652.75-3.434 1.41-5.322 1.98-.942-2.917-2.126-5.76-3.635-8.38 3.342 1.623 6.367 3.796 8.958 6.4zm-37.527-6.472c-1.542 2.665-2.73 5.52-3.677 8.45-1.916-.576-3.722-1.248-5.396-2.012 2.623-2.627 5.687-4.814 9.073-6.438z"/><path fill="#58595B" d="M-1517.11 3792.913c3.326-3.327 7.922-5.385 13-5.385s9.672 2.058 13 5.385l-13 13-13-13zm-6-6c4.86-4.862 11.58-7.87 19-7.87s14.137 3.008 19 7.87l8-8c-6.91-6.91-16.457-11.184-27-11.184s-20.09 4.273-27 11.183l8 8zm-14-14c8.444-8.446 20.112-13.67 33-13.67 12.886 0 24.553 5.224 33 13.67l8.2-8.2c-10.545-10.544-25.11-17.066-41.2-17.066s-30.657 6.522-41.2 17.066l8.2 8.2z"/><path fill="#58595B" d="M-1694.142 2142.08l-54.877 54.877-27.084 4.998 5.464-26.62 54.876-54.876c12.214-2.94 24.56 9.407 21.622 21.62zm-58.163 48.773c1.61-6.026-6.205-13.84-12.23-12.23l-3.082 15.014 15.312-2.784z"/><path fill="#58595B" d="M-1708.495 1733.603l-11.03 10.977-41.003-41.2 41.004-41.2 11.03 10.977-30.08 30.223z"/><path fill="#58595B" d="M-1534.334 1729.397l-10.977-11.03 41.2-41.004 41.2 41.004-10.98 11.03-30.22-30.08z"/><path fill="#58595B" d="M-1012.013 1677.363l10.978 11.03-41.2 41.004-41.2-41.004 10.977-11.03 30.223 30.08z"/><path fill="#58595B" d="M-1549.11 2352.472v69.58h90v-69.58h-90zm80.8 60.382h-71.603v-51.184h71.603v51.184zm-23.045 14.636l9.198 9.198h-43.908l9.198-9.198h25.512z"/><path fill="#58595B" d="M-1504.11 4208.558c-12.123-7.546-30.59-10.586-49.5-11.163v68.083c16.24.496 32.15 2.808 44 8.23 3.493 1.598 7.51 1.596 11.003-.003 11.847-5.42 27.758-7.732 43.996-8.228v-68.083c-18.912.578-37.38 3.618-49.5 11.164zm-39.89-1c11.415.958 25.354 3.278 35.083 9.33v46.673c-9.448-3.748-21.184-6.16-35.083-7.205v-48.797zm79.777 48.798c-13.9 1.045-25.635 3.457-35.083 7.206v-46.673c9.73-6.054 23.668-8.373 35.083-9.33v48.796z"/><path fill="#58595B" d="M-817.496 4191.15c-24.838 0-45 20.145-45 45 0 24.845 20.152 45 45 45 24.835 0 45-20.142 45-45 0-24.836-20.143-45-45-45zm16.373 61.373c-9.04 9.04-23.69 9.056-32.746 0-9.042-9.043-9.052-23.694 0-32.747 9.048-9.047 23.698-9.05 32.747 0 9.042 9.042 9.054 23.694 0 32.747zm1.16-51.832l-5.42 9.516c-7.628-3.57-16.59-3.573-24.226 0l-5.42-9.515c10.8-5.35 23.904-5.53 35.066 0zm-53.018 17.982l9.515 5.42c-3.558 7.644-3.595 16.777.235 24.607l-9.507 5.415c-5.564-10.886-5.814-24.16-.244-35.443zm18.23 53.074l5.425-9.52c7.47 3.395 16.18 3.4 23.66 0l5.423 9.52c-10.694 5.193-23.542 5.325-34.507 0zm42.99-23.046c3.822-7.817 3.8-16.95.234-24.607l9.516-5.42c5.388 10.914 5.506 24.193-.244 35.444l-9.507-5.417z"/><path fill="#58595B" d="M-1238.38 4240.48v36.308h-25.945v-19.732h-19.54v19.732h-25.944v-36.31h-9.284l45-44.965 45 44.966h-9.287z"/><path fill="#58595B" d="M-1009.602 4218.322v-19.992h-69.29v19.992h-12.155v46.118h11.804l9.014-17.91h52.333l8.834 17.91h11.617v-46.118h-12.156zm-9.087 0h-51.115v-10.905h51.116v10.905zm12.23 11.533c-1.517 0-2.748-1.23-2.748-2.75 0-1.518 1.23-2.748 2.75-2.748 1.517 0 2.748 1.23 2.748 2.75 0 1.518-1.23 2.748-2.75 2.748zm-17.174 25.308l8.826 18.808h-58.69l9.01-18.807h40.854"/><g fill="#58595B"><path d="M-1710.162 4218.014v-34.477h-49.846v34.477h-7.477v57.323h64.8v-57.323h-7.477zm-42.37-27h34.893v27h-34.89v-27zm42.37 76.846h-49.846v-42.37h49.846v42.37zM-1749.15 4197.304h10.682v10.68h-10.68zM-1731.703 4197.428h10.68v10.68h-10.68z"/></g><path fill="#0073A8" d="M144.78 2801.11v223.934h1633.45V2801.11H144.78zm59.42 161.078l39.286-98.225h47.46l-39.287 98.225H204.2zm76.926 0l39.286-98.225h47.457l-39.287 98.225h-47.457zm76.92 0l39.287-98.225h47.457l-39.288 98.225h-47.455zm73.154 0l39.286-98.225h47.46l-39.287 98.225H431.2zm124.383 0h-47.457l39.286-98.225h47.457l-39.287 98.225zm875.57-16.312c-18.113 0-32.8-14.688-32.8-32.804s14.687-32.8 32.8-32.8c18.12 0 32.807 14.683 32.807 32.8s-14.688 32.804-32.808 32.804zm121 0c-18.113 0-32.8-14.688-32.8-32.804s14.687-32.8 32.8-32.8c18.12 0 32.807 14.683 32.807 32.8s-14.688 32.804-32.808 32.804zm120 0c-18.113 0-32.8-14.688-32.8-32.804s14.687-32.8 32.8-32.8c18.12 0 32.807 14.683 32.807 32.8s-14.688 32.804-32.808 32.804zM559.433 2606.45h809.825l330.35 165.73H223.4zM-18.5 116.668v17h124.004v-17H-18.5zm4.512 12.228l2.982-7.457h3.603l-2.983 7.456h-3.602zm5.84 0l2.982-7.457h3.603l-2.982 7.456h-3.603zm5.84 0l2.982-7.457h3.603l-2.983 7.456h-3.602zm5.553 0l2.982-7.457H9.83l-2.983 7.456H3.245zm9.442 0H9.085l2.982-7.457h3.603l-2.983 7.456zm66.47-1.238c-1.376 0-2.49-1.115-2.49-2.49s1.114-2.49 2.49-2.49c1.375 0 2.49 1.115 2.49 2.49s-1.115 2.49-2.49 2.49zm9.185 0c-1.375 0-2.49-1.115-2.49-2.49s1.115-2.49 2.49-2.49c1.376 0 2.49 1.115 2.49 2.49s-1.114 2.49-2.49 2.49zm9.11 0c-1.375 0-2.49-1.115-2.49-2.49s1.115-2.49 2.49-2.49c1.376 0 2.49 1.115 2.49 2.49s-1.115 2.49-2.49 2.49z"/><g fill="#7F7F7F"><path d="M66.218 0H9.3v100h81.4V24.454L66.218 0zm18.54 95.19H15.243V4.81h46.142v23.344h23.374V95.19zM23.796 45.075H74.84v5.94H23.797zM23.796 58.424H74.84v5.94H23.797zM23.796 70.56H74.84v5.94H23.797z"/></g></svg>