<svg xmlns="http://www.w3.org/2000/svg" width="160" height="20" viewBox="0 0 160 20"><g fill="#fff"><path d="M109.035 17.843l-8.787-10.8s-.13-.148-.36-.148c-.28 0-.368.12-.368.12l-8.86 10.87-.25.21c-.41.278-.89.398-1.377.398-.49 0-.98-.12-1.4-.408l-.253-.217L76.578 4.793l-.142-.227c-.104-.186-.16-.39-.16-.61.02-.494.324-.876.702-1.1.38-.226.824-.336 1.314-.34.49-.003.958.117 1.39.42l.243.21 8.724 10.83s.13.14.36.13c.305-.01.372-.108.372-.108L98.24 3.132c.1-.104.245-.204.245-.204.406-.283.898-.404 1.38-.405.486 0 .98.125 1.398.405l.262.226 8.813 10.835s.08.132.363.12c.275-.004.354-.112.354-.112l8.844-10.865.254-.212c.41-.273.902-.396 1.386-.397.48 0 .972.122 1.386.41l.252.212 10.974 13.063.15.236c.095.175.155.368.156.575v.028c-.02.493-.323.874-.702 1.098-.38.227-.844.335-1.314.342-.46 0-.955-.115-1.385-.416l-.22-.19-8.972-10.89s-.1-.088-.35-.085c-.258.002-.34.116-.34.116l-8.84 10.86-.248.21c-.408.28-.9.398-1.383.4-.603-.005-1.222-.186-1.667-.65"/><path d="M119.837 15.704c-.78-.01-1.336-.718-1.336-1.518.002-.803.558-1.51 1.337-1.52h3.398c.78.01 1.334.718 1.336 1.52 0 .8-.555 1.51-1.335 1.518h-3.398zM14 15.28l-.47.02H8.474l-.49-.022c-2.868-.39-4.27-2.597-4.28-4.793.01-2.195 1.41-4.355 4.312-4.75l.47-.02h5.056l.49.024c2.868.388 4.27 2.55 4.28 4.745-.01 2.195-1.41 4.4-4.313 4.795m7.493-5.41v-.006c-.3-3.675-3.054-6.66-6.692-7.24l-.606-.075-.632-.027h-5.09l-.622.026-.62.072C3.59 3.192.81 6.2.53 9.86l-.026.625H.5l.023.614v.007c.298 3.674 3.053 6.705 6.69 7.286l.608.073.633.027h5.09l.622-.026.62-.073c3.64-.572 6.422-3.622 6.702-7.285l.026-.625h.003l-.023-.614zM134.116 2.623h20.175V5.79h-8.503v12.578H142.623V5.788h-8.507zM30.642 8.913l11.684.002.273-.022c.893-.186 1.297-.847 1.307-1.543-.01-.698-.416-1.362-1.28-1.54l-.3-.02H30.64v3.123zm-3.074 9.453V2.622l14.758.004.527.023c2.777.384 4.217 2.552 4.212 4.693v.03c-.003 2.135-1.443 4.29-4.24 4.677l-.498.026H30.722v6.29h-3.154zM67.964 8.944l-.526-.023-10.063-.008-.3-.02c-.865-.18-1.27-.843-1.28-1.54.01-.697.412-1.358 1.306-1.544l.275-.022L71.3 5.79V2.622H57.375l-.498.027c-2.797.385-4.238 2.54-4.24 4.676v.031c-.007 2.14 1.435 4.31 4.212 4.695l.525.023 10.064.01.3.02c.864.18 1.27.843 1.28 1.54-.01.697-.413 1.358-1.307 1.544l-.274.02h-14.8v3.165l14.8-.003.498-.026c2.797-.387 4.238-2.542 4.24-4.678V13.638c.005-2.142-1.435-4.31-4.214-4.696M156.99 4.202c0-1.095.787-1.702 1.754-1.702s1.755.608 1.755 1.702-.79 1.707-1.756 1.707c-.967 0-1.755-.614-1.755-1.708m3.135 0c0-.877-.54-1.374-1.38-1.374-.84 0-1.38.497-1.38 1.374 0 .89.54 1.38 1.38 1.38.84 0 1.38-.49 1.38-1.38m-1.264.29h-.496v.71h-.35V3.213h.847c.5 0 .662.29.662.64 0 .23-.1.47-.307.575l.423.77h-.412l-.365-.707zm.012-.957h-.508v.64h.508c.232 0 .275-.18.275-.322 0-.138-.043-.318-.275-.318"/></g></svg>