<?xml version="1.0" encoding="utf-8"?>
<!-- Generator: Adobe Illustrator 17.0.0, SVG Export Plug-In . SVG Version: 6.00 Build 0)  -->
<!DOCTYPE svg PUBLIC "-//W3C//DTD SVG 1.1//EN" "http://www.w3.org/Graphics/SVG/1.1/DTD/svg11.dtd">
<svg version="1.1" id="Layer_1" xmlns="http://www.w3.org/2000/svg" xmlns:xlink="http://www.w3.org/1999/xlink" x="0px" y="0px"
	 width="124.003px" height="17px" viewBox="0 0 124.003 17" enable-background="new 0 0 124.003 17" xml:space="preserve">
<polygon id="check-mark-icon" fill="#58595B" points="-1687.569,1323.709 -1727.267,1363.407 -1744.462,1346.207 
	-1757.213,1358.961 -1727.266,1388.915 -1674.813,1336.457 "/>
<polygon id="x-mark-icon" fill="#58595B" points="-1449.134,1380.031 -1472.861,1356.307 -1449.137,1332.582 -1461.894,1319.833 
	-1485.614,1343.557 -1509.338,1319.837 -1522.091,1332.583 -1498.364,1356.309 -1522.088,1380.037 -1509.342,1392.791 
	-1485.612,1369.059 -1461.882,1392.788 "/>
<polygon id="x-mark-icon_1_" fill="#58595B" points="-1212.455,1347.289 -1246.008,1347.292 -1246.009,1313.739 -1264.043,1313.745 
	-1264.041,1347.293 -1297.589,1347.295 -1297.594,1365.326 -1264.039,1365.325 -1264.037,1398.88 -1246.006,1398.885 
	-1246.007,1365.324 -1212.449,1365.324 "/>
<polygon id="x-mark-icon_2_" fill="#58595B" points="-981.17,1347.401 -1066.304,1347.408 -1066.31,1365.439 -981.164,1365.436 "/>
<path id="menu-icon" fill="#58595B" d="M-753.24,1338.178h-82.4v-13h82.4V1338.178z M-753.24,1350.178h-82.4v13h82.4V1350.178z
	 M-753.24,1375.178h-82.4v13h82.4V1375.178z"/>
<polygon id="arrow-25-icon" fill="#58595B" points="-1281.038,1556.489 -1270.009,1545.512 -1229.005,1586.712 -1270.009,1627.912 
	-1281.038,1616.935 -1250.959,1586.712 "/>
<path id="menu-2-icon" fill="#58595B" d="M-820.966,1616.906h-14.605v-13h14.605V1616.906z M-820.966,1578.906h-14.605v13h14.605
	V1578.906z M-820.966,1553.906h-14.605v13h14.605V1553.906z M-811.966,1553.906v13h58.795v-13H-811.966z M-811.966,1591.906h58.795
	v-13h-58.795V1591.906z M-811.966,1616.906h58.795v-13h-58.795V1616.906z"/>
<path id="warning-4-icon" fill="#58595B" d="M-1730.336,1782.725h16.678v50.581h-16.678V1782.725L-1730.336,1782.725z
	 M-1721.997,1858.787c-4.971,0-9-4.03-9-9c0-4.971,4.03-9,9-9c4.97,0,9,4.03,9,9
	C-1712.997,1854.758-1717.027,1858.787-1721.997,1858.787z"/>
<path id="help-icon" fill="#58595B" d="M-1484.92,1858.312c-4.973,0-9.006-4.033-9.006-9.008c0-4.972,4.033-9.004,9.006-9.004
	c4.974,0,9.006,4.032,9.006,9.004C-1475.914,1854.279-1479.946,1858.312-1484.92,1858.312z M-1477.84,1831.692v1.62
	c0,0-13.503,0-14.846,0v-1.62c0-4.584,0.669-10.465,5.991-15.578c5.323-5.113,11.974-9.337,11.974-15.725
	c0-7.062-4.901-10.797-11.08-10.797c-10.297,0-10.969,10.679-11.223,13.03h-14.44c0.385-11.135,5.091-26.71,25.749-26.71
	c17.903,0,25.951,11.99,25.951,23.233C-1459.763,1817.041-1477.84,1820.15-1477.84,1831.692z"/>
<path id="refresh-3-icon" fill="#58595B" d="M-1231.768,1793.354l-7.45,7.451c-4.045-4.045-9.632-6.546-15.804-6.546
	c-12.344,0-22.35,10.011-22.35,22.355c0,0.003,0-0.003,0,0h8.682l-13.868,13.863l-13.854-13.863h8.503c0-0.002,0,0.001,0,0
	c0-18.163,14.724-32.892,32.887-32.892C-1245.941,1783.721-1237.719,1787.402-1231.768,1793.354z M-1214.013,1815.465
	l-13.854-13.863l-13.868,13.863h8.682c0,0.003,0-0.003,0,0c0,12.344-10.007,22.355-22.35,22.355c-6.172,0-11.759-2.502-15.804-6.546
	l-7.45,7.451c5.952,5.951,14.173,9.632,23.255,9.632c18.163,0,32.887-14.729,32.887-32.892c0-0.001,0,0.002,0,0L-1214.013,1815.465
	L-1214.013,1815.465z"/>
<path id="magnifier-2-icon" fill="#58595B" d="M-983.942,1850.23l-21.302-21.302c4.008-5.511,6.377-12.287,6.377-19.607
	c0-18.421-14.987-33.408-33.409-33.408c-18.421,0-33.408,14.987-33.408,33.408c0,18.421,14.987,33.408,33.408,33.408
	c6.982,0,13.47-2.155,18.837-5.832l21.415,21.415L-983.942,1850.23z M-1055.886,1809.32c0-13.019,10.592-23.611,23.611-23.611
	c13.02,0,23.611,10.592,23.611,23.611c0,13.019-10.592,23.611-23.611,23.611C-1045.295,1832.932-1055.886,1822.34-1055.886,1809.32z
	"/>
<path id="download-2-icon" fill="#58595B" d="M-778.85,1811.104h13.252l-28.815,28.864l-28.814-28.864h13.251v-36.265h31.127
	L-778.85,1811.104L-778.85,1811.104z M-770.566,1834.204v13.034h-47.694v-13.034h-10v23.034h67.695v-23.034H-770.566z"/>
<path id="blank-file-2-icon" fill="#58595B" d="M-1477.249,2014.312v17.15h17.173v49.25h-51.073v-66.4H-1477.249
	 M-1472.249,2006.312h-46.9v82.4h67.073v-62.25L-1472.249,2006.312z"/>
<path id="folder-icon" fill="#58595B" d="M-1261.395,2023.965c-2.552,0-5.001-1.011-6.81-2.812l-6.538-6.509h-21.67v65.736h82.4
	v-56.415H-1261.395z"/>
<path id="email-3-icon" fill="#58595B" d="M-1024.809,2050.999l-41.034-34.006h82.181L-1024.809,2050.999z M-1024.816,2062.092
	l-41.197-34.131v50.07h82.4v-49.988L-1024.816,2062.092z"/>
<path id="location-5-icon" fill="#58595B" d="M-794.413,2006.312c-18.612,0-33.7,15.088-33.7,33.7c0,18.9,16.386,31.367,33.7,48.7
	c17.314-17.333,33.7-29.8,33.7-48.7C-760.713,2021.4-775.8,2006.312-794.413,2006.312z"/>
<path id="laptop-5-icon" fill="#58595B" d="M-1765.905,2302.903v7.93h99v-7.93H-1765.905z M-1675.288,2299.298v-54.306h-82.1v54.306
	H-1675.288z M-1681.776,2251.48v41.291h-69.124v-41.291H-1681.776z"/>
<path id="server-3-icon" fill="#58595B" d="M-1214.013,2266.774h-82.4v20.653h82.4V2266.774z M-1290.932,2281.63l3.623-9.059h4.377
	l-3.623,9.059H-1290.932z M-1283.838,2281.63l3.623-9.059h4.377l-3.623,9.059H-1283.838z M-1276.744,2281.63l3.623-9.059h4.377
	l-3.623,9.059H-1276.744z M-1223.796,2280.126c-1.67,0-3.025-1.354-3.025-3.025c0-1.671,1.355-3.025,3.025-3.025
	c1.671,0,3.026,1.354,3.026,3.025C-1220.77,2278.771-1222.125,2280.126-1223.796,2280.126z M-1218.555,2261.34h-73.138l14.424-19.03
	h44.113L-1218.555,2261.34z M-1214.013,2292.862h-82.4v20.653h82.4V2292.862z M-1290.932,2307.718l3.623-9.059h4.377l-3.623,9.059
	H-1290.932z M-1283.838,2307.718l3.623-9.059h4.377l-3.623,9.059H-1283.838z M-1276.744,2307.718l3.623-9.059h4.377l-3.623,9.059
	H-1276.744z M-1223.796,2306.213c-1.67,0-3.025-1.354-3.025-3.025c0-1.671,1.355-3.025,3.025-3.025c1.671,0,3.026,1.354,3.026,3.025
	C-1220.77,2304.859-1222.125,2306.213-1223.796,2306.213z"/>
<g>
	<polygon fill="#58595B" points="-1033.723,2294.178 -1025.749,2272.703 -1032.484,2272.703 -1037.255,2288.157 -1042.089,2272.703 
		-1049.025,2272.703 -1040.915,2294.178 	"/>
	<polygon fill="#58595B" points="-1018.22,2277.801 -1014.04,2294.178 -1009.121,2294.178 -1004.934,2277.801 -1004.934,2294.178 
		-999.499,2294.178 -999.499,2272.703 -1008.221,2272.703 -1011.562,2285.77 -1014.927,2272.703 -1023.654,2272.703 
		-1023.654,2294.178 -1018.22,2294.178 	"/>
	<path fill="#58595B" d="M-1066.937,2242.146v71.531h86.4v-71.531H-1066.937z M-1038.337,2245.978c1.988,0,3.6,1.612,3.6,3.6
		c0,1.988-1.612,3.6-3.6,3.6c-1.988,0-3.6-1.612-3.6-3.6C-1041.937,2247.59-1040.325,2245.978-1038.337,2245.978z
		 M-1048.337,2245.978c1.988,0,3.6,1.612,3.6,3.6c0,1.988-1.612,3.6-3.6,3.6c-1.988,0-3.6-1.612-3.6-3.6
		C-1051.937,2247.59-1050.325,2245.978-1048.337,2245.978z M-1058.337,2245.978c1.988,0,3.6,1.612,3.6,3.6
		c0,1.988-1.612,3.6-3.6,3.6c-1.988,0-3.6-1.612-3.6-3.6C-1061.937,2247.59-1060.325,2245.978-1058.337,2245.978z
		 M-985.577,2308.478h-76.32v-51.11h76.32V2308.478z"/>
</g>
<path fill="#58595B" d="M-794.372,2236.696c-19.882,0-36,16.118-36,36v46.408l12.829-12.816l11.629,11.628l11.592-11.592
	l11.438,11.437l11.566-11.566l12.947,12.934v-46.433C-758.372,2252.813-774.49,2236.696-794.372,2236.696z M-808.772,2283.428
	c-5.965,0-10.8-4.835-10.8-10.8s4.835-10.8,10.8-10.8c5.965,0,10.8,4.835,10.8,10.8S-802.807,2283.428-808.772,2283.428z
	 M-779.972,2283.428c-5.965,0-10.8-4.835-10.8-10.8s4.835-10.8,10.8-10.8c5.965,0,10.8,4.835,10.8,10.8
	S-774.007,2283.428-779.972,2283.428z"/>
<path id="shield-icon" fill="#58595B" d="M-1716.435,2467.112c-10.284,10.283-25.033,13.4-37.1,13.4c0,29.467,16.733,55.6,37.1,69
	c20.367-13.4,37.1-39.533,37.1-69C-1691.401,2480.512-1706.151,2477.396-1716.435,2467.112z"/>
<path id="firewall-icon" fill="#58595B" d="M-1451.977,2508.984c-1.246,5.315-7.102,10.548-10.963,10.583
	c4.064-9.291,4.795-23.691-3.875-35.767c-0.86,6.204-4.723,10.315-8.834,11.437c4.361-15.325-11.171-29.461-24.642-30.816
	c8.052,20.089-27.438,31.19-5.96,57.169c-3.37-0.147-11.344-2.804-12.857-12.031c-3.761,17.324,6.331,39.378,24.124,41.291
	c7.582,0,14.085,0,18.349,0C-1465.696,2550.85-1447.712,2534.456-1451.977,2508.984z"/>
<path id="lock-icon" fill="#58595B" d="M-1277.73,2501.779v-12.533c0-12.204,9.929-22.134,22.133-22.134
	c12.204,0,22.133,9.929,22.133,22.134v12.533h-10v-12.533c0-6.69-5.443-12.134-12.133-12.134c-6.69,0-12.133,5.443-12.133,12.134
	v12.533H-1277.73z M-1285.197,2507.779v41.733h59.2v-41.733H-1285.197z"/>
<path fill="#58595B" d="M-998.097,2497.199c-4.399-13.587-17.157-23.412-32.209-23.412c-18.694,0-33.848,15.155-33.848,33.848
	c0,2.697,0.316,5.321,0.912,7.835h25.101v25.101c2.515,0.596,5.138,0.912,7.835,0.912c14.879,0,27.515-9.6,32.053-22.944
	l15.098,10.922v-43.654L-998.097,2497.199z M-1044.789,2504.43c-3.786,0-6.856-3.069-6.856-6.856s3.069-6.856,6.856-6.856
	c3.786,0,6.856,3.07,6.856,6.856S-1041.002,2504.43-1044.789,2504.43z"/>
<path id="user-6-icon" fill="#58595B" d="M-770.161,2485.682c0,13.255-10.745,24-24,24c-13.255,0-24-10.745-24-24
	c0-13.255,10.745-24,24-24C-780.906,2461.682-770.161,2472.427-770.161,2485.682z M-774.352,2510.814
	c-5.594,4.417-12.527,6.868-19.809,6.868c-7.367,0-14.368-2.509-19.987-7.01c-14.811,5.435-21.424,24.436-21.424,33.11h82.4
	C-753.172,2535.182-759.836,2516.317-774.352,2510.814z"/>
<g>
	<path fill="#58595B" d="M-1751.078,2703.647L-1751.078,2703.647c-6.032,6.032-6.032,15.903,0,21.935l8.434,8.434l21.935-21.935
		l-8.434-8.434C-1735.175,2697.615-1745.046,2697.615-1751.078,2703.647z"/>
	<path fill="#58595B" d="M-1680.947,2751.842l-8.434-8.434l-21.935,21.935l8.434,8.434c6.032,6.032,15.903,6.032,21.935,0l0,0
		C-1674.915,2767.745-1674.915,2757.875-1680.947,2751.842z"/>
	<path fill="#58595B" d="M-1738.937,2737.724l23.912,23.912l21.935-21.935l-23.912-23.912L-1738.937,2737.724z M-1700.717,2736.923
		c1.266,1.266,1.266,3.319,0,4.585c-1.266,1.266-3.319,1.266-4.585,0c-1.266-1.266-1.266-3.319,0-4.585
		S-1701.983,2735.657-1700.717,2736.923z M-1706.724,2742.93c1.266,1.266,1.266,3.319,0,4.585c-1.266,1.266-3.319,1.266-4.585,0
		s-1.266-3.319,0-4.585C-1710.043,2741.664-1707.99,2741.664-1706.724,2742.93z M-1712.731,2748.938
		c1.266,1.266,1.266,3.319,0,4.585c-1.266,1.266-3.319,1.266-4.585,0c-1.266-1.266-1.266-3.319,0-4.585
		C-1716.05,2747.672-1713.998,2747.672-1712.731,2748.938z M-1707.33,2730.31c1.266,1.266,1.266,3.319,0,4.585
		c-1.266,1.266-3.319,1.266-4.585,0c-1.266-1.266-1.266-3.319,0-4.585C-1710.649,2729.044-1708.596,2729.044-1707.33,2730.31z
		 M-1713.337,2736.318c1.266,1.266,1.266,3.319,0,4.585c-1.266,1.266-3.319,1.266-4.585,0c-1.266-1.266-1.266-3.319,0-4.585
		C-1716.656,2735.052-1714.603,2735.052-1713.337,2736.318z M-1719.344,2742.325c1.266,1.266,1.266,3.319,0,4.585
		c-1.266,1.266-3.319,1.266-4.585,0c-1.266-1.266-1.266-3.319,0-4.585C-1722.663,2741.059-1720.61,2741.059-1719.344,2742.325z
		 M-1714.224,2723.416c1.266,1.266,1.266,3.319,0,4.585s-3.319,1.266-4.585,0c-1.266-1.266-1.266-3.319,0-4.585
		C-1717.543,2722.15-1715.49,2722.15-1714.224,2723.416z M-1720.231,2729.424c1.266,1.266,1.266,3.319,0,4.585
		c-1.266,1.266-3.319,1.266-4.585,0c-1.266-1.266-1.266-3.319,0-4.585C-1723.55,2728.157-1721.497,2728.157-1720.231,2729.424z
		 M-1726.238,2735.431c1.266,1.266,1.266,3.319,0,4.585c-1.266,1.266-3.319,1.266-4.585,0s-1.266-3.319,0-4.585
		S-1727.504,2734.165-1726.238,2735.431z"/>
</g>
<g>
	<polygon fill="#58595B" points="-1523.286,2703.317 -1463.429,2703.316 -1463.429,2708.117 -1457.903,2708.117 -1457.903,2697.791 
		-1528.813,2697.791 -1528.813,2752.612 -1518.486,2752.612 -1518.486,2743.644 -1523.286,2743.644 	"/>
	<polygon fill="#58595B" points="-1487.918,2772.387 -1495.165,2779.634 -1460.57,2779.634 -1467.818,2772.387 	"/>
	<path fill="#58595B" d="M-1513.323,2713.281v54.822h70.91v-54.822H-1513.323z M-1507.797,2718.807l59.857,0v40.328h-59.857
		L-1507.797,2718.807z"/>
</g>
<path id="virus-icon" fill="#58595B" d="M-1220.775,2731.759c-1.561,0-3.001,0.514-4.161,1.383
	c-2.381,1.782-5.277,2.751-8.251,2.751c-2.425,0-4.627-1.417-5.63-3.625c-1.158-2.543-0.517-5.257,1.228-7.001
	c2.11-2.11,4.827-3.465,7.78-3.889c1.434-0.206,2.816-0.861,3.92-1.964c2.716-2.716,2.715-7.118,0-9.834
	c-2.715-2.715-7.118-2.716-9.834,0c-1.104,1.104-1.758,2.485-1.964,3.92c-0.423,2.944-1.785,5.677-3.888,7.78
	c-1.776,1.776-4.45,2.307-6.769,1.343c-0.008-0.003-0.016-0.007-0.024-0.01c-2.319-0.959-3.834-3.224-3.834-5.734
	c0-2.984,0.963-5.863,2.751-8.252c0.868-1.16,1.383-2.6,1.383-4.161c0-3.841-3.113-6.954-6.954-6.954
	c-3.84,0-6.953,3.113-6.953,6.953c0,1.561,0.514,3,1.383,4.161c1.782,2.381,2.751,5.276,2.751,8.25c0,2.51-1.514,4.776-3.834,5.735
	c-0.008,0.003-0.016,0.007-0.024,0.01c-2.319,0.963-4.993,0.433-6.768-1.342c-2.11-2.11-3.465-4.826-3.889-7.781
	c-0.206-1.434-0.861-2.816-1.964-3.92c-2.715-2.716-7.118-2.715-9.833,0c-2.716,2.716-2.716,7.118,0,9.834
	c1.103,1.104,2.485,1.758,3.92,1.964c2.944,0.423,5.677,1.786,7.78,3.889c1.776,1.776,2.306,4.45,1.343,6.769
	c-0.003,0.008-0.007,0.016-0.01,0.024c-0.959,2.32-3.225,3.834-5.735,3.834c-2.985,0-5.862-0.963-8.251-2.751
	c-1.16-0.868-2.6-1.383-4.161-1.383c-3.84,0-6.953,3.113-6.953,6.954c0,3.84,3.113,6.953,6.953,6.953
	c1.561,0,3.001-0.514,4.161-1.383c2.38-1.782,5.276-2.751,8.25-2.751c2.51,0,4.776,1.514,5.735,3.834
	c0.003,0.008,0.007,0.016,0.01,0.024c0.963,2.319,0.433,4.993-1.342,6.768c-2.11,2.11-4.826,3.465-7.78,3.889
	c-1.434,0.206-2.816,0.861-3.92,1.965c-2.715,2.716-2.715,7.118,0,9.833c2.715,2.716,7.118,2.716,9.834,0
	c1.104-1.104,1.758-2.486,1.964-3.92c0.423-2.943,1.786-5.676,3.889-7.779c1.776-1.776,4.449-2.307,6.769-1.343
	c0.008,0.003,0.016,0.007,0.024,0.01c2.319,0.959,3.834,3.224,3.834,5.734c0,2.984-0.963,5.863-2.751,8.252
	c-0.868,1.16-1.383,2.6-1.383,4.161c0,3.84,3.113,6.953,6.953,6.953c3.84,0,6.954-3.113,6.954-6.953c0-1.565-0.517-3.009-1.39-4.171
	c-1.778-2.365-2.744-5.245-2.744-8.204c0-2.504,1.506-4.888,4.055-5.851c2.277-0.863,4.849-0.311,6.571,1.411
	c2.11,2.11,3.466,4.827,3.89,7.781c0.206,1.434,0.861,2.816,1.964,3.92c2.716,2.716,7.118,2.716,9.834,0
	c2.716-2.715,2.716-7.118,0-9.833c-1.107-1.107-2.494-1.762-3.932-1.966c-2.93-0.416-5.65-1.77-7.743-3.863
	c-1.788-1.788-2.324-4.479-1.358-6.815c0,0,0-0.001,0.001-0.002c0.959-2.32,3.224-3.834,5.734-3.834
	c2.984,0,5.862,0.962,8.252,2.751c1.16,0.868,2.6,1.383,4.161,1.383c3.84,0,6.953-3.113,6.953-6.953
	C-1213.822,2734.872-1216.935,2731.759-1220.775,2731.759z M-1261.767,2747.891c-1.878,0-3.4-1.522-3.4-3.4
	c0-1.878,1.522-3.4,3.4-3.4c1.878,0,3.4,1.522,3.4,3.4C-1258.367,2746.369-1259.89,2747.891-1261.767,2747.891z M-1257.434,2737.1
	c-2.945,0-5.333-2.388-5.333-5.333s2.388-5.333,5.333-5.333c2.946,0,5.334,2.388,5.334,5.333S-1254.489,2737.1-1257.434,2737.1z
	 M-1247.384,2747.291c-2.494,0-4.517-2.022-4.517-4.517c0-2.495,2.022-4.517,4.517-4.517c2.494,0,4.517,2.022,4.517,4.517
	C-1242.867,2745.269-1244.89,2747.291-1247.384,2747.291z"/>
<path id="cursor-pointer-icon" fill="#58595B" d="M-1042.318,2704.203v37.77c-3.196-3.479-8.721-7.629-14.124-7.305
	c-6.482,0.388-7.713,7.329-2.112,12.573c9.428,8.828,18.915,21.854,21.033,32.648c0,0,28.129,0,36.882,0
	c0-21.759,7.032-26.383,8.311-37.741c0.957-8.498-1.327-15.144-8.205-16.123l0.948,2.686c0.365,1.202-0.315,2.473-1.518,2.837
	c-1.204,0.364-2.474-0.315-2.838-1.519l-0.904-2.501c-0.947-3.128-3.854-3.542-8.169-4.116l1.128,3.32
	c0.365,1.203-0.316,2.474-1.52,2.839c-1.202,0.363-2.473-0.316-2.837-1.52l-0.817-2.569c-0.979-3.232-3.615-3.583-8.396-4.311
	l1.07,3.566c1,3.305-5.307,4.902-5.307-4.309v-16.225c0-3.708-2.606-6.714-6.314-6.714
	C-1039.712,2697.489-1042.318,2700.495-1042.318,2704.203z"/>
<path id="cloud-icon" fill="#58595B" d="M-758.369,2734.195c-1.978-24.905-34.772-33.112-48.176-11.785
	c-8.694-4.916-19.782,0.868-20.477,11.029c-9.532,1.167-16.916,9.285-16.916,19.133c0,10.649,8.633,19.282,19.282,19.282h60.435
	c10.649,0,19.282-8.633,19.282-19.282C-744.938,2743.962-750.581,2736.673-758.369,2734.195z"/>
<path id="danger-icon" fill="#58595B" d="M-1697.007,3914.489c3.568-2.42,6.634-5.434,9.128-8.974l12.493,12.493l-9.051,9.051
	L-1697.007,3914.489z M-1757.786,3918.008l12.462-12.461c2.494,3.54,5.559,6.554,9.128,8.974l-12.538,12.538L-1757.786,3918.008z
	 M-1687.463,3865.787c-2.427-3.575-5.437-6.645-8.963-9.139l11.989-11.989l9.051,9.051L-1687.463,3865.787z M-1757.786,3853.71
	l9.051-9.051l11.973,11.973c-3.526,2.495-6.536,5.564-8.963,9.139L-1757.786,3853.71z M-1716.586,3856.279
	c-16.071,0-29.098,13.028-29.098,29.098c0,11.831,7.061,22.012,17.198,26.561v7.12c0.709,1.19,2.658,2.05,5.158,2.58v-4.101h4v4.643
	c1.817,0.13,3.718,0.129,5.533-0.004v-4.639h4v4.09c2.476-0.531,4.404-1.387,5.108-2.569v-7.121
	c10.138-4.549,17.198-14.73,17.198-26.561C-1687.488,3869.307-1700.516,3856.279-1716.586,3856.279z M-1729.336,3896.276
	c-5.112,0-9.256-4.144-9.256-9.257c0-5.113,4.144-9.257,9.256-9.257c5.112,0,9.257,4.144,9.257,9.257
	C-1720.08,3892.132-1724.224,3896.276-1729.336,3896.276z M-1722.531,3903.587l6.129-8.475l0.006,0.01l0.006-0.01l6.147,8.475
	H-1722.531L-1722.531,3903.587z M-1703.436,3896.276c-5.112,0-9.256-4.144-9.256-9.257c0-5.113,4.144-9.257,9.256-9.257
	c5.112,0,9.257,4.144,9.257,9.257C-1694.18,3892.132-1698.324,3896.276-1703.436,3896.276z"/>
<path id="danger-3-icon" fill="#58595B" d="M-1480.683,3877.808l7.433-12.874c7.388,4.274,12.358,12.262,12.358,21.411h-14.856
	C-1475.749,3882.702-1477.736,3879.515-1480.683,3877.808z M-1490.542,3894.884l-7.432,12.873c3.637,2.104,7.859,3.308,12.362,3.308
	s8.726-1.204,12.362-3.308l-7.432-12.874C-1483.668,3896.614-1487.429,3896.688-1490.542,3894.884z M-1490.542,3877.808
	l-7.433-12.873c-7.388,4.274-12.358,12.262-12.358,21.411h14.856C-1495.477,3882.702-1493.489,3879.515-1490.542,3877.808z
	 M-1485.613,3892.01c3.128,0,5.664-2.536,5.664-5.664c0-3.128-2.536-5.664-5.664-5.664s-5.664,2.536-5.664,5.664
	C-1491.277,3889.474-1488.741,3892.01-1485.613,3892.01z M-1444.413,3886c0,22.754-18.446,41.2-41.2,41.2
	c-22.754,0-41.2-18.446-41.2-41.2s18.446-41.2,41.2-41.2C-1462.859,3844.8-1444.413,3863.246-1444.413,3886z M-1452.413,3886
	c0-18.351-14.852-33.2-33.2-33.2c-18.351,0-33.2,14.852-33.2,33.2c0,18.351,14.852,33.2,33.2,33.2
	C-1467.262,3919.2-1452.413,3904.348-1452.413,3886z"/>
<path id="time-icon" fill="#58595B" d="M-1232.822,3893.9h-27.9v-30.7h9v21.7h18.9V3893.9z M-1255.022,3853.8
	c-17.798,0-32.2,14.404-32.2,32.2c0,17.798,14.405,32.2,32.2,32.2c17.798,0,32.2-14.405,32.2-32.2
	C-1222.822,3868.201-1237.226,3853.8-1255.022,3853.8 M-1255.022,3844.8c22.754,0,41.2,18.446,41.2,41.2s-18.446,41.2-41.2,41.2
	c-22.754,0-41.2-18.446-41.2-41.2S-1277.776,3844.8-1255.022,3844.8z"/>
<path id="time-4-icon" fill="#58595B" d="M-1024.388,3865.775v20.25h18.09v8.1h-26.19v-28.35H-1024.388z M-1027.034,3844.8
	c-11.243,0-22.232,4.505-29.666,11.807l-7.093-7.093l-4.606,25.235l25.235-4.606l-7.172-7.172
	c5.805-5.673,14.544-9.171,23.302-9.171c17.784,0,32.2,14.416,32.2,32.2s-14.416,32.2-32.2,32.2
	c-17.733,0-32.116-14.334-32.198-32.048l-8.959,1.692c0.965,21.898,19.021,39.355,41.157,39.355c22.754,0,41.2-18.446,41.2-41.2
	S-1004.28,3844.8-1027.034,3844.8z"/>
<path id="dashboard-3-icon" fill="#58595B" d="M-757.797,3889.9c0-22.754-18.446-41.2-41.2-41.2c-22.754,0-41.2,18.446-41.2,41.2
	c0,8.868,2.803,17.082,7.569,23.804h14.961c3.194,5.656,10.351,9.596,18.67,9.596c8.318,0,15.476-3.94,18.67-9.596h14.961
	C-760.6,3906.982-757.797,3898.768-757.797,3889.9z M-773.222,3867.802l-7.563,7.563c-1.085-1.358-2.319-2.592-3.677-3.677
	l7.563-7.563C-775.585,3865.253-774.35,3866.487-773.222,3867.802z M-788.432,3857.624c1.642,0.538,3.255,1.207,4.802,1.994
	l-4.097,9.883c-1.521-0.842-3.133-1.51-4.803-1.992L-788.432,3857.624z M-801.597,3856.047c0.877-0.067,1.75-0.101,2.6-0.101
	c0.85,0,1.723,0.034,2.6,0.101v10.695c-0.863-0.096-1.736-0.144-2.6-0.144c-0.864,0-1.737,0.049-2.6,0.144V3856.047z
	 M-802.875,3891.893l3.878-18.174l3.878,18.174c2.47,1.367,4.144,3.999,4.144,7.022c0,4.43-3.591,8.021-8.021,8.021
	c-4.43,0-8.021-3.591-8.021-8.021C-807.018,3895.891-805.345,3893.26-802.875,3891.893z M-809.691,3857.667l4.137,9.868
	c-1.668,0.488-3.277,1.163-4.795,2.012l-4.137-9.867C-812.943,3858.888-811.333,3858.212-809.691,3857.667z M-821.096,3864.125
	l7.563,7.563c-1.358,1.085-2.592,2.319-3.677,3.677l-7.563-7.563C-823.644,3866.487-822.41,3865.253-821.096,3864.125z
	 M-831.275,3879.34c0.538-1.643,1.207-3.255,1.993-4.803l9.884,4.095c-0.842,1.521-1.51,3.133-1.991,4.804L-831.275,3879.34z
	 M-776.708,3883.086c-0.507-1.659-1.201-3.26-2.068-4.771l9.82-4.25c0.807,1.529,1.501,3.131,2.066,4.772L-776.708,3883.086z"/>
<path id="gamepad-7-icon" fill="#58595B" d="M-1669.649,2984.27l-8.791-36.226c-0.769-3.077-3.533-5.235-6.704-5.235h-58.32
	c-3.171,0-5.935,2.158-6.704,5.235l-8.791,36.226c-2.444,9.776,8.651,14.609,15.092,8.168l11.215-11.219
	c1.66-1.984,4.114-3.131,6.701-3.131h23.293c2.587,0,5.041,1.146,6.701,3.131l11.215,11.219
	C-1678.299,2998.878-1667.205,2994.045-1669.649,2984.27z M-1726.003,2962.908h-5.984v5.983h-4.735v-5.983h-5.984v-4.735h5.984
	v-5.983h4.735v5.983h5.984V2962.908z M-1711.105,2968.493h-6.441v-2.784h6.441V2968.493z M-1697.984,2962.547
	c-1.109,1.109-2.908,1.109-4.018,0c-1.11-1.11-1.11-2.908,0-4.019c1.11-1.109,2.909-1.109,4.018,0
	C-1696.874,2959.638-1696.874,2961.437-1697.984,2962.547z M-1691.699,2968.334c-1.109,1.11-2.909,1.11-4.019,0
	c-1.109-1.11-1.109-2.909,0-4.018c1.11-1.109,2.909-1.109,4.019,0C-1690.589,2965.425-1690.589,2967.224-1691.699,2968.334z
	 M-1691.699,2956.865c-1.109,1.109-2.909,1.109-4.019,0c-1.109-1.11-1.109-2.909,0-4.018c1.11-1.11,2.909-1.11,4.019,0
	C-1690.589,2953.957-1690.589,2955.756-1691.699,2956.865z M-1685.432,2962.547c-1.11,1.109-2.909,1.109-4.018,0
	c-1.109-1.11-1.109-2.908,0-4.019c1.109-1.109,2.908-1.109,4.018,0C-1684.323,2959.638-1684.323,2961.437-1685.432,2962.547z"/>
<path id="gear-icon" fill="#58595B" d="M-1444.413,2974.661v-11.097l-5.996-2.132c-2.286-0.813-4.126-2.559-5.055-4.8
	c0-0.001-0.001-0.002-0.001-0.002c-0.932-2.247-0.867-4.784,0.178-6.981l2.731-5.745l-7.847-7.847l-5.744,2.73
	c-2.196,1.044-4.736,1.109-6.982,0.178c-0.001,0-0.002,0-0.003-0.001c-2.243-0.93-3.987-2.767-4.8-5.055l-2.133-5.997h-11.097
	l-2.132,5.996c-0.813,2.286-2.559,4.125-4.8,5.055c-0.001,0-0.002,0.001-0.003,0.001c-2.247,0.932-4.784,0.867-6.981-0.178
	l-5.745-2.731l-7.847,7.847l2.731,5.744c1.044,2.196,1.109,4.736,0.178,6.982c0,0-0.001,0.002-0.001,0.003
	c-0.93,2.243-2.767,3.986-5.054,4.8l-5.997,2.133v11.097l5.996,2.132c2.286,0.813,4.125,2.559,5.055,4.8
	c0,0.001,0.001,0.002,0.001,0.002c0.932,2.248,0.867,4.785-0.177,6.982l-2.731,5.745l7.847,7.847l5.744-2.73
	c2.196-1.044,4.736-1.109,6.982-0.178c0.001,0,0.002,0.001,0.002,0.001c2.244,0.93,3.987,2.767,4.8,5.055l2.133,5.997h11.097
	l2.119-5.958c0.821-2.308,2.582-4.165,4.843-5.105c0.001,0,0.002-0.001,0.003-0.001c2.225-0.926,4.739-0.862,6.916,0.173l5.78,2.748
	l7.847-7.847l-2.732-5.747c-1.043-2.194-1.108-4.732-0.177-6.975c0-0.001,0.001-0.002,0.001-0.003
	c0.931-2.245,2.77-3.99,5.059-4.804L-1444.413,2974.661z M-1485.613,2987.021c-9.891,0-17.91-8.018-17.91-17.909
	c0-9.891,8.018-17.909,17.91-17.909c9.891,0,17.909,8.019,17.909,17.909C-1467.703,2979.003-1475.722,2987.021-1485.613,2987.021z"
	/>
<path id="wrench-icon" fill="#58595B" d="M-1217.379,2992.902l-33.137-33.137c-2.271-2.271-3.44-5.428-3.192-8.63
	c0.469-6.065-1.615-12.29-6.254-16.929c-6.038-6.038-14.764-7.748-22.326-5.133l13.729,13.729
	c0.315,5.356-7.966,13.638-13.322,13.322l-13.729-13.729c-2.615,7.562-0.905,16.288,5.133,22.326
	c4.639,4.639,10.864,6.722,16.929,6.254c3.205-0.248,6.357,0.92,8.63,3.192l33.137,33.137c3.977,3.977,10.425,3.977,14.403,0
	C-1213.402,3003.327-1213.402,2996.879-1217.379,2992.902z M-1225.077,3003.679c-2.318,0-4.197-1.879-4.197-4.197
	s1.879-4.197,4.197-4.197c2.318,0,4.197,1.879,4.197,4.197C-1220.88,3001.8-1222.759,3003.679-1225.077,3003.679z"/>
<polygon id="arrow-37-icon" fill="#58595B" points="-990.221,2969.605 -1049.82,3010.805 -1049.82,2928.405 "/>
<path id="pause-icon" fill="#58595B" d="M-802.102,3010.288h-24v-82.4h24V3010.288z M-762.774,2927.887h-24v82.4h24V2927.887z"/>
<path id="share-4-icon_1_" fill="#58595B" d="M-1740.831,3212.212c7.329-31.917,43.829-39.344,43.829-39.344v-9.826l21.767,21.731
	l-21.767,21.732v-9.826C-1697.002,3196.68-1725.227,3195.505-1740.831,3212.212z M-1696.825,3216.221v8.006h-52.608v-34.074h11.512
	c2.3-2.963,4.912-5.697,7.796-8.202h-27.51v50.479h69.012v-24.397L-1696.825,3216.221z"/>
<path id="twitter-icon" fill="#58595B" d="M-1444.413,3173.957c-3.032,1.345-6.29,2.254-9.709,2.662
	c3.49-2.092,6.171-5.405,7.433-9.353c-3.267,1.937-6.884,3.344-10.735,4.102c-3.084-3.286-7.477-5.338-12.34-5.338
	c-10.912,0-18.934,10.183-16.467,20.757c-14.05-0.705-26.507-7.435-34.845-17.663c-4.428,7.597-2.297,17.538,5.232,22.57
	c-2.771-0.088-5.378-0.848-7.657-2.115c-0.183,7.832,5.429,15.156,13.559,16.79c-2.379,0.647-4.985,0.796-7.634,0.289
	c2.151,6.716,8.394,11.604,15.792,11.74c-7.107,5.57-16.059,8.058-25.028,7.001c7.481,4.796,16.367,7.595,25.914,7.595
	c31.386,0,49.119-26.51,48.05-50.287C-1449.545,3180.324-1446.679,3177.347-1444.413,3173.957z"/>
<path id="facebook-icon" fill="#58595B" d="M-1265.983,3185.603h-8.629v14.085h8.629v41.376h16.593v-41.552h11.576l1.232-13.909
	h-12.809c0,0,0-5.194,0-7.923c0-3.28,0.66-4.578,3.829-4.578c2.553,0,8.979,0,8.979,0v-14.438c0,0-9.465,0-11.488,0
	c-12.347,0-17.913,5.436-17.913,15.846C-1265.983,3183.578-1265.983,3185.603-1265.983,3185.603z"/>
<g id="google-plus-icon">
	<path fill="#58595B" d="M-752.122,3176.557h-10.924v10.924h-5.462v-10.924h-10.924v-5.462h10.924v-10.924h5.462v10.924h10.924
		V3176.557z M-783.005,3221.74c0,8.189-7.477,18.157-26.287,18.157c-13.757,0-25.23-5.934-25.23-15.914
		c0-7.703,4.877-17.702,27.665-17.702c-3.384-2.759-4.215-6.615-2.147-10.792c-13.343,0-20.176-7.844-20.176-17.804
		c0-9.746,7.248-18.606,22.03-18.606c3.732,0,23.68,0,23.68,0l-5.291,5.554h-6.216c4.385,2.512,6.717,7.687,6.717,13.39
		c0,5.235-2.883,9.475-6.997,12.656c-7.301,5.644-5.432,8.796,2.217,14.374C-785.497,3210.703-783.005,3215.064-783.005,3221.74z
		 M-797.774,3178.378c-1.101-8.381-6.561-15.257-12.941-15.449c-6.382-0.19-10.662,6.224-9.56,14.607
		c1.102,8.381,7.167,14.236,13.55,14.428C-800.345,3192.154-796.673,3186.76-797.774,3178.378z M-791.195,3222.58
		c0-6.893-6.288-13.463-16.838-13.463c-9.508-0.104-17.566,6.008-17.566,13.094c0,7.231,6.867,13.25,16.376,13.25
		C-797.068,3235.461-791.195,3229.811-791.195,3222.58z"/>
</g>
<path id="key-icon" fill="#58595B" d="M-1710.432,3443.573l-8.909,8.909h-8.626l0,8.625l-8.994,0v8.129h-19.974v-13.852
	l28.652-28.652C-1725.051,3434.433-1718.653,3440.667-1710.432,3443.573z M-1683.082,3397.736c9.53,9.53,9.53,24.981,0,34.511
	c-9.53,9.531-24.981,9.531-34.511,0c-9.53-9.53-9.53-24.981,0-34.511C-1708.063,3388.206-1692.612,3388.206-1683.082,3397.736z
	 M-1687.98,3402.617c-2.364-2.363-6.196-2.364-8.56,0c-2.364,2.364-2.364,6.196,0,8.56c2.363,2.364,6.196,2.363,8.559,0
	C-1685.616,3408.813-1685.617,3404.98-1687.98,3402.617z"/>
<path id="twitter-4-icon" fill="#58595B" d="M-1485.613,3388.712c-22.754,0-41.2,18.446-41.2,41.2s18.446,41.2,41.2,41.2
	c22.754,0,41.2-18.446,41.2-41.2S-1462.858,3388.712-1485.613,3388.712z M-1464.893,3422.813c0.604,13.44-9.419,28.425-27.16,28.425
	c-5.396,0-10.419-1.582-14.648-4.293c5.069,0.597,10.129-0.809,14.147-3.957c-4.181-0.077-7.711-2.84-8.926-6.636
	c1.497,0.286,2.97,0.203,4.315-0.163c-4.595-0.923-7.768-5.063-7.664-9.49c1.288,0.716,2.762,1.146,4.328,1.195
	c-4.256-2.844-5.461-8.464-2.957-12.758c4.713,5.781,11.754,9.586,19.696,9.984c-1.394-5.977,3.14-11.733,9.308-11.733
	c2.748,0,5.232,1.16,6.975,3.018c2.177-0.429,4.222-1.224,6.068-2.319c-0.714,2.231-2.229,4.104-4.202,5.287
	c1.933-0.231,3.775-0.744,5.488-1.505C-1461.406,3419.783-1463.026,3421.466-1464.893,3422.813z"/>
<path id="facebook-circle-icon" fill="#58595B" d="M-1255.022,3388.712c-22.754,0-41.2,18.446-41.2,41.2s18.446,41.2,41.2,41.2
	c22.754,0,41.2-18.446,41.2-41.2S-1232.267,3388.712-1255.022,3388.712z M-1242.828,3412.95c0,0-4.121,0-5.758,0
	c-2.032,0-2.456,0.833-2.456,2.936c0,1.75,0,5.081,0,5.081h8.214l-0.79,8.919h-7.424v26.645h-10.64v-26.532h-5.533v-9.032h5.533
	c0,0,0-1.299,0-7.113c0-6.676,3.57-10.161,11.487-10.161c1.297,0,7.367,0,7.367,0L-1242.828,3412.95L-1242.828,3412.95z"/>
<path id="linkedin-circle-icon" fill="#58595B" d="M-1025.749,3388.712c-22.754,0-41.2,18.446-41.2,41.2s18.446,41.2,41.2,41.2
	c22.754,0,41.2-18.446,41.2-41.2S-1002.995,3388.712-1025.749,3388.712z M-1036.741,3449.831h-9.046v-29.225h9.046V3449.831z
	 M-1041.307,3416.779c-2.954,0-5.349-2.415-5.349-5.393c0-2.978,2.395-5.393,5.349-5.393c2.954,0,5.349,2.415,5.349,5.393
	C-1035.958,3414.364-1038.353,3416.779-1041.307,3416.779z M-1002.842,3449.831h-9.002c0,0,0-11.133,0-15.341
	c0-4.208-1.598-6.556-4.925-6.556c-3.621,0-5.512,2.446-5.512,6.556c0,4.501,0,15.341,0,15.341h-8.676v-29.225h8.676v3.936
	c0,0,2.609-4.827,8.806-4.827c6.197,0,10.633,3.783,10.633,11.612C-1002.842,3439.154-1002.842,3449.831-1002.842,3449.831z"/>
<path id="linkedin-icon" fill="#58595B" d="M-1044.807,3168.801c0,5.598-4.502,10.136-10.055,10.136s-10.055-4.538-10.055-10.136
	s4.502-10.136,10.055-10.136C-1049.308,3158.665-1044.807,3163.203-1044.807,3168.801z M-1046.278,3186.131h-17.003v54.933h17.003
	V3186.131z M-1019.098,3186.131h-16.308v54.933h16.308c0,0,0-20.375,0-28.836c0-7.725,3.556-12.323,10.361-12.323
	c6.254,0,9.258,4.414,9.258,12.323c0,7.909,0,28.836,0,28.836h16.921c0,0,0-20.069,0-34.783c0-14.714-8.338-21.826-19.987-21.826
	c-11.649,0-16.554,9.074-16.554,9.074L-1019.098,3186.131L-1019.098,3186.131z"/>
<path id="google-plus-circle-icon" fill="#58595B" d="M-791.047,3444.844c0,4.049-3.289,7.213-10.096,7.213
	c-5.325,0-9.17-3.371-9.17-7.42c0-3.968,4.512-7.391,9.837-7.333C-794.569,3437.304-791.047,3440.984-791.047,3444.844z
	 M-753.238,3429.912c0,22.754-18.446,41.2-41.2,41.2s-41.2-18.446-41.2-41.2s18.446-41.2,41.2-41.2
	S-753.238,3407.158-753.238,3429.912z M-786.461,3444.373c0-3.738-1.396-6.18-5.619-9.345c-4.283-3.124-5.33-4.888-1.242-8.05
	c2.304-1.781,3.918-4.156,3.918-7.087c0-3.194-1.306-6.091-3.762-7.499h3.481l2.963-3.11c0,0-11.171,0-13.261,0
	c-8.278,0-12.337,4.962-12.337,10.42c0,5.578,3.826,9.971,11.298,9.971c-1.158,2.339-0.693,4.499,1.202,6.043
	c-12.761,0-15.492,5.6-15.492,9.913c0,5.589,6.425,8.912,14.129,8.912C-790.648,3454.541-786.461,3448.959-786.461,3444.373z
	 M-769.166,3416.012h-6.118v-6.118h-3.059v6.118h-6.118v3.059h6.118v6.117h3.059v-6.117h6.118V3416.012z M-794.731,3420.091
	c-0.617-4.693-3.674-8.544-7.247-8.651c-3.574-0.106-5.971,3.485-5.353,8.18c0.617,4.693,4.013,7.972,7.588,8.08
	C-796.171,3427.806-794.115,3424.785-794.731,3420.091z"/>
<path id="info-2-icon" fill="#58595B" d="M-1707.947,3692.121h-16.132v-38.33h16.132V3692.121z M-1716.013,3645.862
	c-4.903,0-8.879-3.976-8.879-8.879c0-4.904,3.976-8.879,8.879-8.879c4.904,0,8.879,3.976,8.879,8.879
	S-1711.109,3645.862-1716.013,3645.862z"/>
<path id="bar_chart_4_icon" fill="#58595B" d="M-816.312,3701.312h-21.417v-20.787h21.417V3701.312L-816.312,3701.312z
	 M-788.386,3670.657h-21.627v30.656h21.627V3670.657z M-760.67,3657.219h-21.627v44.094h21.627V3657.219z M-760.266,3618.912
	l-17.526,3.032l3.857,3.896l-26.359,25.333l-9.574-9.051l-26.803,26.704l6.594,6.485l19.932-19.931l9.872,9.341l32.906-32.123
	l3.746,3.781L-760.266,3618.912z"/>
<path id="disk-icon" fill="#58595B" d="M-1031.88,3643.833c-1.495,0.898-2.722,2.06-3.732,3.363l-3.376-1.17
	c1.354-2.017,3.118-3.795,5.331-5.132c2.22-1.338,4.613-2.067,7.028-2.325l-0.543,3.534
	C-1028.792,3642.388-1030.391,3642.933-1031.88,3643.833z M-1026.093,3635.049l0.53-3.469c-3.983,0.126-7.987,1.229-11.641,3.435
	c-3.654,2.204-6.498,5.234-8.466,8.699l3.316,1.147c1.67-2.741,3.99-5.138,6.927-6.907
	C-1032.497,3636.184-1029.295,3635.247-1026.093,3635.049z M-1018.882,3654.246c0,3.794-3.071,6.866-6.867,6.866
	c-3.794,0-6.867-3.073-6.867-6.866c0-3.794,3.073-6.867,6.867-6.867C-1021.954,3647.379-1018.882,3650.452-1018.882,3654.246z
	 M-1022.316,3654.246c0-1.893-1.541-3.433-3.433-3.433c-1.893,0-3.433,1.541-3.433,3.433s1.541,3.433,3.433,3.433
	C-1023.856,3657.679-1022.316,3656.138-1022.316,3654.246z M-991.416,3619.912v80.4h-68.666v-80.4H-991.416z M-1003.379,3683.248
	c-2.427-2.863-9.029-10.575-10.199-12.151c-1.763-2.38-4.546-0.949-3.474,1.911c0.865,2.313,4.345,11.514,5.804,15.222
	C-1008.066,3696.304-997.719,3689.933-1003.379,3683.248z M-998.282,3654.246c0-15.17-12.298-27.467-27.467-27.467
	c-15.17,0-27.467,12.296-27.467,27.467c0,15.168,12.297,27.467,27.467,27.467c2.739,0,5.381-0.412,7.879-1.16
	c-1.053-2.773-2.005-5.294-2.394-6.337c-2.473-6.565,5.335-10.712,9.442-5.167c0.5,0.671,2.22,2.729,4.111,4.969
	C-1001.521,3669.021-998.282,3662.017-998.282,3654.246z"/>
<path id="globe-3-icon" fill="#58595B" d="M-1214.397,3660.112c0-23.121-18.752-41.2-41.2-41.2c-22.292,0-41.2,17.89-41.2,41.2
	c0,23.447,19.025,41.2,41.2,41.2C-1233.284,3701.312-1214.397,3683.393-1214.397,3660.112z M-1275.091,3644.996
	c-0.786,3.78-1.273,7.806-1.429,11.958h-11.82c0.527-5.53,2.422-10.66,5.345-15.048
	C-1280.458,3643.19-1277.784,3644.2-1275.091,3644.996z M-1276.503,3663.27c0.18,4.189,0.698,8.244,1.52,12.044
	c-2.757,0.809-5.398,1.808-7.956,3.092c-2.955-4.408-4.871-9.569-5.402-15.136H-1276.503z M-1273.325,3681.404
	c0.987,2.958,2.243,5.875,3.859,8.543c-3.487-1.624-6.642-3.839-9.335-6.519C-1277.103,3682.658-1275.27,3681.981-1273.325,3681.404
	z M-1252.439,3672.744v-9.474h11.533c-0.171,3.699-0.628,7.263-1.34,10.591C-1245.503,3673.262-1248.926,3672.884-1252.439,3672.744
	z M-1243.941,3679.967c-1.547,4.429-4.379,10.179-8.498,12.416v-13.319C-1249.507,3679.191-1246.656,3679.495-1243.941,3679.967z
	 M-1252.439,3656.954v-9.357c3.553-0.142,7.012-0.527,10.302-1.138c0.677,3.306,1.101,6.837,1.248,10.495L-1252.439,3656.954
	L-1252.439,3656.954z M-1252.439,3641.276v-13.856c4.25,2.308,7.13,8.333,8.671,12.922
	C-1246.535,3640.832-1249.444,3641.147-1252.439,3641.276z M-1258.755,3627.477v13.795c-2.958-0.132-5.831-0.445-8.566-0.93
	C-1265.787,3635.775-1262.939,3629.825-1258.755,3627.477z M-1258.755,3647.592v9.362h-11.445c0.148-3.658,0.572-7.189,1.248-10.495
	C-1265.695,3647.064-1262.271,3647.447-1258.755,3647.592z M-1268.842,3673.862c-0.713-3.328-1.169-6.892-1.34-10.592h11.428v9.478
	C-1262.231,3672.892-1265.618,3673.268-1268.842,3673.862z M-1258.755,3679.069v13.258c-4.062-2.28-6.856-7.959-8.393-12.359
	C-1264.465,3679.5-1261.65,3679.198-1258.755,3679.069z M-1237.764,3681.404c1.918,0.569,3.726,1.235,5.404,1.991
	c-2.663,2.657-5.78,4.86-9.223,6.483C-1239.978,3687.215-1238.741,3684.332-1237.764,3681.404z M-1236.106,3675.313
	c0.822-3.799,1.34-7.854,1.52-12.043h11.732c-0.529,5.55-2.436,10.697-5.375,15.095
	C-1230.791,3677.088-1233.396,3676.108-1236.106,3675.313z M-1228.171,3641.946c2.907,4.38,4.793,9.496,5.318,15.008h-11.714
	c-0.156-4.153-0.643-8.178-1.429-11.958C-1233.316,3644.203-1230.67,3643.204-1228.171,3641.946z M-1232.28,3636.91
	c-1.653,0.75-3.435,1.411-5.323,1.979c-0.942-2.916-2.126-5.759-3.635-8.379C-1237.897,3632.133-1234.872,3634.306-1232.28,3636.91z
	 M-1269.808,3630.438c-1.542,2.665-2.731,5.521-3.677,8.45c-1.916-0.576-3.722-1.248-5.396-2.012
	C-1276.259,3634.249-1273.194,3632.062-1269.808,3630.438z"/>
<path id="wireless-icon" fill="#58595B" d="M-1498.613,3676.245c3.327-3.327,7.923-5.385,13-5.385s9.673,2.058,13,5.385l-13,13
	L-1498.613,3676.245z M-1504.613,3670.245c4.862-4.862,11.58-7.87,19-7.87c7.42,0,14.138,3.008,19,7.87l8-8
	c-6.91-6.91-16.456-11.184-27-11.184c-10.544,0-20.09,4.274-27,11.184L-1504.613,3670.245z M-1518.613,3656.245
	c8.445-8.446,20.113-13.669,33-13.669c12.887,0,24.554,5.223,33,13.669l8.2-8.2c-10.544-10.544-25.11-17.066-41.2-17.066
	s-30.656,6.522-41.2,17.066L-1518.613,3656.245z"/>
<path id="pencil-4-icon" fill="#58595B" d="M-1675.643,2025.412l-54.877,54.877l-27.085,4.998l5.464-26.62l54.876-54.876
	C-1685.052,2000.852-1672.705,2013.199-1675.643,2025.412z M-1733.807,2074.185c1.609-6.026-6.205-13.84-12.23-12.23l-3.082,15.014
	L-1733.807,2074.185z"/>
<polygon id="arrow-25-icon_1_" fill="#58595B" points="-1689.996,1616.935 -1701.026,1627.912 -1742.029,1586.712 
	-1701.026,1545.512 -1689.996,1556.49 -1720.075,1586.712 "/>
<polygon id="arrow-25-icon_2_" fill="#58595B" points="-1515.835,1612.729 -1526.813,1601.699 -1485.613,1560.695 
	-1444.413,1601.699 -1455.39,1612.729 -1485.613,1582.65 "/>
<polygon id="arrow-25-icon_3_" fill="#58595B" points="-993.514,1560.695 -982.537,1571.725 -1023.737,1612.729 -1064.937,1571.725 
	-1053.959,1560.695 -1023.737,1590.774 "/>
<path id="computer-icon" fill="#58595B" d="M-1530.613,2235.804v69.581h90v-69.581H-1530.613z M-1449.811,2296.186h-71.603l0-51.184
	l71.603,0L-1449.811,2296.186L-1449.811,2296.186z M-1472.857,2310.822l9.198,9.198h-43.908l9.198-9.198H-1472.857z"/>
<path id="book-15-icon" fill="#58595B" d="M-1485.613,4091.89c-12.122-7.546-30.589-10.586-49.5-11.163v68.083
	c16.24,0.496,32.152,2.808,44,8.229c3.494,1.599,7.51,1.597,11.004-0.002c11.847-5.421,27.759-7.732,43.996-8.228v-68.083
	C-1455.023,4081.304-1473.491,4084.344-1485.613,4091.89z M-1525.501,4090.89c11.415,0.958,25.354,3.278,35.083,9.33v46.673
	c-9.448-3.749-21.184-6.161-35.083-7.205V4090.89z M-1445.724,4139.688c-13.899,1.044-25.635,3.457-35.083,7.205v-46.673
	c9.728-6.052,23.668-8.372,35.083-9.33V4139.688z"/>
<path id="lifebuoy-icon" fill="#58595B" d="M-798.997,4074.482c-24.838,0-45,20.145-45,45c0,24.845,20.152,45,45,45
	c24.835,0,45-20.142,45-45C-753.997,4094.646-774.141,4074.482-798.997,4074.482z M-782.624,4135.855
	c-9.041,9.041-23.691,9.056-32.746,0c-9.043-9.042-9.053-23.694,0-32.747c9.047-9.047,23.697-9.05,32.746,0
	C-773.582,4112.15-773.57,4126.802-782.624,4135.855z M-781.465,4084.023l-5.42,9.515c-7.627-3.57-16.589-3.573-24.225,0
	l-5.42-9.515C-805.732,4078.672-792.627,4078.491-781.465,4084.023z M-834.483,4102.004l9.516,5.42
	c-3.558,7.644-3.595,16.777,0.235,24.607l-9.507,5.416C-839.803,4126.562-840.052,4113.287-834.483,4102.004z M-816.25,4155.078
	l5.424-9.521c7.47,3.396,16.179,3.4,23.659,0l5.424,9.521C-792.438,4160.271-805.285,4160.403-816.25,4155.078z M-773.263,4132.032
	c3.823-7.817,3.8-16.949,0.235-24.607l9.516-5.42c5.388,10.914,5.506,24.193-0.244,35.444L-773.263,4132.032z"/>
<path id="home-4-icon" fill="#58595B" d="M-1219.882,4123.811v36.309h-25.944v-19.732h-19.54v19.732h-25.944v-36.309h-9.286
	l45-44.966l45,44.966L-1219.882,4123.811L-1219.882,4123.811z"/>
<path id="printer-5-icon" fill="#58595B" d="M-991.103,4101.654v-19.992h-69.291v19.992h-12.154v46.118h11.804l9.014-17.91h52.331
	l8.834,17.91h11.617v-46.118H-991.103L-991.103,4101.654z M-1000.191,4101.654h-51.117v-10.905h51.117V4101.654z M-987.96,4113.188
	c-1.518,0-2.749-1.231-2.749-2.749c0-1.519,1.231-2.749,2.749-2.749s2.749,1.23,2.749,2.749
	C-985.211,4111.957-986.442,4113.188-987.96,4113.188z M-1005.135,4138.495l8.826,18.808h-58.689l9.01-18.808H-1005.135"/>
<g>
	<path fill="#58595B" d="M-1691.663,4101.346v-34.477h-49.846v34.477h-7.477v57.323h64.8v-57.323H-1691.663z M-1734.033,4074.345
		h34.892v27h-34.892V4074.345z M-1691.663,4151.192h-49.846v-42.37h49.846V4151.192z"/>
	<rect x="-1730.65" y="4080.636" fill="#58595B" width="10.681" height="10.681"/>
	<rect x="-1713.204" y="4080.76" fill="#58595B" width="10.681" height="10.681"/>
</g>
<path fill="#0073A8" d="M163.278,2684.441v223.935h1633.45v-223.935H163.278z M222.699,2845.52l39.286-98.225h47.461l-39.288,98.225
	H222.699z M299.624,2845.52l39.286-98.225h47.457l-39.286,98.225H299.624z M376.546,2845.52l39.286-98.225h47.457L424,2845.52
	H376.546z M449.699,2845.52l39.286-98.225h47.461l-39.288,98.225H449.699z M574.081,2845.52h-47.457l39.286-98.225h47.457
	L574.081,2845.52z M1449.65,2829.208c-18.112,0-32.8-14.688-32.8-32.804s14.688-32.8,32.8-32.8c18.121,0,32.808,14.683,32.808,32.8
	S1467.771,2829.208,1449.65,2829.208z M1570.65,2829.208c-18.112,0-32.8-14.688-32.8-32.804s14.688-32.8,32.8-32.8
	c18.121,0,32.808,14.683,32.808,32.8S1588.771,2829.208,1570.65,2829.208z M1690.65,2829.208c-18.112,0-32.8-14.688-32.8-32.804
	s14.688-32.8,32.8-32.8c18.121,0,32.808,14.683,32.808,32.8S1708.771,2829.208,1690.65,2829.208z"/>
<polygon fill="#0073A8" points="577.932,2489.782 1387.757,2489.782 1718.105,2655.512 241.9,2655.512 "/>
<path fill="#0073A8" d="M0,0v17h124.003V0H0z M4.511,12.228l2.982-7.457h3.603l-2.983,7.457H4.511z M10.351,12.228l2.982-7.457
	h3.603l-2.982,7.457H10.351z M16.19,12.228l2.982-7.457h3.603l-2.983,7.457H16.19z M21.744,12.228l2.982-7.457h3.603l-2.983,7.457
	H21.744z M31.186,12.228h-3.603l2.982-7.457h3.603L31.186,12.228z M97.655,10.99c-1.375,0-2.49-1.115-2.49-2.49
	s1.115-2.49,2.49-2.49c1.376,0,2.491,1.115,2.491,2.49S99.03,10.99,97.655,10.99z M106.84,10.99c-1.375,0-2.49-1.115-2.49-2.49
	s1.115-2.49,2.49-2.49c1.376,0,2.491,1.115,2.491,2.49S108.216,10.99,106.84,10.99z M115.95,10.99c-1.375,0-2.49-1.115-2.49-2.49
	s1.115-2.49,2.49-2.49c1.376,0,2.491,1.115,2.491,2.49S117.326,10.99,115.95,10.99z"/>
</svg>
