<svg xmlns="http://www.w3.org/2000/svg" width="124.003" height="17" viewBox="0 0 124.003 17"><path fill="#58595B" d="M-1687.57 1323.71l-39.697 39.697-17.195-17.2-12.75 12.754 29.946 29.955 52.453-52.458z"/><path fill="#58595B" d="M-1449.134 1380.03l-23.727-23.723 23.723-23.725-12.757-12.75-23.72 23.725-23.724-23.72-12.753 12.746 23.726 23.726-23.724 23.727 12.746 12.754 23.73-23.73 23.73 23.728z"/><path fill="#58595B" d="M-1212.455 1347.29l-33.553.002v-33.553l-18.035.005.002 33.548-33.55.002-.004 18.03h33.555l.003 33.555 18.03.005v-33.56h33.558z"/><path fill="#58595B" d="M-981.17 1347.4l-85.134.008-.006 18.03 85.146-.002z"/><path fill="#58595B" d="M-753.24 1338.178h-82.4v-13h82.4v13zm0 12h-82.4v13h82.4v-13zm0 25h-82.4v13h82.4v-13z"/><path fill="#58595B" d="M-1281.038 1556.49l11.03-10.978 41.003 41.2-41.004 41.2-11.028-10.977 30.08-30.223z"/><path fill="#58595B" d="M-820.966 1616.906h-14.605v-13h14.604v13zm0-38h-14.605v13h14.604v-13zm0-25h-14.605v13h14.604v-13zm9 0v13h58.795v-13h-58.796zm0 38h58.795v-13h-58.796v13zm0 25h58.795v-13h-58.796v13z"/><path fill="#58595B" d="M-1730.336 1782.725h16.678v50.58h-16.678v-50.58zm8.34 76.062c-4.972 0-9-4.03-9-9s4.03-9 9-9 9 4.03 9 9-4.03 9-9 9z"/><path fill="#58595B" d="M-1484.92 1858.312c-4.973 0-9.006-4.033-9.006-9.008 0-4.972 4.033-9.004 9.006-9.004 4.974 0 9.006 4.032 9.006 9.004 0 4.975-4.032 9.008-9.006 9.008zm7.08-26.62v1.62h-14.846v-1.62c0-4.584.67-10.465 5.99-15.578 5.324-5.113 11.975-9.337 11.975-15.725 0-7.063-4.902-10.798-11.08-10.798-10.298 0-10.97 10.68-11.224 13.03h-14.44c.385-11.135 5.09-26.71 25.75-26.71 17.902 0 25.95 11.99 25.95 23.233 0 17.896-18.076 21.005-18.076 32.547z"/><path fill="#58595B" d="M-1231.768 1793.354l-7.45 7.45c-4.045-4.044-9.632-6.545-15.804-6.545-12.344 0-22.35 10.01-22.35 22.354 0 .003 0-.003 0 0h8.682l-13.868 13.863-13.854-13.863h8.503c0-.002 0 0 0 0 0-18.163 14.725-32.892 32.888-32.892 9.08 0 17.303 3.68 23.254 9.632zm17.755 22.11l-13.854-13.862-13.868 13.863h8.682c0 .003 0-.003 0 0 0 12.344-10.007 22.355-22.35 22.355-6.172 0-11.76-2.502-15.804-6.546l-7.45 7.45c5.952 5.952 14.173 9.633 23.255 9.633 18.163 0 32.887-14.73 32.887-32.892 0 0 0 .002 0 0h8.502z"/><path fill="#58595B" d="M-983.942 1850.23l-21.302-21.302c4.008-5.51 6.377-12.287 6.377-19.607 0-18.42-14.987-33.407-33.41-33.407-18.42 0-33.407 14.987-33.407 33.408 0 18.422 14.987 33.41 33.408 33.41 6.982 0 13.47-2.156 18.837-5.833l21.416 21.415 8.082-8.082zm-71.944-40.91c0-13.02 10.592-23.61 23.61-23.61 13.02 0 23.612 10.59 23.612 23.61s-10.592 23.61-23.61 23.61c-13.02.002-23.612-10.59-23.612-23.61z"/><path fill="#58595B" d="M-778.85 1811.104h13.252l-28.815 28.864-28.814-28.864h13.25v-36.265h31.128v36.264zm8.284 23.1v13.034h-47.694v-13.034h-10v23.034h67.695v-23.034h-10z"/><path fill="#58595B" d="M-1477.25 2014.312v17.15h17.174v49.25h-51.073v-66.4h33.9m5-8h-46.9v82.4h67.074v-62.25l-20.173-20.15z"/><path fill="#58595B" d="M-1261.395 2023.965c-2.552 0-5-1.01-6.81-2.812l-6.538-6.51h-21.67v65.737h82.4v-56.415h-47.382z"/><path fill="#58595B" d="M-1024.81 2051l-41.033-34.007h82.18l-41.146 34.006zm-.006 11.092l-41.197-34.13v50.07h82.4v-49.99l-41.203 34.05z"/><path fill="#58595B" d="M-794.413 2006.312c-18.612 0-33.7 15.088-33.7 33.7 0 18.9 16.386 31.367 33.7 48.7 17.314-17.333 33.7-29.8 33.7-48.7 0-18.612-15.087-33.7-33.7-33.7z"/><path fill="#58595B" d="M-1765.905 2302.903v7.93h99v-7.93h-99zm90.617-3.605v-54.306h-82.1v54.306h82.1zm-6.488-47.818v41.29h-69.124v-41.29h69.124z"/><path fill="#58595B" d="M-1214.013 2266.774h-82.4v20.653h82.4v-20.653zm-76.92 14.856l3.624-9.06h4.378l-3.623 9.06h-4.377zm7.095 0l3.623-9.06h4.377l-3.623 9.06h-4.378zm7.094 0l3.623-9.06h4.376l-3.623 9.06h-4.377zm52.948-1.504c-1.67 0-3.025-1.354-3.025-3.025 0-1.67 1.354-3.024 3.024-3.024s3.026 1.354 3.026 3.025c0 1.67-1.355 3.026-3.026 3.026zm5.24-18.786h-73.137l14.424-19.03h44.114l14.6 19.03zm4.543 31.522h-82.4v20.653h82.4v-20.653zm-76.92 14.856l3.624-9.06h4.378l-3.623 9.06h-4.377zm7.095 0l3.623-9.06h4.377l-3.623 9.06h-4.378zm7.094 0l3.623-9.06h4.376l-3.623 9.06h-4.377zm52.948-1.505c-1.67 0-3.025-1.354-3.025-3.025 0-1.67 1.354-3.025 3.024-3.025s3.026 1.354 3.026 3.025c0 1.67-1.355 3.025-3.026 3.025z"/><g fill="#58595B"><path d="M-1033.723 2294.178l7.974-21.475h-6.734l-4.77 15.454-4.835-15.454h-6.935l8.11 21.475zM-1018.22 2277.8l4.18 16.378h4.92l4.186-16.377v16.378h5.435v-21.475h-8.72l-3.342 13.067-3.365-13.067h-8.727v21.475h5.434zM-1066.937 2242.146v71.53h86.4v-71.53h-86.4zm28.6 3.832c1.988 0 3.6 1.612 3.6 3.6s-1.612 3.6-3.6 3.6-3.6-1.612-3.6-3.6 1.612-3.6 3.6-3.6zm-10 0c1.988 0 3.6 1.612 3.6 3.6s-1.612 3.6-3.6 3.6-3.6-1.612-3.6-3.6 1.612-3.6 3.6-3.6zm-10 0c1.988 0 3.6 1.612 3.6 3.6s-1.612 3.6-3.6 3.6-3.6-1.612-3.6-3.6 1.612-3.6 3.6-3.6zm72.76 62.5h-76.32v-51.11h76.32v51.11z"/></g><path fill="#58595B" d="M-794.372 2236.696c-19.882 0-36 16.118-36 36v46.408l12.83-12.816 11.628 11.628 11.592-11.592 11.438 11.437 11.566-11.565 12.947 12.934v-46.434c-.002-19.883-16.12-36-36.002-36zm-14.4 46.732c-5.965 0-10.8-4.835-10.8-10.8s4.835-10.8 10.8-10.8c5.965 0 10.8 4.835 10.8 10.8s-4.835 10.8-10.8 10.8zm28.8 0c-5.965 0-10.8-4.835-10.8-10.8s4.835-10.8 10.8-10.8c5.965 0 10.8 4.835 10.8 10.8s-4.835 10.8-10.8 10.8z"/><path fill="#58595B" d="M-1716.435 2467.112c-10.284 10.283-25.033 13.4-37.1 13.4 0 29.467 16.733 55.6 37.1 69 20.367-13.4 37.1-39.533 37.1-69-12.066 0-26.816-3.116-37.1-13.4z"/><path fill="#58595B" d="M-1451.977 2508.984c-1.246 5.315-7.102 10.548-10.963 10.583 4.064-9.29 4.795-23.69-3.875-35.767-.86 6.204-4.723 10.315-8.834 11.437 4.362-15.325-11.17-29.46-24.64-30.816 8.05 20.09-27.44 31.19-5.96 57.17-3.37-.147-11.345-2.804-12.858-12.03-3.76 17.323 6.33 39.377 24.124 41.29h18.35c10.938 0 28.922-16.394 24.657-41.866z"/><path fill="#58595B" d="M-1277.73 2501.78v-12.534c0-12.204 9.93-22.134 22.133-22.134 12.204 0 22.133 9.93 22.133 22.134v12.533h-10v-12.534c0-6.69-5.443-12.134-12.133-12.134-6.69 0-12.133 5.443-12.133 12.134v12.533h-10zm-7.467 6v41.732h59.2v-41.733h-59.2z"/><path fill="#58595B" d="M-998.097 2497.2c-4.4-13.588-17.157-23.413-32.21-23.413-18.693 0-33.847 15.155-33.847 33.848 0 2.697.316 5.32.912 7.835h25.1v25.1c2.516.597 5.14.913 7.836.913 14.88 0 27.515-9.6 32.053-22.944l15.098 10.92v-43.653l-14.942 11.392zm-46.692 7.23c-3.785 0-6.855-3.07-6.855-6.856s3.07-6.856 6.856-6.856c3.787 0 6.857 3.07 6.857 6.856s-3.07 6.856-6.856 6.856z"/><path fill="#58595B" d="M-770.16 2485.682c0 13.255-10.746 24-24 24-13.256 0-24-10.745-24-24s10.744-24 24-24c13.254 0 24 10.745 24 24zm-4.192 25.132c-5.594 4.417-12.527 6.868-19.81 6.868-7.366 0-14.367-2.51-19.986-7.01-14.81 5.435-21.424 24.436-21.424 33.11h82.4c0-8.6-6.664-27.465-21.18-32.968z"/><g fill="#58595B"><path d="M-1751.078 2703.647c-6.032 6.032-6.032 15.903 0 21.935l8.434 8.434 21.935-21.935-8.433-8.433c-6.032-6.032-15.903-6.032-21.935 0zM-1680.947 2751.842l-8.434-8.434-21.936 21.935 8.434 8.434c6.032 6.032 15.903 6.032 21.935 0 6.032-6.032 6.032-15.902 0-21.935zM-1738.937 2737.724l23.912 23.912 21.935-21.935-23.912-23.91-21.935 21.934zm38.22-.8c1.266 1.265 1.266 3.318 0 4.584-1.266 1.266-3.32 1.266-4.585 0-1.266-1.266-1.266-3.32 0-4.585s3.32-1.266 4.585 0zm-6.007 6.006c1.266 1.266 1.266 3.32 0 4.585-1.266 1.266-3.32 1.266-4.585 0s-1.265-3.32 0-4.585c1.267-1.266 3.32-1.266 4.586 0zm-6.007 6.008c1.265 1.266 1.265 3.32 0 4.585-1.267 1.266-3.32 1.266-4.586 0-1.266-1.266-1.266-3.32 0-4.585 1.266-1.266 3.318-1.266 4.585 0zm5.4-18.628c1.266 1.266 1.266 3.32 0 4.585-1.266 1.266-3.32 1.266-4.585 0-1.266-1.266-1.266-3.32 0-4.585 1.266-1.266 3.32-1.266 4.585 0zm-6.007 6.008c1.266 1.266 1.266 3.32 0 4.585-1.266 1.266-3.32 1.266-4.585 0-1.266-1.266-1.266-3.32 0-4.585 1.266-1.266 3.32-1.266 4.585 0zm-6.007 6.007c1.266 1.266 1.266 3.32 0 4.585-1.266 1.266-3.32 1.266-4.585 0-1.265-1.266-1.265-3.32 0-4.585 1.267-1.266 3.32-1.266 4.586 0zm5.12-18.91c1.266 1.267 1.266 3.32 0 4.586s-3.32 1.267-4.585 0c-1.265-1.265-1.265-3.318 0-4.584 1.267-1.266 3.32-1.266 4.586 0zm-6.007 6.01c1.265 1.265 1.265 3.318 0 4.584-1.267 1.265-3.32 1.265-4.586 0-1.266-1.267-1.266-3.32 0-4.586 1.266-1.267 3.32-1.267 4.585 0zm-6.008 6.006c1.266 1.267 1.266 3.32 0 4.586-1.266 1.266-3.32 1.266-4.585 0s-1.266-3.32 0-4.585 3.32-1.265 4.585 0z"/></g><g fill="#58595B"><path d="M-1523.286 2703.317h59.857v4.8h5.527v-10.326h-70.91v54.822h10.327v-8.968h-4.8zM-1487.918 2772.387l-7.247 7.247h34.595l-7.248-7.247zM-1513.323 2713.28v54.823h70.91v-54.822h-70.91zm5.526 5.527h59.857v40.328h-59.857v-40.328z"/></g><path fill="#58595B" d="M-1220.775 2731.76c-1.56 0-3 .513-4.16 1.382-2.382 1.782-5.278 2.75-8.252 2.75-2.425 0-4.627-1.416-5.63-3.624-1.158-2.543-.517-5.257 1.228-7 2.11-2.11 4.828-3.466 7.78-3.89 1.435-.206 2.817-.86 3.92-1.964 2.717-2.716 2.716-7.118 0-9.834-2.714-2.715-7.117-2.716-9.833 0-1.104 1.104-1.758 2.485-1.964 3.92-.423 2.944-1.785 5.677-3.888 7.78-1.776 1.776-4.45 2.307-6.77 1.343l-.023-.01c-2.32-.96-3.834-3.224-3.834-5.734 0-2.985.963-5.864 2.75-8.253.87-1.16 1.384-2.6 1.384-4.16 0-3.842-3.113-6.955-6.954-6.955-3.84 0-6.953 3.113-6.953 6.953 0 1.56.514 3 1.383 4.16 1.782 2.382 2.75 5.277 2.75 8.25 0 2.51-1.513 4.777-3.833 5.736-.008.004-.016.008-.024.01-2.318.964-4.992.434-6.767-1.34-2.11-2.11-3.465-4.827-3.89-7.782-.205-1.434-.86-2.816-1.963-3.92-2.715-2.716-7.118-2.715-9.833 0-2.716 2.716-2.716 7.118 0 9.834 1.103 1.104 2.485 1.758 3.92 1.964 2.944.423 5.677 1.786 7.78 3.89 1.776 1.775 2.306 4.45 1.343 6.768l-.01.024c-.96 2.32-3.225 3.834-5.735 3.834-2.985 0-5.862-.963-8.25-2.75-1.16-.87-2.6-1.384-4.162-1.384-3.84 0-6.953 3.113-6.953 6.954 0 3.84 3.113 6.953 6.953 6.953 1.56 0 3-.514 4.16-1.383 2.38-1.782 5.277-2.75 8.25-2.75 2.51 0 4.777 1.513 5.736 3.833.002.008.006.016.01.024.962 2.318.432 4.992-1.343 6.767-2.11 2.11-4.826 3.465-7.78 3.89-1.434.205-2.816.86-3.92 1.964-2.715 2.717-2.715 7.12 0 9.834 2.715 2.716 7.118 2.716 9.834 0 1.105-1.104 1.76-2.486 1.965-3.92.423-2.943 1.786-5.676 3.89-7.78 1.775-1.775 4.448-2.306 6.768-1.342l.024.01c2.32.96 3.834 3.224 3.834 5.734 0 2.984-.962 5.863-2.75 8.252-.868 1.16-1.383 2.6-1.383 4.16 0 3.84 3.113 6.954 6.953 6.954 3.84 0 6.954-3.113 6.954-6.953 0-1.566-.517-3.01-1.39-4.172-1.778-2.365-2.744-5.245-2.744-8.204 0-2.504 1.506-4.888 4.055-5.85 2.277-.864 4.85-.312 6.57 1.41 2.11 2.11 3.467 4.827 3.89 7.78.207 1.435.862 2.817 1.965 3.92 2.716 2.717 7.118 2.717 9.834 0 2.716-2.714 2.716-7.117 0-9.832-1.107-1.107-2.494-1.762-3.932-1.966-2.93-.416-5.65-1.77-7.743-3.863-1.79-1.788-2.325-4.48-1.36-6.815l.002-.002c.96-2.32 3.224-3.834 5.734-3.834 2.984 0 5.862.962 8.252 2.75 1.16.87 2.6 1.384 4.16 1.384 3.84 0 6.954-3.113 6.954-6.953-.004-3.84-3.117-6.954-6.957-6.954zm-40.992 16.13c-1.878 0-3.4-1.52-3.4-3.4 0-1.877 1.522-3.4 3.4-3.4s3.4 1.523 3.4 3.4c0 1.88-1.523 3.4-3.4 3.4zm4.333-10.79c-2.945 0-5.333-2.388-5.333-5.333s2.388-5.333 5.333-5.333c2.946 0 5.334 2.388 5.334 5.333s-2.39 5.333-5.334 5.333zm10.05 10.19c-2.494 0-4.517-2.02-4.517-4.516 0-2.495 2.02-4.517 4.516-4.517 2.494 0 4.517 2.022 4.517 4.517 0 2.495-2.023 4.517-4.517 4.517z"/><path fill="#58595B" d="M-1042.318 2704.203v37.77c-3.196-3.48-8.72-7.63-14.124-7.305-6.482.388-7.713 7.33-2.112 12.573 9.428 8.83 18.915 21.855 21.033 32.65h36.88c0-21.76 7.033-26.384 8.312-37.742.957-8.498-1.327-15.144-8.205-16.123l.948 2.686c.365 1.203-.315 2.474-1.518 2.838-1.204.364-2.474-.315-2.838-1.52l-.905-2.5c-.947-3.128-3.854-3.542-8.17-4.116l1.13 3.32c.364 1.203-.317 2.474-1.52 2.84-1.203.362-2.474-.317-2.838-1.52l-.817-2.57c-.98-3.232-3.615-3.583-8.396-4.31l1.07 3.565c1 3.305-5.307 4.902-5.307-4.31v-16.224c0-3.708-2.606-6.714-6.314-6.714-3.705 0-6.31 3.005-6.31 6.713z"/><path fill="#58595B" d="M-758.37 2734.195c-1.977-24.905-34.77-33.112-48.175-11.785-8.694-4.916-19.782.868-20.477 11.03-9.532 1.166-16.916 9.284-16.916 19.132 0 10.65 8.633 19.282 19.282 19.282h60.435c10.648 0 19.28-8.633 19.28-19.282.002-8.61-5.64-15.9-13.43-18.377z"/><path fill="#58595B" d="M-1697.007 3914.49c3.568-2.42 6.634-5.435 9.128-8.975l12.494 12.493-9.05 9.05-12.57-12.57zm-60.78 3.518l12.463-12.46c2.494 3.54 5.56 6.553 9.128 8.973l-12.538 12.54-9.052-9.052zm70.324-52.22c-2.427-3.576-5.437-6.646-8.963-9.14l11.99-11.99 9.05 9.052-12.077 12.077zm-70.323-12.078l9.05-9.05 11.974 11.972c-3.526 2.495-6.536 5.564-8.963 9.14l-12.06-12.062zm41.2 2.57c-16.07 0-29.098 13.027-29.098 29.097 0 11.83 7.06 22.012 17.198 26.56v7.12c.71 1.19 2.658 2.05 5.158 2.58v-4.1h4v4.643c1.817.13 3.718.13 5.533-.004v-4.64h4v4.09c2.476-.53 4.404-1.386 5.108-2.568v-7.12c10.138-4.55 17.198-14.73 17.198-26.562.002-16.07-13.026-29.097-29.096-29.097zm-12.75 39.996c-5.112 0-9.256-4.144-9.256-9.257 0-5.114 4.144-9.258 9.256-9.258s9.257 4.144 9.257 9.257c0 5.112-4.144 9.256-9.256 9.256zm6.805 7.31l6.128-8.474.006.01.006-.01 6.147 8.475h-12.288zm19.094-7.31c-5.112 0-9.256-4.144-9.256-9.257 0-5.114 4.144-9.258 9.256-9.258s9.257 4.144 9.257 9.257c0 5.112-4.144 9.256-9.256 9.256z"/><path fill="#58595B" d="M-1480.683 3877.808l7.433-12.874c7.388 4.274 12.358 12.262 12.358 21.41h-14.856c0-3.642-1.988-6.83-4.935-8.536zm-9.86 17.076l-7.43 12.873c3.636 2.104 7.858 3.308 12.36 3.308s8.727-1.204 12.363-3.308l-7.432-12.874c-2.986 1.73-6.747 1.805-9.86 0zm0-17.076l-7.432-12.873c-7.388 4.274-12.358 12.262-12.358 21.41h14.856c0-3.643 1.988-6.83 4.935-8.537zm4.93 14.202c3.128 0 5.664-2.536 5.664-5.664 0-3.128-2.535-5.664-5.663-5.664s-5.664 2.536-5.664 5.664c0 3.128 2.536 5.664 5.664 5.664zm41.2-6.01c0 22.754-18.446 41.2-41.2 41.2s-41.2-18.446-41.2-41.2 18.446-41.2 41.2-41.2 41.2 18.446 41.2 41.2zm-8 0c0-18.35-14.852-33.2-33.2-33.2-18.35 0-33.2 14.852-33.2 33.2 0 18.35 14.852 33.2 33.2 33.2 18.35 0 33.2-14.852 33.2-33.2z"/><path fill="#58595B" d="M-1232.822 3893.9h-27.9v-30.7h9v21.7h18.9v9zm-22.2-40.1c-17.798 0-32.2 14.404-32.2 32.2 0 17.798 14.405 32.2 32.2 32.2 17.798 0 32.2-14.405 32.2-32.2 0-17.8-14.404-32.2-32.2-32.2m0-9c22.754 0 41.2 18.446 41.2 41.2s-18.446 41.2-41.2 41.2-41.2-18.446-41.2-41.2 18.446-41.2 41.2-41.2z"/><path fill="#58595B" d="M-1024.388 3865.775v20.25h18.09v8.1h-26.19v-28.35h8.1zm-2.646-20.975c-11.243 0-22.232 4.505-29.666 11.807l-7.093-7.093-4.606 25.235 25.236-4.607-7.172-7.172c5.805-5.672 14.544-9.17 23.302-9.17 17.784 0 32.2 14.416 32.2 32.2s-14.416 32.2-32.2 32.2c-17.733 0-32.116-14.334-32.198-32.048l-8.96 1.692c.966 21.898 19.022 39.355 41.158 39.355 22.754 0 41.2-18.447 41.2-41.2s-18.446-41.2-41.2-41.2z"/><path fill="#58595B" d="M-757.797 3889.9c0-22.754-18.446-41.2-41.2-41.2s-41.2 18.446-41.2 41.2c0 8.868 2.803 17.082 7.57 23.804h14.96c3.194 5.656 10.35 9.596 18.67 9.596 8.318 0 15.476-3.94 18.67-9.596h14.96c4.767-6.722 7.57-14.936 7.57-23.804zm-15.425-22.098l-7.563 7.563c-1.085-1.358-2.32-2.592-3.677-3.677l7.563-7.563c1.315 1.128 2.55 2.362 3.678 3.677zm-15.21-10.178c1.642.538 3.255 1.207 4.802 1.994l-4.097 9.883c-1.52-.84-3.133-1.51-4.803-1.99l4.098-9.886zm-13.165-1.577c.877-.067 1.75-.1 2.6-.1.85 0 1.723.033 2.6.1v10.695c-.863-.096-1.736-.144-2.6-.144-.864 0-1.737.05-2.6.144v-10.695zm-1.278 35.846l3.878-18.174 3.878 18.173c2.47 1.367 4.145 4 4.145 7.022 0 4.43-3.59 8.02-8.02 8.02s-8.022-3.59-8.022-8.02c0-3.024 1.672-5.655 4.142-7.022zm-6.816-34.226l4.136 9.868c-1.668.488-3.277 1.163-4.795 2.012l-4.136-9.867c1.543-.792 3.153-1.468 4.795-2.013zm-11.406 6.458l7.563 7.563c-1.358 1.085-2.592 2.32-3.677 3.677l-7.563-7.563c1.13-1.315 2.363-2.55 3.677-3.677zm-10.18 15.215c.54-1.643 1.208-3.255 1.994-4.803l9.884 4.095c-.842 1.52-1.51 3.133-1.99 4.804l-9.887-4.096zm54.568 3.746c-.507-1.66-1.2-3.26-2.068-4.77l9.82-4.25c.807 1.528 1.5 3.13 2.066 4.77l-9.818 4.25z"/><path fill="#58595B" d="M-1669.65 2984.27l-8.79-36.226c-.77-3.077-3.533-5.235-6.704-5.235h-58.32c-3.17 0-5.935 2.157-6.704 5.234l-8.79 36.226c-2.445 9.776 8.65 14.61 15.09 8.168l11.216-11.22c1.66-1.983 4.114-3.13 6.7-3.13h23.294c2.587 0 5.04 1.146 6.7 3.13l11.216 11.22c6.443 6.44 17.537 1.607 15.093-8.168zm-56.353-21.362h-5.984v5.983h-4.735v-5.982h-5.984v-4.735h5.984v-5.983h4.735v5.983h5.984v4.735zm14.898 5.585h-6.44v-2.784h6.44v2.783zm13.12-5.946c-1.108 1.11-2.907 1.11-4.017 0-1.11-1.11-1.11-2.908 0-4.02 1.11-1.108 2.91-1.108 4.018 0 1.11 1.11 1.11 2.91 0 4.02zm6.286 5.787c-1.108 1.11-2.908 1.11-4.018 0-1.11-1.11-1.11-2.91 0-4.018 1.11-1.11 2.91-1.11 4.02 0 1.11 1.11 1.11 2.908 0 4.018zm0-11.47c-1.108 1.11-2.908 1.11-4.018 0-1.11-1.11-1.11-2.908 0-4.017 1.11-1.11 2.91-1.11 4.02 0 1.11 1.11 1.11 2.91 0 4.018zm6.268 5.683c-1.11 1.11-2.91 1.11-4.018 0-1.11-1.11-1.11-2.908 0-4.02 1.11-1.108 2.908-1.108 4.018 0 1.11 1.11 1.11 2.91 0 4.02z"/><path fill="#58595B" d="M-1444.413 2974.66v-11.096l-5.996-2.132c-2.285-.813-4.125-2.56-5.054-4.8v-.002c-.933-2.247-.868-4.784.177-6.98l2.73-5.746-7.846-7.847-5.744 2.73c-2.196 1.044-4.736 1.11-6.982.178h-.002c-2.243-.93-3.987-2.768-4.8-5.056l-2.133-5.998h-11.097l-2.132 5.996c-.813 2.286-2.56 4.125-4.8 5.055h-.003c-2.247.933-4.784.868-6.98-.177l-5.746-2.73-7.847 7.846 2.73 5.744c1.045 2.196 1.11 4.736.18 6.982l-.002.003c-.93 2.244-2.767 3.987-5.054 4.8l-5.997 2.134v11.097l5.996 2.133c2.286.813 4.125 2.56 5.055 4.8v.002c.933 2.248.868 4.785-.176 6.982l-2.73 5.745 7.846 7.847 5.744-2.73c2.196-1.045 4.736-1.11 6.982-.18l.002.002c2.244.93 3.987 2.767 4.8 5.055l2.133 5.997h11.096l2.12-5.958c.82-2.308 2.58-4.165 4.842-5.105h.003c2.226-.926 4.74-.862 6.917.173l5.78 2.748 7.847-7.846-2.732-5.747c-1.043-2.194-1.108-4.732-.177-6.975v-.003c.932-2.246 2.77-3.99 5.06-4.805l5.992-2.134zm-41.2 12.36c-9.89 0-17.91-8.017-17.91-17.908 0-9.89 8.018-17.91 17.91-17.91 9.89 0 17.91 8.02 17.91 17.91s-8.02 17.91-17.91 17.91z"/><path fill="#58595B" d="M-1217.38 2992.902l-33.136-33.137c-2.27-2.27-3.44-5.428-3.192-8.63.47-6.065-1.615-12.29-6.254-16.93-6.038-6.037-14.764-7.747-22.326-5.132l13.73 13.73c.314 5.355-7.967 13.637-13.323 13.32l-13.73-13.728c-2.615 7.562-.905 16.288 5.133 22.326 4.64 4.64 10.864 6.723 16.93 6.255 3.204-.248 6.356.92 8.63 3.192l33.136 33.137c3.976 3.977 10.424 3.977 14.402 0 3.976-3.977 3.976-10.425 0-14.402zm-7.697 10.777c-2.318 0-4.197-1.88-4.197-4.198s1.88-4.197 4.197-4.197c2.318 0 4.197 1.88 4.197 4.197 0 2.318-1.88 4.197-4.197 4.197z"/><path fill="#58595B" d="M-990.22 2969.605l-59.6 41.2v-82.4z"/><path fill="#58595B" d="M-802.102 3010.288h-24v-82.4h24v82.4zm39.328-82.4h-24v82.4h24v-82.4z"/><path fill="#58595B" d="M-1740.83 3212.212c7.328-31.917 43.828-39.344 43.828-39.344v-9.826l21.767 21.73-21.767 21.733v-9.826s-28.225-1.175-43.83 15.532zm44.005 4.01v8.005h-52.608v-34.074h11.512c2.3-2.963 4.91-5.697 7.795-8.202h-27.51v50.48h69.012v-24.397l-8.202 8.188z"/><path fill="#58595B" d="M-1444.413 3173.957c-3.032 1.345-6.29 2.254-9.71 2.662 3.49-2.093 6.172-5.406 7.434-9.354-3.266 1.937-6.883 3.344-10.734 4.102-3.084-3.286-7.477-5.338-12.34-5.338-10.912 0-18.934 10.183-16.467 20.757-14.05-.705-26.508-7.435-34.846-17.663-4.428 7.597-2.297 17.538 5.232 22.57-2.77-.088-5.378-.848-7.657-2.115-.184 7.83 5.428 15.155 13.558 16.79-2.38.646-4.985.795-7.634.288 2.15 6.716 8.394 11.604 15.792 11.74-7.107 5.57-16.06 8.058-25.028 7 7.48 4.797 16.367 7.596 25.914 7.596 31.386 0 49.12-26.51 48.05-50.287 3.303-2.383 6.17-5.36 8.435-8.75z"/><path fill="#58595B" d="M-1265.983 3185.603h-8.63v14.085h8.63v41.376h16.593v-41.552h11.576l1.232-13.91h-12.81v-7.922c0-3.28.66-4.578 3.83-4.578h8.98v-14.438h-11.49c-12.346 0-17.912 5.436-17.912 15.846v11.093z"/><path fill="#58595B" d="M-752.122 3176.557h-10.924v10.924h-5.462v-10.923h-10.924v-5.462h10.924v-10.924h5.462v10.925h10.924v5.462zm-30.883 45.183c0 8.19-7.477 18.157-26.287 18.157-13.757 0-25.23-5.934-25.23-15.914 0-7.703 4.877-17.702 27.665-17.702-3.384-2.758-4.215-6.614-2.147-10.79-13.343 0-20.176-7.845-20.176-17.805 0-9.746 7.248-18.606 22.03-18.606h23.68l-5.29 5.553h-6.217c4.385 2.512 6.717 7.687 6.717 13.39 0 5.235-2.883 9.475-6.997 12.656-7.3 5.643-5.432 8.795 2.217 14.373 7.543 5.65 10.035 10.01 10.035 16.687zm-14.77-43.362c-1.1-8.38-6.56-15.257-12.94-15.45-6.382-.19-10.662 6.225-9.56 14.608 1.102 8.38 7.167 14.236 13.55 14.428 6.38.19 10.052-5.204 8.95-13.586zm6.58 44.202c0-6.893-6.288-13.463-16.838-13.463-9.508-.104-17.566 6.008-17.566 13.094 0 7.232 6.868 13.25 16.377 13.25 12.155 0 18.028-5.65 18.028-12.88z"/><path fill="#58595B" d="M-1710.432 3443.573l-8.91 8.91h-8.625v8.624h-8.994v8.13h-19.975v-13.853l28.652-28.652c3.232 7.7 9.63 13.935 17.85 16.84zm27.35-45.837c9.53 9.53 9.53 24.98 0 34.51-9.53 9.532-24.98 9.532-34.51 0-9.53-9.53-9.53-24.98 0-34.51 9.53-9.53 24.98-9.53 34.51 0zm-4.898 4.88c-2.364-2.362-6.196-2.363-8.56 0-2.364 2.365-2.364 6.197 0 8.56 2.363 2.365 6.196 2.364 8.56 0 2.364-2.363 2.363-6.196 0-8.56z"/><path fill="#58595B" d="M-1485.613 3388.712c-22.754 0-41.2 18.446-41.2 41.2s18.446 41.2 41.2 41.2 41.2-18.446 41.2-41.2-18.445-41.2-41.2-41.2zm20.72 34.1c.604 13.44-9.42 28.426-27.16 28.426-5.396 0-10.42-1.582-14.648-4.293 5.068.597 10.128-.81 14.146-3.957-4.18-.077-7.71-2.84-8.926-6.636 1.497.286 2.97.203 4.315-.163-4.595-.924-7.768-5.064-7.664-9.49 1.29.715 2.763 1.145 4.33 1.194-4.257-2.844-5.462-8.464-2.958-12.758 4.713 5.78 11.754 9.586 19.696 9.984-1.394-5.977 3.14-11.733 9.308-11.733 2.748 0 5.232 1.16 6.975 3.018 2.178-.43 4.223-1.224 6.07-2.32-.715 2.232-2.23 4.105-4.203 5.288 1.933-.23 3.775-.744 5.488-1.505-1.28 1.915-2.9 3.598-4.768 4.945z"/><path fill="#58595B" d="M-1255.022 3388.712c-22.754 0-41.2 18.446-41.2 41.2s18.446 41.2 41.2 41.2 41.2-18.446 41.2-41.2-18.445-41.2-41.2-41.2zm12.194 24.238h-5.758c-2.032 0-2.456.833-2.456 2.936v5.08h8.214l-.79 8.92h-7.424v26.645h-10.64V3430h-5.533v-9.033h5.533v-7.113c0-6.676 3.57-10.16 11.487-10.16h7.367v9.256z"/><path fill="#58595B" d="M-1025.75 3388.712c-22.753 0-41.2 18.446-41.2 41.2s18.447 41.2 41.2 41.2c22.755 0 41.2-18.446 41.2-41.2s-18.445-41.2-41.2-41.2zm-10.99 61.12h-9.047v-29.226h9.046v29.225zm-4.567-33.053c-2.954 0-5.35-2.416-5.35-5.394s2.396-5.393 5.35-5.393c2.954 0 5.35 2.415 5.35 5.393 0 2.978-2.396 5.393-5.35 5.393zm38.465 33.05h-9.002v-15.34c0-4.208-1.598-6.556-4.925-6.556-3.62 0-5.51 2.446-5.51 6.556v15.34h-8.677v-29.224h8.676v3.936s2.608-4.827 8.805-4.827c6.197 0 10.633 3.783 10.633 11.612v18.504z"/><path fill="#58595B" d="M-1044.807 3168.8c0 5.6-4.502 10.137-10.055 10.137s-10.055-4.538-10.055-10.136 4.502-10.135 10.055-10.135c5.554 0 10.055 4.538 10.055 10.136zm-1.47 17.33h-17.004v54.934h17.002v-54.933zm27.18 0h-16.31v54.934h16.31v-28.836c0-7.725 3.555-12.323 10.36-12.323 6.254 0 9.258 4.414 9.258 12.323v28.836h16.922v-34.783c0-14.713-8.338-21.825-19.987-21.825-11.65 0-16.554 9.074-16.554 9.074l.002-7.4z"/><path fill="#58595B" d="M-791.047 3444.844c0 4.05-3.29 7.213-10.096 7.213-5.325 0-9.17-3.37-9.17-7.42 0-3.968 4.512-7.39 9.837-7.333 5.907 0 9.43 3.68 9.43 7.54zm37.81-14.932c0 22.754-18.447 41.2-41.2 41.2s-41.2-18.446-41.2-41.2 18.445-41.2 41.2-41.2 41.2 18.446 41.2 41.2zm-33.224 14.46c0-3.737-1.397-6.18-5.62-9.344-4.283-3.124-5.33-4.888-1.242-8.05 2.304-1.78 3.918-4.156 3.918-7.087 0-3.193-1.306-6.09-3.762-7.498h3.48l2.964-3.11h-13.26c-8.28 0-12.338 4.962-12.338 10.42 0 5.578 3.826 9.97 11.298 9.97-1.158 2.34-.693 4.5 1.202 6.044-12.76 0-15.492 5.6-15.492 9.913 0 5.588 6.425 8.91 14.13 8.91 10.534 0 14.72-5.58 14.72-10.167zm17.294-28.36h-6.118v-6.118h-3.06v6.118h-6.117v3.06h6.117v6.116h3.06v-6.117h6.117v-3.058zm-25.565 4.08c-.618-4.694-3.675-8.545-7.248-8.652-3.574-.106-5.97 3.485-5.353 8.18.616 4.693 4.012 7.972 7.587 8.08 3.572.106 5.628-2.915 5.012-7.61z"/><path fill="#58595B" d="M-1707.947 3692.12h-16.132v-38.33h16.133v38.33zm-8.066-46.258c-4.903 0-8.88-3.976-8.88-8.88 0-4.903 3.977-8.878 8.88-8.878 4.904 0 8.88 3.976 8.88 8.88s-3.976 8.878-8.88 8.878z"/><path fill="#58595B" d="M-816.312 3701.312h-21.417v-20.787h21.418v20.787zm27.926-30.655h-21.627v30.656h21.627v-30.656zm27.716-13.438h-21.627v44.093h21.627v-44.094zm.404-38.308l-17.526 3.032 3.857 3.896-26.36 25.333-9.573-9.05-26.803 26.703 6.593 6.485 19.932-19.93 9.872 9.34 32.906-32.122 3.746 3.78 3.354-17.466z"/><path fill="#58595B" d="M-1031.88 3643.833c-1.495.898-2.722 2.06-3.732 3.363l-3.376-1.17c1.354-2.017 3.118-3.795 5.33-5.132 2.22-1.338 4.614-2.067 7.03-2.325l-.544 3.533c-1.62.285-3.22.83-4.708 1.73zm5.787-8.784l.53-3.47c-3.983.126-7.987 1.23-11.64 3.435-3.655 2.204-6.5 5.234-8.467 8.7l3.316 1.146c1.67-2.74 3.99-5.137 6.927-6.906 2.93-1.77 6.132-2.707 9.334-2.905zm7.21 19.196c0 3.794-3.07 6.866-6.866 6.866-3.793 0-6.866-3.073-6.866-6.866 0-3.794 3.073-6.867 6.867-6.867 3.796 0 6.868 3.072 6.868 6.866zm-3.433 0c0-1.893-1.54-3.433-3.433-3.433-1.892 0-3.432 1.54-3.432 3.433s1.54 3.433 3.433 3.433c1.894 0 3.434-1.542 3.434-3.434zm30.9-34.334v80.4h-68.666v-80.4h68.666zm-11.963 63.336c-2.426-2.863-9.028-10.575-10.198-12.15-1.763-2.38-4.546-.95-3.474 1.91.865 2.313 4.345 11.514 5.804 15.222 3.182 8.074 13.53 1.703 7.87-4.982zm5.098-29.002c0-15.17-12.298-27.467-27.467-27.467-15.17 0-27.466 12.295-27.466 27.466 0 15.168 12.297 27.467 27.467 27.467 2.74 0 5.382-.412 7.88-1.16-1.053-2.773-2.005-5.294-2.394-6.337-2.473-6.565 5.335-10.712 9.442-5.167.5.67 2.22 2.728 4.11 4.968 5.19-4.997 8.43-12 8.43-19.772z"/><path fill="#58595B" d="M-1214.397 3660.112c0-23.12-18.752-41.2-41.2-41.2-22.292 0-41.2 17.89-41.2 41.2 0 23.447 19.025 41.2 41.2 41.2 22.313 0 41.2-17.92 41.2-41.2zm-60.694-15.116c-.787 3.78-1.274 7.806-1.43 11.958h-11.82c.527-5.53 2.422-10.66 5.345-15.048 2.537 1.284 5.21 2.294 7.904 3.09zm-1.413 18.274c.18 4.19.698 8.244 1.52 12.044-2.757.81-5.398 1.808-7.956 3.092-2.954-4.408-4.87-9.57-5.4-15.136h11.837zm3.178 18.134c.987 2.958 2.243 5.875 3.86 8.543-3.488-1.624-6.643-3.84-9.336-6.52 1.697-.77 3.53-1.446 5.475-2.023zm20.886-8.66v-9.474h11.534c-.17 3.7-.628 7.263-1.34 10.59-3.257-.598-6.68-.976-10.193-1.116zm8.5 7.223c-1.548 4.43-4.38 10.18-8.5 12.416v-13.32c2.933.128 5.784.432 8.5.904zm-8.5-23.013v-9.357c3.554-.142 7.013-.527 10.303-1.138.677 3.305 1.1 6.836 1.248 10.494h-11.55zm0-15.678v-13.856c4.25 2.308 7.13 8.333 8.672 12.922-2.767.49-5.676.805-8.67.934zm-6.315-13.8v13.796c-2.958-.132-5.83-.445-8.566-.93 1.533-4.567 4.38-10.517 8.565-12.865zm0 20.116v9.362h-11.445c.148-3.658.572-7.19 1.248-10.495 3.257.604 6.68.987 10.197 1.132zm-10.087 26.27c-.713-3.328-1.17-6.892-1.34-10.592h11.428v9.478c-3.477.144-6.864.52-10.088 1.114zm10.087 5.207v13.257c-4.062-2.28-6.856-7.96-8.393-12.36 2.683-.467 5.498-.77 8.393-.898zm20.99 2.334c1.92.57 3.727 1.235 5.405 1.99-2.663 2.658-5.78 4.86-9.223 6.484 1.605-2.663 2.842-5.546 3.82-8.474zm1.66-6.09c.82-3.8 1.34-7.855 1.52-12.044h11.73c-.528 5.55-2.435 10.697-5.374 15.095-2.56-1.277-5.166-2.257-7.876-3.052zm7.934-33.368c2.906 4.38 4.792 9.496 5.317 15.008h-11.714c-.156-4.153-.643-8.178-1.43-11.958 2.68-.793 5.327-1.792 7.826-3.05zm-4.11-5.036c-1.653.75-3.435 1.41-5.323 1.98-.942-2.917-2.126-5.76-3.635-8.38 3.34 1.623 6.366 3.796 8.958 6.4zm-37.528-6.472c-1.542 2.665-2.73 5.52-3.677 8.45-1.916-.576-3.722-1.248-5.396-2.012 2.62-2.627 5.686-4.814 9.072-6.438z"/><path fill="#58595B" d="M-1498.613 3676.245c3.327-3.327 7.923-5.385 13-5.385s9.673 2.058 13 5.385l-13 13-13-13zm-6-6c4.862-4.862 11.58-7.87 19-7.87s14.138 3.008 19 7.87l8-8c-6.91-6.91-16.456-11.184-27-11.184s-20.09 4.275-27 11.185l8 8zm-14-14c8.445-8.446 20.113-13.67 33-13.67s24.554 5.224 33 13.67l8.2-8.2c-10.544-10.544-25.11-17.066-41.2-17.066s-30.656 6.52-41.2 17.065l8.2 8.2z"/><path fill="#58595B" d="M-1675.643 2025.412l-54.877 54.877-27.085 4.997 5.464-26.62 54.875-54.876c12.213-2.938 24.56 9.41 21.622 21.622zm-58.164 48.773c1.61-6.026-6.205-13.84-12.23-12.23l-3.082 15.014 15.313-2.785z"/><path fill="#58595B" d="M-1689.996 1616.935l-11.03 10.977-41.003-41.2 41.004-41.2 11.03 10.978-30.08 30.222z"/><path fill="#58595B" d="M-1515.835 1612.73l-10.978-11.03 41.2-41.005 41.2 41.004-10.977 11.03-30.223-30.08z"/><path fill="#58595B" d="M-993.514 1560.695l10.977 11.03-41.2 41.004-41.2-41.005 10.978-11.03 30.223 30.08z"/><path fill="#58595B" d="M-1530.613 2235.804v69.58h90v-69.58h-90zm80.802 60.382h-71.604v-51.184h71.603v51.184zm-23.047 14.636l9.198 9.198h-43.907l9.198-9.198h25.513z"/><path fill="#58595B" d="M-1485.613 4091.89c-12.122-7.546-30.59-10.586-49.5-11.163v68.083c16.24.496 32.152 2.808 44 8.23 3.494 1.598 7.51 1.596 11.004-.003 11.848-5.42 27.76-7.732 43.997-8.228v-68.084c-18.91.578-37.378 3.618-49.5 11.164zm-39.888-1c11.414.958 25.353 3.278 35.082 9.33v46.673c-9.448-3.75-21.184-6.16-35.083-7.205v-48.798zm79.776 48.798c-13.9 1.044-25.635 3.457-35.083 7.205v-46.673c9.728-6.052 23.668-8.372 35.083-9.33v48.798z"/><path fill="#58595B" d="M-798.997 4074.482c-24.838 0-45 20.145-45 45 0 24.845 20.152 45 45 45 24.835 0 45-20.142 45-45 0-24.836-20.144-45-45-45zm16.373 61.373c-9.04 9.04-23.69 9.056-32.746 0-9.043-9.042-9.053-23.694 0-32.747 9.047-9.047 23.697-9.05 32.746 0 9.042 9.042 9.054 23.694 0 32.747zm1.16-51.832l-5.42 9.515c-7.628-3.57-16.59-3.573-24.226 0l-5.42-9.515c10.798-5.35 23.903-5.532 35.065 0zm-53.02 17.98l9.517 5.42c-3.558 7.645-3.595 16.778.235 24.608l-9.507 5.417c-5.563-10.885-5.812-24.16-.243-35.443zm18.234 53.075l5.424-9.52c7.47 3.395 16.18 3.4 23.66 0l5.423 9.52c-10.695 5.193-23.542 5.325-34.507 0zm42.987-23.046c3.823-7.817 3.8-16.95.235-24.607l9.516-5.42c5.388 10.914 5.506 24.193-.244 35.444l-9.507-5.418z"/><path fill="#58595B" d="M-1219.882 4123.81v36.31h-25.944v-19.732h-19.54v19.732h-25.944v-36.31h-9.286l45-44.965 45 44.966h-9.286z"/><path fill="#58595B" d="M-991.103 4101.654v-19.992h-69.29v19.992h-12.155v46.118h11.804l9.014-17.91h52.33l8.835 17.91h11.617v-46.118h-12.155zm-9.088 0h-51.118v-10.905h51.117v10.904zm12.23 11.534c-1.518 0-2.75-1.23-2.75-2.75 0-1.518 1.232-2.748 2.75-2.748s2.75 1.23 2.75 2.75c0 1.517-1.232 2.748-2.75 2.748zm-17.175 25.307l8.826 18.808h-58.688l9.01-18.808h40.853"/><g fill="#58595B"><path d="M-1691.663 4101.346v-34.477h-49.846v34.476h-7.476v57.323h64.8v-57.324h-7.477zm-42.37-27h34.892v27h-34.893v-27zm42.37 76.846h-49.846v-42.37h49.847v42.37zM-1730.65 4080.636h10.68v10.68h-10.68zM-1713.204 4080.76h10.68v10.68h-10.68z"/></g><path fill="#0073A8" d="M163.278 2684.44v223.936h1633.45V2684.44H163.278zm59.42 161.08l39.287-98.225h47.46l-39.287 98.225h-47.46zm76.926 0l39.286-98.225h47.457l-39.286 98.225h-47.456zm76.922 0l39.286-98.225h47.457L424 2845.52h-47.454zm73.153 0l39.285-98.225h47.46l-39.287 98.225h-47.46zm124.38 0h-47.456l39.286-98.225h47.457l-39.286 98.225zm875.57-16.312c-18.112 0-32.8-14.688-32.8-32.804s14.688-32.8 32.8-32.8c18.12 0 32.808 14.683 32.808 32.8s-14.687 32.804-32.808 32.804zm121 0c-18.112 0-32.8-14.688-32.8-32.804s14.688-32.8 32.8-32.8c18.12 0 32.808 14.683 32.808 32.8s-14.687 32.804-32.808 32.804zm120 0c-18.112 0-32.8-14.688-32.8-32.804s14.688-32.8 32.8-32.8c18.12 0 32.808 14.683 32.808 32.8s-14.687 32.804-32.808 32.804zM577.932 2489.782h809.825l330.348 165.73H241.9zM0 0v17h124.003V0H0zm4.51 12.228L7.494 4.77h3.603L8.113 12.23H4.51zm5.84 0l2.983-7.457h3.603l-2.982 7.458H10.35zm5.84 0l2.982-7.457h3.603l-2.983 7.458H16.19zm5.554 0l2.982-7.457h3.603l-2.984 7.458h-3.602zm9.442 0h-3.603l2.982-7.457h3.603l-2.982 7.458zm66.47-1.238c-1.376 0-2.49-1.115-2.49-2.49s1.114-2.49 2.49-2.49c1.375 0 2.49 1.115 2.49 2.49s-1.116 2.49-2.49 2.49zm9.184 0c-1.375 0-2.49-1.115-2.49-2.49s1.115-2.49 2.49-2.49c1.376 0 2.49 1.115 2.49 2.49s-1.114 2.49-2.49 2.49zm9.11 0c-1.375 0-2.49-1.115-2.49-2.49s1.115-2.49 2.49-2.49c1.376 0 2.49 1.115 2.49 2.49s-1.114 2.49-2.49 2.49z"/></svg>