<?xml version="1.0" encoding="utf-8"?>
<!-- Generator: Adobe Illustrator 17.0.0, SVG Export Plug-In . SVG Version: 6.00 Build 0)  -->
<!DOCTYPE svg PUBLIC "-//W3C//DTD SVG 1.1//EN" "http://www.w3.org/Graphics/SVG/1.1/DTD/svg11.dtd">
<svg version="1.1" id="Layer_1" xmlns="http://www.w3.org/2000/svg" xmlns:xlink="http://www.w3.org/1999/xlink" x="0px" y="0px"
	 width="2628px" height="2061.333px" viewBox="0 0 2628 2061.333" enable-background="new 0 0 2628 2061.333" xml:space="preserve">
<polygon id="check-mark-icon" fill="#58595B" points="-1353.572,-304.203 -1393.27,-264.505 -1410.465,-281.705 -1423.215,-268.952 
	-1393.269,-238.997 -1340.816,-291.455 "/>
<polygon id="x-mark-icon" fill="#58595B" points="-1115.137,-247.881 -1138.864,-271.605 -1115.14,-295.33 -1127.896,-308.079 
	-1151.617,-284.355 -1175.341,-308.076 -1188.094,-295.33 -1164.366,-271.603 -1188.091,-247.875 -1175.345,-235.121 
	-1151.615,-258.853 -1127.885,-235.124 "/>
<polygon id="x-mark-icon_1_" fill="#58595B" points="-878.458,-280.623 -912.01,-280.621 -912.011,-314.173 -930.046,-314.167 
	-930.044,-280.619 -963.592,-280.617 -963.597,-262.586 -930.042,-262.587 -930.04,-229.033 -912.009,-229.027 -912.01,-262.588 
	-878.452,-262.589 "/>
<polygon id="x-mark-icon_2_" fill="#58595B" points="-647.173,-280.511 -732.307,-280.504 -732.313,-262.473 -647.167,-262.476 "/>
<path id="menu-icon" fill="#58595B" d="M-419.243-289.734h-82.4v-13h82.4V-289.734z M-419.243-277.734h-82.4v13h82.4V-277.734z
	 M-419.243-252.734h-82.4v13h82.4V-252.734z"/>
<polygon id="arrow-25-icon" fill="#58595B" points="-947.041,-71.423 -936.012,-82.4 -895.008,-41.2 -936.012,0 -947.041,-10.977 
	-916.962,-41.2 "/>
<path id="menu-2-icon" fill="#58595B" d="M-486.969-11.006h-14.605v-13h14.605V-11.006z M-486.969-49.006h-14.605v13h14.605V-49.006
	z M-486.969-74.006h-14.605v13h14.605V-74.006z M-477.969-74.006v13h58.795v-13H-477.969z M-477.969-36.006h58.795v-13h-58.795
	V-36.006z M-477.969-11.006h58.795v-13h-58.795V-11.006z"/>
<path id="warning-4-icon" fill="#58595B" d="M-1396.339,154.813h16.678v50.581h-16.678V154.813L-1396.339,154.813z M-1388,230.875
	c-4.971,0-9-4.03-9-9c0-4.971,4.03-9,9-9c4.97,0,9,4.03,9,9C-1379,226.846-1383.03,230.875-1388,230.875z"/>
<path id="help-icon" fill="#58595B" d="M-1150.923,230.4c-4.973,0-9.006-4.033-9.006-9.008c0-4.972,4.033-9.004,9.006-9.004
	c4.974,0,9.006,4.032,9.006,9.004C-1141.917,226.367-1145.949,230.4-1150.923,230.4z M-1143.843,203.78v1.62c0,0-13.503,0-14.846,0
	v-1.62c0-4.584,0.669-10.465,5.991-15.578c5.323-5.113,11.974-9.337,11.974-15.725c0-7.062-4.901-10.797-11.08-10.797
	c-10.297,0-10.969,10.679-11.223,13.03h-14.44c0.385-11.135,5.091-26.71,25.749-26.71c17.903,0,25.951,11.99,25.951,23.233
	C-1125.766,189.129-1143.843,192.238-1143.843,203.78z"/>
<path id="refresh-3-icon" fill="#58595B" d="M-897.771,165.441l-7.45,7.451c-4.045-4.045-9.632-6.546-15.804-6.546
	c-12.344,0-22.35,10.011-22.35,22.355c0,0.003,0-0.003,0,0h8.682l-13.868,13.863l-13.854-13.863h8.503c0-0.002,0,0.001,0,0
	c0-18.163,14.724-32.892,32.887-32.892C-911.944,155.809-903.722,159.49-897.771,165.441z M-880.016,187.553l-13.854-13.863
	l-13.868,13.863h8.682c0,0.003,0-0.003,0,0c0,12.344-10.007,22.355-22.35,22.355c-6.172,0-11.759-2.502-15.804-6.546l-7.45,7.451
	c5.952,5.951,14.173,9.632,23.255,9.632c18.163,0,32.887-14.729,32.887-32.892c0-0.001,0,0.002,0,0L-880.016,187.553
	L-880.016,187.553z"/>
<path id="magnifier-2-icon" fill="#58595B" d="M-649.945,222.318l-21.302-21.302c4.008-5.511,6.377-12.287,6.377-19.607
	c0-18.421-14.987-33.408-33.409-33.408c-18.421,0-33.408,14.987-33.408,33.408c0,18.421,14.987,33.408,33.408,33.408
	c6.982,0,13.47-2.155,18.837-5.832l21.415,21.415L-649.945,222.318z M-721.889,181.408c0-13.019,10.592-23.611,23.611-23.611
	c13.02,0,23.611,10.592,23.611,23.611c0,13.019-10.592,23.611-23.611,23.611C-711.298,205.019-721.889,194.427-721.889,181.408z"/>
<path id="download-2-icon" fill="#58595B" d="M-444.852,183.191h13.252l-28.815,28.864l-28.814-28.864h13.251v-36.265h31.127
	L-444.852,183.191L-444.852,183.191z M-436.568,206.292v13.034h-47.694v-13.034h-10v23.034h67.695v-23.034H-436.568z"/>
<path id="blank-file-2-icon" fill="#58595B" d="M-1143.252,386.4v17.15h17.173v49.25h-51.073v-66.4H-1143.252 M-1138.252,378.4
	h-46.9v82.4h67.073v-62.25L-1138.252,378.4z"/>
<path id="folder-icon" fill="#58595B" d="M-927.398,396.053c-2.552,0-5.001-1.011-6.81-2.812l-6.538-6.509h-21.67v65.736h82.4
	v-56.415H-927.398z"/>
<path id="email-3-icon" fill="#58595B" d="M-690.812,423.087l-41.034-34.006h82.181L-690.812,423.087z M-690.819,434.18
	l-41.197-34.131v50.07h82.4v-49.988L-690.819,434.18z"/>
<path id="location-5-icon" fill="#58595B" d="M-460.416,378.4c-18.612,0-33.7,15.088-33.7,33.7c0,18.9,16.386,31.367,33.7,48.7
	c17.314-17.333,33.7-29.8,33.7-48.7C-426.716,393.488-441.803,378.4-460.416,378.4z"/>
<path id="laptop-5-icon" fill="#58595B" d="M-1431.908,674.99v7.93h99v-7.93H-1431.908z M-1341.291,671.386V617.08h-82.1v54.306
	H-1341.291z M-1347.779,623.568v41.29h-69.124v-41.29H-1347.779z"/>
<path id="server-3-icon" fill="#58595B" d="M-880.016,638.862h-82.4v20.653h82.4V638.862z M-956.935,653.718l3.623-9.059h4.377
	l-3.623,9.059H-956.935z M-949.841,653.718l3.623-9.059h4.377l-3.623,9.059H-949.841z M-942.747,653.718l3.623-9.059h4.377
	l-3.623,9.059H-942.747z M-889.799,652.214c-1.67,0-3.025-1.355-3.025-3.025c0-1.671,1.355-3.025,3.025-3.025
	c1.671,0,3.026,1.354,3.026,3.025C-886.773,650.859-888.128,652.214-889.799,652.214z M-884.558,633.427h-73.138l14.424-19.03
	h44.113L-884.558,633.427z M-880.016,664.95h-82.4v20.653h82.4V664.95z M-956.935,679.805l3.623-9.059h4.377l-3.623,9.059H-956.935z
	 M-949.841,679.805l3.623-9.059h4.377l-3.623,9.059H-949.841z M-942.747,679.805l3.623-9.059h4.377l-3.623,9.059H-942.747z
	 M-889.799,678.301c-1.67,0-3.025-1.354-3.025-3.025c0-1.671,1.355-3.025,3.025-3.025c1.671,0,3.026,1.354,3.026,3.025
	C-886.773,676.947-888.128,678.301-889.799,678.301z"/>
<g>
	<polygon fill="#58595B" points="-699.726,666.266 -691.752,644.791 -698.487,644.791 -703.258,660.245 -708.091,644.791 
		-715.028,644.791 -706.918,666.266 	"/>
	<polygon fill="#58595B" points="-684.223,649.889 -680.043,666.266 -675.124,666.266 -670.936,649.889 -670.936,666.266 
		-665.502,666.266 -665.502,644.791 -674.223,644.791 -677.565,657.857 -680.93,644.791 -689.657,644.791 -689.657,666.266 
		-684.223,666.266 	"/>
	<path fill="#58595B" d="M-732.94,614.234v71.531h86.4v-71.531H-732.94z M-704.34,618.066c1.988,0,3.6,1.612,3.6,3.6
		c0,1.988-1.612,3.6-3.6,3.6s-3.6-1.612-3.6-3.6C-707.94,619.677-706.328,618.066-704.34,618.066z M-714.34,618.066
		c1.988,0,3.6,1.612,3.6,3.6c0,1.988-1.612,3.6-3.6,3.6s-3.6-1.612-3.6-3.6C-717.94,619.677-716.328,618.066-714.34,618.066z
		 M-724.34,618.066c1.988,0,3.6,1.612,3.6,3.6c0,1.988-1.612,3.6-3.6,3.6s-3.6-1.612-3.6-3.6
		C-727.94,619.677-726.328,618.066-724.34,618.066z M-651.58,680.566h-76.32v-51.11h76.32V680.566z"/>
</g>
<path fill="#58595B" d="M-460.375,608.783c-19.882,0-36,16.118-36,36v46.408l12.829-12.816l11.629,11.629l11.592-11.592
	l11.438,11.437l11.566-11.566l12.947,12.934v-46.433C-424.375,624.901-440.492,608.783-460.375,608.783z M-474.775,655.516
	c-5.965,0-10.8-4.835-10.8-10.8c0-5.965,4.835-10.8,10.8-10.8c5.965,0,10.8,4.835,10.8,10.8
	C-463.975,650.681-468.81,655.516-474.775,655.516z M-445.975,655.516c-5.965,0-10.8-4.835-10.8-10.8c0-5.965,4.835-10.8,10.8-10.8
	c5.965,0,10.8,4.835,10.8,10.8C-435.175,650.681-440.01,655.516-445.975,655.516z"/>
<path id="shield-icon" fill="#58595B" d="M-1382.438,839.2c-10.284,10.283-25.033,13.4-37.1,13.4c0,29.467,16.733,55.6,37.1,69
	c20.367-13.4,37.1-39.533,37.1-69C-1357.404,852.6-1372.154,849.483-1382.438,839.2z"/>
<path id="firewall-icon" fill="#58595B" d="M-1117.979,881.072c-1.246,5.315-7.102,10.548-10.963,10.583
	c4.064-9.291,4.795-23.691-3.876-35.767c-0.86,6.204-4.723,10.315-8.833,11.437c4.361-15.325-11.171-29.461-24.642-30.816
	c8.052,20.089-27.438,31.19-5.96,57.169c-3.37-0.147-11.344-2.805-12.857-12.031c-3.762,17.325,6.331,39.378,24.124,41.291
	c7.582,0,14.085,0,18.349,0C-1131.699,922.938-1113.715,906.544-1117.979,881.072z"/>
<path id="lock-icon" fill="#58595B" d="M-943.733,873.867v-12.533c0-12.204,9.929-22.133,22.133-22.133
	c12.204,0,22.133,9.929,22.133,22.133v12.533h-10v-12.533c0-6.69-5.443-12.133-12.133-12.133c-6.69,0-12.133,5.443-12.133,12.133
	v12.533H-943.733z M-951.2,879.867V921.6h59.2v-41.733H-951.2z"/>
<path fill="#58595B" d="M-664.1,869.287c-4.399-13.587-17.157-23.412-32.209-23.412c-18.694,0-33.848,15.154-33.848,33.848
	c0,2.697,0.316,5.32,0.912,7.835h25.101v25.101c2.515,0.596,5.138,0.912,7.835,0.912c14.879,0,27.515-9.6,32.053-22.944
	l15.098,10.922v-43.654L-664.1,869.287z M-710.792,876.518c-3.786,0-6.856-3.069-6.856-6.856c0-3.786,3.069-6.856,6.856-6.856
	c3.786,0,6.856,3.069,6.856,6.856C-703.936,873.449-707.005,876.518-710.792,876.518z"/>
<path id="user-6-icon" fill="#58595B" d="M-436.164,857.77c0,13.255-10.745,24-24,24c-13.255,0-24-10.745-24-24
	c0-13.255,10.745-24,24-24C-446.909,833.77-436.164,844.515-436.164,857.77z M-440.354,882.902
	c-5.594,4.417-12.527,6.868-19.809,6.868c-7.367,0-14.368-2.509-19.987-7.01c-14.811,5.435-21.424,24.436-21.424,33.11h82.4
	C-419.175,907.27-425.839,888.405-440.354,882.902z"/>
<g>
	<path fill="#58595B" d="M-1417.081,1075.734L-1417.081,1075.734c-6.032,6.032-6.032,15.903,0,21.935l8.434,8.434l21.935-21.935
		l-8.434-8.434C-1401.178,1069.702-1411.049,1069.702-1417.081,1075.734z"/>
	<path fill="#58595B" d="M-1346.95,1123.93l-8.434-8.434l-21.935,21.935l8.434,8.434c6.032,6.032,15.903,6.032,21.935,0v0
		C-1340.918,1139.833-1340.918,1129.962-1346.95,1123.93z"/>
	<path fill="#58595B" d="M-1404.939,1109.811l23.912,23.912l21.935-21.935l-23.912-23.912L-1404.939,1109.811z M-1366.72,1109.011
		c1.266,1.266,1.266,3.319,0,4.585c-1.266,1.266-3.319,1.266-4.585,0c-1.266-1.266-1.266-3.319,0-4.585
		C-1370.039,1107.745-1367.986,1107.745-1366.72,1109.011z M-1372.727,1115.018c1.266,1.266,1.266,3.319,0,4.585
		c-1.266,1.266-3.319,1.266-4.585,0c-1.266-1.266-1.266-3.319,0-4.585C-1376.046,1113.752-1373.993,1113.752-1372.727,1115.018z
		 M-1378.734,1121.026c1.266,1.266,1.266,3.319,0,4.585c-1.266,1.266-3.319,1.266-4.585,0c-1.266-1.266-1.266-3.319,0-4.585
		C-1382.053,1119.759-1380,1119.759-1378.734,1121.026z M-1373.333,1102.398c1.266,1.266,1.266,3.319,0,4.585
		c-1.266,1.266-3.319,1.266-4.585,0c-1.266-1.266-1.266-3.319,0-4.585C-1376.651,1101.132-1374.599,1101.132-1373.333,1102.398z
		 M-1379.34,1108.405c1.266,1.266,1.266,3.319,0,4.585c-1.266,1.266-3.319,1.266-4.585,0s-1.266-3.319,0-4.585
		C-1382.659,1107.139-1380.606,1107.139-1379.34,1108.405z M-1385.347,1114.413c1.266,1.266,1.266,3.319,0,4.585
		c-1.266,1.266-3.319,1.266-4.585,0c-1.266-1.266-1.266-3.319,0-4.585S-1386.613,1113.147-1385.347,1114.413z M-1380.227,1095.504
		c1.266,1.266,1.266,3.319,0,4.585c-1.266,1.266-3.319,1.266-4.585,0c-1.266-1.266-1.266-3.319,0-4.585
		C-1383.546,1094.238-1381.493,1094.238-1380.227,1095.504z M-1386.234,1101.511c1.266,1.266,1.266,3.319,0,4.585
		c-1.266,1.266-3.319,1.266-4.585,0c-1.266-1.266-1.266-3.319,0-4.585C-1389.553,1100.245-1387.5,1100.245-1386.234,1101.511z
		 M-1392.241,1107.519c1.266,1.266,1.266,3.319,0,4.585c-1.266,1.266-3.319,1.266-4.585,0c-1.266-1.266-1.266-3.319,0-4.585
		C-1395.56,1106.253-1393.507,1106.253-1392.241,1107.519z"/>
</g>
<g>
	<polygon fill="#58595B" points="-1189.289,1075.405 -1129.432,1075.404 -1129.432,1080.205 -1123.906,1080.205 -1123.906,1069.878 
		-1194.816,1069.878 -1194.816,1124.7 -1184.489,1124.7 -1184.489,1115.732 -1189.289,1115.732 	"/>
	<polygon fill="#58595B" points="-1153.921,1144.475 -1161.168,1151.722 -1126.573,1151.722 -1133.82,1144.475 	"/>
	<path fill="#58595B" d="M-1179.326,1085.368v54.822h70.91v-54.822H-1179.326z M-1173.799,1090.895l59.857,0v40.328h-59.857
		L-1173.799,1090.895z"/>
</g>
<path id="virus-icon" fill="#58595B" d="M-886.778,1103.846c-1.561,0-3.001,0.514-4.161,1.383c-2.381,1.782-5.277,2.751-8.251,2.751
	c-2.425,0-4.627-1.417-5.63-3.625c-1.158-2.543-0.517-5.257,1.228-7.001c2.11-2.11,4.827-3.465,7.78-3.889
	c1.434-0.206,2.816-0.861,3.92-1.964c2.716-2.716,2.715-7.118,0-9.834c-2.715-2.715-7.118-2.716-9.834,0
	c-1.104,1.103-1.758,2.485-1.964,3.92c-0.423,2.944-1.785,5.677-3.888,7.78c-1.776,1.776-4.45,2.307-6.769,1.343
	c-0.008-0.003-0.016-0.007-0.024-0.01c-2.319-0.959-3.834-3.224-3.834-5.734c0-2.984,0.963-5.863,2.751-8.252
	c0.868-1.16,1.383-2.6,1.383-4.161c0-3.841-3.113-6.954-6.954-6.954s-6.954,3.113-6.954,6.953c0,1.561,0.514,3.001,1.383,4.161
	c1.782,2.381,2.751,5.276,2.751,8.251c0,2.51-1.514,4.776-3.834,5.735c-0.008,0.003-0.016,0.007-0.024,0.01
	c-2.319,0.963-4.993,0.433-6.768-1.342c-2.11-2.11-3.465-4.826-3.889-7.781c-0.206-1.434-0.861-2.816-1.964-3.92
	c-2.715-2.716-7.118-2.715-9.834,0c-2.716,2.716-2.716,7.118,0,9.834c1.103,1.104,2.485,1.758,3.92,1.964
	c2.944,0.423,5.677,1.786,7.78,3.889c1.776,1.776,2.306,4.45,1.343,6.769c-0.003,0.008-0.007,0.016-0.01,0.024
	c-0.959,2.32-3.225,3.834-5.735,3.834c-2.985,0-5.862-0.963-8.251-2.751c-1.16-0.868-2.6-1.383-4.161-1.383
	c-3.84,0-6.953,3.113-6.953,6.954c0,3.84,3.113,6.953,6.953,6.953c1.561,0,3.001-0.514,4.161-1.383
	c2.381-1.782,5.276-2.751,8.25-2.751c2.51,0,4.776,1.514,5.735,3.834c0.003,0.008,0.007,0.016,0.01,0.024
	c0.963,2.319,0.433,4.993-1.342,6.768c-2.11,2.11-4.826,3.465-7.78,3.889c-1.434,0.206-2.816,0.861-3.92,1.964
	c-2.715,2.716-2.715,7.118,0,9.834c2.715,2.716,7.118,2.716,9.834,0c1.104-1.104,1.758-2.486,1.964-3.92
	c0.423-2.943,1.786-5.676,3.889-7.779c1.776-1.776,4.449-2.307,6.769-1.343c0.008,0.003,0.016,0.007,0.024,0.01
	c2.319,0.959,3.834,3.224,3.834,5.734c0,2.984-0.963,5.863-2.751,8.252c-0.868,1.16-1.383,2.6-1.383,4.161
	c0,3.84,3.113,6.953,6.953,6.953s6.954-3.113,6.954-6.953c0-1.565-0.517-3.009-1.39-4.171c-1.778-2.365-2.744-5.245-2.744-8.204
	c0-2.504,1.506-4.888,4.055-5.851c2.277-0.863,4.849-0.311,6.571,1.411c2.11,2.11,3.466,4.827,3.89,7.781
	c0.206,1.434,0.861,2.816,1.964,3.92c2.716,2.716,7.118,2.716,9.834,0c2.716-2.715,2.716-7.118,0-9.834
	c-1.107-1.107-2.494-1.762-3.932-1.966c-2.93-0.416-5.65-1.77-7.743-3.863c-1.788-1.788-2.324-4.479-1.358-6.815
	c0,0,0-0.001,0.001-0.002c0.959-2.32,3.224-3.834,5.734-3.834c2.984,0,5.862,0.962,8.252,2.751c1.16,0.868,2.6,1.383,4.161,1.383
	c3.84,0,6.953-3.113,6.953-6.953C-879.825,1106.96-882.938,1103.846-886.778,1103.846z M-927.77,1119.979
	c-1.878,0-3.4-1.522-3.4-3.4s1.522-3.4,3.4-3.4c1.878,0,3.4,1.522,3.4,3.4S-925.893,1119.979-927.77,1119.979z M-923.437,1109.188
	c-2.945,0-5.333-2.388-5.333-5.333c0-2.946,2.388-5.333,5.333-5.333c2.946,0,5.334,2.388,5.334,5.333
	C-918.103,1106.8-920.491,1109.188-923.437,1109.188z M-913.387,1119.379c-2.494,0-4.517-2.022-4.517-4.516
	c0-2.495,2.022-4.517,4.517-4.517c2.494,0,4.517,2.022,4.517,4.517C-908.87,1117.357-910.893,1119.379-913.387,1119.379z"/>
<path id="cursor-pointer-icon" fill="#58595B" d="M-708.321,1076.291v37.77c-3.196-3.479-8.721-7.629-14.124-7.305
	c-6.482,0.388-7.713,7.329-2.112,12.573c9.428,8.828,18.915,21.854,21.033,32.648c0,0,28.129,0,36.882,0
	c0-21.759,7.032-26.383,8.311-37.741c0.957-8.498-1.327-15.144-8.205-16.122l0.948,2.686c0.365,1.202-0.315,2.473-1.518,2.837
	c-1.204,0.364-2.474-0.315-2.838-1.519l-0.904-2.501c-0.947-3.128-3.854-3.542-8.169-4.116l1.128,3.32
	c0.365,1.203-0.316,2.474-1.52,2.839c-1.202,0.363-2.473-0.316-2.837-1.519l-0.817-2.569c-0.979-3.232-3.615-3.583-8.396-4.311
	l1.07,3.566c1,3.306-5.307,4.902-5.307-4.309v-16.225c0-3.708-2.606-6.714-6.314-6.714
	C-705.714,1069.576-708.321,1072.582-708.321,1076.291z"/>
<path id="cloud-icon" fill="#58595B" d="M-424.372,1106.283c-1.978-24.905-34.772-33.112-48.176-11.786
	c-8.694-4.916-19.782,0.868-20.477,11.029c-9.532,1.167-16.916,9.285-16.916,19.133c0,10.649,8.633,19.282,19.282,19.282h60.435
	c10.649,0,19.282-8.633,19.282-19.282C-410.941,1116.05-416.584,1108.761-424.372,1106.283z"/>
<path id="danger-icon" fill="#58595B" d="M-1363.01,2286.577c3.568-2.42,6.634-5.434,9.128-8.974l12.493,12.493l-9.051,9.051
	L-1363.01,2286.577z M-1423.789,2290.096l12.462-12.461c2.494,3.54,5.559,6.554,9.128,8.974l-12.538,12.538L-1423.789,2290.096z
	 M-1353.466,2237.875c-2.427-3.575-5.437-6.645-8.963-9.139l11.989-11.989l9.051,9.051L-1353.466,2237.875z M-1423.789,2225.798
	l9.051-9.051l11.973,11.973c-3.526,2.495-6.536,5.564-8.963,9.139L-1423.789,2225.798z M-1382.589,2228.367
	c-16.071,0-29.098,13.028-29.098,29.098c0,11.831,7.061,22.012,17.198,26.561v7.12c0.709,1.19,2.658,2.05,5.158,2.58v-4.101h4v4.643
	c1.817,0.13,3.718,0.129,5.533-0.004v-4.639h4v4.09c2.476-0.531,4.404-1.387,5.108-2.57v-7.12
	c10.138-4.549,17.198-14.73,17.198-26.561C-1353.491,2241.395-1366.518,2228.367-1382.589,2228.367z M-1395.339,2268.364
	c-5.112,0-9.256-4.144-9.256-9.257c0-5.112,4.144-9.256,9.256-9.256c5.112,0,9.257,4.144,9.257,9.256
	C-1386.083,2264.219-1390.227,2268.364-1395.339,2268.364z M-1388.534,2275.675l6.129-8.475l0.006,0.01l0.006-0.01l6.147,8.474
	L-1388.534,2275.675L-1388.534,2275.675z M-1369.439,2268.364c-5.112,0-9.256-4.144-9.256-9.257c0-5.112,4.144-9.256,9.256-9.256
	c5.112,0,9.257,4.144,9.257,9.256C-1360.183,2264.219-1364.327,2268.364-1369.439,2268.364z"/>
<path id="danger-3-icon" fill="#58595B" d="M-1146.686,2249.896l7.433-12.874c7.388,4.274,12.358,12.262,12.358,21.411h-14.856
	C-1141.752,2254.79-1143.739,2251.603-1146.686,2249.896z M-1156.545,2266.972l-7.432,12.873c3.637,2.104,7.859,3.308,12.362,3.308
	s8.726-1.204,12.362-3.308l-7.433-12.874C-1149.671,2268.702-1153.432,2268.776-1156.545,2266.972z M-1156.545,2249.896
	l-7.433-12.873c-7.388,4.274-12.358,12.262-12.358,21.411h14.856C-1161.48,2254.79-1159.492,2251.603-1156.545,2249.896z
	 M-1151.616,2264.098c3.128,0,5.664-2.536,5.664-5.664s-2.536-5.664-5.664-5.664s-5.664,2.536-5.664,5.664
	S-1154.744,2264.098-1151.616,2264.098z M-1110.416,2258.088c0,22.754-18.446,41.2-41.2,41.2c-22.754,0-41.2-18.446-41.2-41.2
	s18.446-41.2,41.2-41.2C-1128.861,2216.888-1110.416,2235.334-1110.416,2258.088z M-1118.416,2258.088
	c0-18.351-14.852-33.2-33.2-33.2c-18.351,0-33.2,14.852-33.2,33.2c0,18.351,14.852,33.2,33.2,33.2
	C-1133.265,2291.288-1118.416,2276.436-1118.416,2258.088z"/>
<path id="time-icon" fill="#58595B" d="M-898.824,2265.988h-27.9v-30.7h9v21.7h18.9V2265.988z M-921.024,2225.888
	c-17.798,0-32.2,14.404-32.2,32.2c0,17.798,14.405,32.2,32.2,32.2c17.798,0,32.2-14.405,32.2-32.2
	C-888.824,2240.289-903.229,2225.888-921.024,2225.888 M-921.024,2216.888c22.754,0,41.2,18.446,41.2,41.2s-18.446,41.2-41.2,41.2
	s-41.2-18.446-41.2-41.2S-943.779,2216.888-921.024,2216.888z"/>
<path id="time-4-icon" fill="#58595B" d="M-690.39,2237.863v20.25h18.09v8.1h-26.19v-28.35H-690.39z M-693.037,2216.888
	c-11.243,0-22.232,4.505-29.666,11.806l-7.093-7.093l-4.606,25.235l25.235-4.606l-7.172-7.172c5.805-5.673,14.544-9.17,23.302-9.17
	c17.784,0,32.2,14.416,32.2,32.2c0,17.783-14.416,32.2-32.2,32.2c-17.733,0-32.116-14.334-32.198-32.048l-8.959,1.692
	c0.965,21.898,19.021,39.356,41.157,39.356c22.754,0,41.2-18.446,41.2-41.2S-670.283,2216.888-693.037,2216.888z"/>
<path id="dashboard-3-icon" fill="#58595B" d="M-423.8,2261.988c0-22.754-18.446-41.2-41.2-41.2c-22.754,0-41.2,18.446-41.2,41.2
	c0,8.868,2.803,17.082,7.569,23.804h14.961c3.194,5.656,10.351,9.596,18.67,9.596c8.318,0,15.476-3.94,18.67-9.596h14.961
	C-426.603,2279.07-423.8,2270.856-423.8,2261.988z M-439.225,2239.889l-7.563,7.563c-1.085-1.358-2.319-2.592-3.677-3.677
	l7.563-7.563C-441.588,2237.341-440.353,2238.575-439.225,2239.889z M-454.435,2229.712c1.642,0.538,3.255,1.207,4.802,1.994
	l-4.097,9.883c-1.521-0.842-3.133-1.511-4.803-1.992L-454.435,2229.712z M-467.6,2228.135c0.877-0.067,1.75-0.101,2.6-0.101
	c0.85,0,1.723,0.034,2.6,0.101v10.695c-0.863-0.096-1.736-0.145-2.6-0.145c-0.864,0-1.737,0.049-2.6,0.145V2228.135z
	 M-468.878,2263.981l3.878-18.174l3.878,18.174c2.47,1.367,4.144,3.999,4.144,7.022c0,4.43-3.591,8.021-8.021,8.021
	c-4.43,0-8.021-3.591-8.021-8.021C-473.021,2267.979-471.348,2265.348-468.878,2263.981z M-475.693,2229.755l4.137,9.868
	c-1.668,0.488-3.277,1.163-4.795,2.012l-4.137-9.867C-478.946,2230.976-477.336,2230.3-475.693,2229.755z M-487.098,2236.213
	l7.563,7.563c-1.358,1.085-2.592,2.319-3.677,3.677l-7.563-7.563C-489.647,2238.575-488.413,2237.341-487.098,2236.213z
	 M-497.278,2251.428c0.538-1.643,1.207-3.255,1.993-4.803l9.884,4.095c-0.842,1.521-1.51,3.133-1.991,4.804L-497.278,2251.428z
	 M-442.71,2255.174c-0.507-1.659-1.201-3.26-2.068-4.771l9.82-4.25c0.807,1.529,1.501,3.131,2.066,4.772L-442.71,2255.174z"/>
<path id="gamepad-7-icon" fill="#58595B" d="M-1335.652,1356.357l-8.791-36.226c-0.769-3.077-3.533-5.235-6.704-5.235h-58.32
	c-3.171,0-5.935,2.158-6.704,5.235l-8.791,36.226c-2.444,9.776,8.65,14.609,15.092,8.168l11.215-11.219
	c1.66-1.984,4.114-3.13,6.701-3.13h23.293c2.587,0,5.041,1.146,6.701,3.13l11.215,11.219
	C-1344.302,1370.966-1333.208,1366.133-1335.652,1356.357z M-1392.005,1334.995h-5.983v5.983h-4.735v-5.983h-5.984v-4.735h5.984
	v-5.983h4.735v5.983h5.983V1334.995z M-1377.108,1340.581h-6.441v-2.784h6.441V1340.581z M-1363.987,1334.634
	c-1.109,1.109-2.908,1.109-4.018,0c-1.11-1.11-1.11-2.908,0-4.019c1.11-1.109,2.909-1.109,4.018,0
	C-1362.877,1331.726-1362.877,1333.525-1363.987,1334.634z M-1357.701,1340.422c-1.109,1.109-2.909,1.109-4.019,0
	c-1.109-1.11-1.109-2.909,0-4.018c1.11-1.109,2.909-1.109,4.019,0C-1356.592,1337.513-1356.592,1339.312-1357.701,1340.422z
	 M-1357.701,1328.953c-1.109,1.109-2.909,1.109-4.019,0c-1.109-1.11-1.109-2.909,0-4.018c1.11-1.11,2.909-1.11,4.019,0
	C-1356.592,1326.045-1356.592,1327.844-1357.701,1328.953z M-1351.435,1334.634c-1.11,1.109-2.909,1.109-4.018,0
	c-1.109-1.11-1.109-2.908,0-4.019c1.109-1.109,2.908-1.109,4.018,0C-1350.326,1331.726-1350.326,1333.525-1351.435,1334.634z"/>
<path id="gear-icon" fill="#58595B" d="M-1110.416,1346.748v-11.097l-5.996-2.132c-2.286-0.813-4.126-2.559-5.055-4.8
	c0-0.001-0.001-0.002-0.001-0.003c-0.932-2.247-0.867-4.784,0.178-6.981l2.731-5.745l-7.847-7.847l-5.744,2.73
	c-2.196,1.044-4.736,1.109-6.982,0.178c-0.001,0-0.002-0.001-0.003-0.001c-2.243-0.93-3.987-2.767-4.8-5.055l-2.133-5.997h-11.097
	l-2.132,5.996c-0.813,2.286-2.559,4.125-4.8,5.055c-0.001,0-0.002,0.001-0.003,0.001c-2.247,0.932-4.784,0.867-6.981-0.178
	l-5.745-2.731l-7.847,7.847l2.731,5.744c1.044,2.196,1.109,4.736,0.178,6.982c0,0-0.001,0.002-0.001,0.003
	c-0.93,2.243-2.767,3.986-5.054,4.8l-5.997,2.133v11.097l5.996,2.132c2.286,0.813,4.125,2.559,5.055,4.8
	c0,0.001,0.001,0.002,0.001,0.002c0.932,2.248,0.867,4.785-0.177,6.982l-2.731,5.745l7.847,7.847l5.744-2.73
	c2.196-1.044,4.736-1.109,6.982-0.178c0.001,0,0.002,0.001,0.002,0.001c2.244,0.93,3.987,2.767,4.8,5.055l2.133,5.997h11.097
	l2.119-5.958c0.821-2.308,2.582-4.165,4.843-5.105c0.001,0,0.002-0.001,0.003-0.001c2.225-0.926,4.739-0.862,6.916,0.173l5.78,2.748
	l7.847-7.847l-2.732-5.747c-1.043-2.194-1.108-4.732-0.177-6.975c0-0.001,0.001-0.002,0.001-0.003
	c0.931-2.245,2.77-3.99,5.059-4.804L-1110.416,1346.748z M-1151.615,1359.109c-9.891,0-17.91-8.018-17.91-17.909
	s8.018-17.91,17.91-17.91c9.891,0,17.909,8.019,17.909,17.91S-1141.724,1359.109-1151.615,1359.109z"/>
<path id="wrench-icon" fill="#58595B" d="M-883.382,1364.99l-33.137-33.137c-2.271-2.271-3.44-5.428-3.192-8.63
	c0.469-6.065-1.615-12.29-6.254-16.929c-6.038-6.038-14.764-7.748-22.326-5.133l13.729,13.729
	c0.315,5.356-7.966,13.638-13.322,13.323l-13.729-13.729c-2.615,7.562-0.905,16.288,5.133,22.326
	c4.639,4.639,10.864,6.722,16.929,6.254c3.205-0.248,6.357,0.92,8.63,3.193l33.137,33.137c3.977,3.977,10.425,3.977,14.403,0
	C-879.405,1375.415-879.405,1368.967-883.382,1364.99z M-891.08,1375.767c-2.318,0-4.197-1.879-4.197-4.197
	c0-2.318,1.879-4.197,4.197-4.197c2.318,0,4.197,1.879,4.197,4.197C-886.883,1373.888-888.762,1375.767-891.08,1375.767z"/>
<polygon id="arrow-37-icon" fill="#58595B" points="-656.224,1341.693 -715.823,1382.893 -715.823,1300.493 "/>
<path id="pause-icon" fill="#58595B" d="M-468.105,1382.375h-24v-82.4h24V1382.375z M-428.776,1299.975h-24v82.4h24V1299.975z"/>
<path id="share-4-icon_1_" fill="#58595B" d="M-1406.833,1584.3c7.329-31.916,43.829-39.344,43.829-39.344v-9.826l21.767,21.731
	l-21.767,21.732v-9.826C-1363.005,1568.768-1391.23,1567.593-1406.833,1584.3z M-1362.828,1588.309v8.006h-52.608v-34.074h11.512
	c2.3-2.963,4.912-5.697,7.796-8.202h-27.51v50.479h69.012v-24.397L-1362.828,1588.309z"/>
<path id="twitter-icon" fill="#58595B" d="M-1110.416,1546.044c-3.031,1.345-6.29,2.254-9.709,2.662
	c3.49-2.092,6.171-5.405,7.433-9.353c-3.267,1.937-6.884,3.344-10.735,4.102c-3.084-3.286-7.477-5.338-12.34-5.338
	c-10.912,0-18.934,10.183-16.467,20.757c-14.05-0.705-26.507-7.435-34.845-17.663c-4.428,7.597-2.297,17.538,5.232,22.57
	c-2.771-0.088-5.378-0.848-7.657-2.115c-0.183,7.832,5.429,15.156,13.559,16.79c-2.379,0.647-4.985,0.796-7.634,0.289
	c2.151,6.716,8.394,11.604,15.792,11.74c-7.107,5.57-16.059,8.057-25.028,7.001c7.481,4.796,16.367,7.595,25.914,7.595
	c31.386,0,49.119-26.51,48.05-50.287C-1115.548,1552.412-1112.682,1549.435-1110.416,1546.044z"/>
<path id="facebook-icon" fill="#58595B" d="M-931.986,1557.691h-8.629v14.085h8.629v41.376h16.593V1571.6h11.576l1.232-13.909
	h-12.809c0,0,0-5.194,0-7.923c0-3.28,0.66-4.578,3.829-4.578c2.553,0,8.979,0,8.979,0v-14.437c0,0-9.465,0-11.488,0
	c-12.347,0-17.913,5.436-17.913,15.846C-931.986,1555.666-931.986,1557.691-931.986,1557.691z"/>
<g id="google-plus-icon">
	<path fill="#58595B" d="M-418.125,1548.645h-10.924v10.924h-5.462v-10.924h-10.924v-5.462h10.924v-10.924h5.462v10.924h10.924
		V1548.645z M-449.008,1593.828c0,8.189-7.477,18.157-26.287,18.157c-13.757,0-25.23-5.934-25.23-15.914
		c0-7.703,4.877-17.702,27.665-17.702c-3.384-2.758-4.215-6.615-2.147-10.792c-13.343,0-20.176-7.844-20.176-17.805
		c0-9.746,7.248-18.606,22.03-18.606c3.732,0,23.68,0,23.68,0l-5.291,5.554h-6.216c4.385,2.512,6.717,7.687,6.717,13.39
		c0,5.235-2.883,9.475-6.997,12.656c-7.301,5.644-5.432,8.796,2.217,14.374C-451.5,1582.79-449.008,1587.152-449.008,1593.828z
		 M-463.777,1550.466c-1.101-8.381-6.561-15.257-12.941-15.449c-6.382-0.19-10.662,6.224-9.56,14.607
		c1.102,8.381,7.167,14.236,13.55,14.428C-466.348,1564.242-462.676,1558.848-463.777,1550.466z M-457.198,1594.668
		c0-6.893-6.288-13.463-16.838-13.463c-9.508-0.105-17.566,6.008-17.566,13.094c0,7.231,6.867,13.25,16.376,13.25
		C-463.071,1607.549-457.198,1601.899-457.198,1594.668z"/>
</g>
<path id="key-icon" fill="#58595B" d="M-1376.435,1815.661l-8.909,8.909h-8.626l0,8.625l-8.994,0v8.129h-19.974v-13.852
	l28.652-28.652C-1391.054,1806.521-1384.656,1812.755-1376.435,1815.661z M-1349.085,1769.824c9.53,9.53,9.53,24.981,0,34.511
	c-9.53,9.531-24.981,9.531-34.511,0c-9.53-9.53-9.53-24.981,0-34.511C-1374.066,1760.294-1358.615,1760.294-1349.085,1769.824z
	 M-1353.983,1774.705c-2.364-2.363-6.196-2.364-8.56,0c-2.364,2.364-2.364,6.196,0,8.56c2.363,2.364,6.195,2.363,8.559,0
	C-1351.619,1780.901-1351.62,1777.068-1353.983,1774.705z"/>
<path id="twitter-4-icon" fill="#58595B" d="M-1151.615,1760.8c-22.754,0-41.2,18.446-41.2,41.2s18.446,41.2,41.2,41.2
	c22.754,0,41.2-18.446,41.2-41.2S-1128.861,1760.8-1151.615,1760.8z M-1130.896,1794.901c0.604,13.44-9.419,28.425-27.16,28.425
	c-5.396,0-10.419-1.582-14.648-4.293c5.069,0.597,10.129-0.809,14.147-3.957c-4.181-0.077-7.711-2.84-8.926-6.636
	c1.497,0.286,2.97,0.203,4.315-0.163c-4.595-0.923-7.768-5.063-7.664-9.491c1.288,0.716,2.762,1.146,4.328,1.195
	c-4.256-2.844-5.461-8.464-2.957-12.758c4.713,5.781,11.754,9.586,19.696,9.984c-1.394-5.977,3.14-11.733,9.308-11.733
	c2.748,0,5.232,1.16,6.975,3.018c2.177-0.429,4.222-1.224,6.068-2.319c-0.713,2.231-2.229,4.104-4.202,5.287
	c1.933-0.231,3.775-0.744,5.488-1.505C-1127.408,1791.871-1129.028,1793.554-1130.896,1794.901z"/>
<path id="facebook-circle-icon" fill="#58595B" d="M-921.025,1760.8c-22.754,0-41.2,18.446-41.2,41.2
	c0,22.754,18.446,41.2,41.2,41.2c22.754,0,41.2-18.446,41.2-41.2C-879.825,1779.246-898.27,1760.8-921.025,1760.8z
	 M-908.831,1785.038c0,0-4.121,0-5.758,0c-2.032,0-2.456,0.833-2.456,2.936c0,1.75,0,5.081,0,5.081h8.214l-0.79,8.919h-7.424v26.645
	h-10.64v-26.532h-5.533v-9.032h5.533c0,0,0-1.299,0-7.113c0-6.676,3.57-10.161,11.487-10.161c1.297,0,7.367,0,7.367,0
	L-908.831,1785.038L-908.831,1785.038z"/>
<path id="linkedin-circle-icon" fill="#58595B" d="M-691.752,1760.8c-22.754,0-41.2,18.446-41.2,41.2
	c0,22.754,18.446,41.2,41.2,41.2s41.2-18.446,41.2-41.2C-650.552,1779.246-668.998,1760.8-691.752,1760.8z M-702.744,1821.918
	h-9.046v-29.225h9.046V1821.918z M-707.31,1788.867c-2.954,0-5.349-2.414-5.349-5.393c0-2.978,2.395-5.393,5.349-5.393
	c2.954,0,5.349,2.414,5.349,5.393C-701.961,1786.452-704.356,1788.867-707.31,1788.867z M-668.845,1821.918h-9.002
	c0,0,0-11.133,0-15.341s-1.598-6.556-4.925-6.556c-3.621,0-5.512,2.446-5.512,6.556c0,4.501,0,15.341,0,15.341h-8.676v-29.225h8.676
	v3.936c0,0,2.609-4.827,8.806-4.827c6.197,0,10.633,3.784,10.633,11.612C-668.845,1811.242-668.845,1821.918-668.845,1821.918z"/>
<path id="linkedin-icon" fill="#58595B" d="M-710.81,1540.889c0,5.598-4.502,10.137-10.055,10.137
	c-5.553,0-10.055-4.538-10.055-10.137c0-5.598,4.502-10.136,10.055-10.136C-715.311,1530.752-710.81,1535.291-710.81,1540.889z
	 M-712.281,1558.219h-17.003v54.933h17.003V1558.219z M-685.101,1558.219h-16.308v54.933h16.308c0,0,0-20.375,0-28.836
	c0-7.725,3.556-12.323,10.361-12.323c6.254,0,9.258,4.414,9.258,12.323c0,7.909,0,28.836,0,28.836h16.921c0,0,0-20.069,0-34.783
	s-8.338-21.826-19.987-21.826c-11.649,0-16.554,9.074-16.554,9.074L-685.101,1558.219L-685.101,1558.219z"/>
<path id="google-plus-circle-icon" fill="#58595B" d="M-457.05,1816.932c0,4.049-3.289,7.213-10.096,7.213
	c-5.325,0-9.17-3.371-9.17-7.42c0-3.968,4.512-7.391,9.837-7.333C-460.572,1809.392-457.05,1813.072-457.05,1816.932z
	 M-419.241,1802c0,22.754-18.446,41.2-41.2,41.2s-41.2-18.446-41.2-41.2s18.446-41.2,41.2-41.2S-419.241,1779.246-419.241,1802z
	 M-452.463,1816.461c0-3.738-1.396-6.181-5.619-9.345c-4.283-3.124-5.33-4.889-1.242-8.05c2.304-1.781,3.918-4.156,3.918-7.087
	c0-3.194-1.306-6.091-3.762-7.498h3.481l2.963-3.11c0,0-11.171,0-13.261,0c-8.278,0-12.337,4.962-12.337,10.42
	c0,5.578,3.826,9.971,11.298,9.971c-1.158,2.339-0.693,4.499,1.202,6.043c-12.761,0-15.492,5.6-15.492,9.913
	c0,5.589,6.425,8.912,14.129,8.912C-456.651,1826.629-452.463,1821.047-452.463,1816.461z M-435.169,1788.1h-6.118v-6.118h-3.059
	v6.118h-6.118v3.059h6.118v6.118h3.059v-6.118h6.118V1788.1z M-460.734,1792.179c-0.617-4.693-3.674-8.544-7.247-8.651
	c-3.574-0.106-5.971,3.485-5.353,8.18c0.617,4.693,4.013,7.972,7.588,8.08C-462.174,1799.893-460.118,1796.873-460.734,1792.179z"/>
<path id="info-2-icon" fill="#58595B" d="M-1373.95,2064.208h-16.132v-38.33h16.132V2064.208z M-1382.015,2017.95
	c-4.903,0-8.879-3.975-8.879-8.88c0-4.904,3.975-8.879,8.879-8.879c4.904,0,8.879,3.975,8.879,8.879
	C-1373.136,2013.975-1377.111,2017.95-1382.015,2017.95z"/>
<path id="bar_chart_4_icon" fill="#58595B" d="M-482.314,2073.4h-21.417v-20.787h21.417L-482.314,2073.4L-482.314,2073.4z
	 M-454.388,2042.745h-21.627v30.655h21.627V2042.745z M-426.673,2029.307h-21.627v44.093h21.627V2029.307z M-426.269,1991
	l-17.526,3.032l3.857,3.896l-26.359,25.333l-9.574-9.051l-26.803,26.704l6.594,6.485l19.932-19.931l9.872,9.341l32.906-32.123
	l3.746,3.781L-426.269,1991z"/>
<path id="disk-icon" fill="#58595B" d="M-697.882,2015.921c-1.495,0.899-2.722,2.06-3.732,3.363l-3.376-1.17
	c1.354-2.017,3.118-3.795,5.331-5.132c2.22-1.338,4.613-2.067,7.028-2.325l-0.543,3.534
	C-694.794,2014.476-696.394,2015.021-697.882,2015.921z M-692.095,2007.137l0.53-3.469c-3.983,0.126-7.987,1.229-11.641,3.435
	c-3.654,2.204-6.498,5.234-8.466,8.699l3.316,1.147c1.67-2.741,3.99-5.138,6.927-6.907
	C-698.499,2008.271-695.297,2007.334-692.095,2007.137z M-684.885,2026.333c0,3.794-3.071,6.867-6.867,6.867
	c-3.794,0-6.867-3.073-6.867-6.867s3.073-6.867,6.867-6.867C-687.956,2019.467-684.885,2022.54-684.885,2026.333z
	 M-688.319,2026.333c0-1.893-1.541-3.433-3.433-3.433c-1.893,0-3.433,1.541-3.433,3.433s1.541,3.433,3.433,3.433
	C-689.859,2029.767-688.319,2028.226-688.319,2026.333z M-657.419,1992v80.4h-68.666V1992H-657.419z M-669.381,2055.336
	c-2.427-2.863-9.029-10.575-10.199-12.151c-1.763-2.38-4.546-0.949-3.474,1.911c0.865,2.313,4.345,11.514,5.804,15.222
	C-674.069,2068.392-663.722,2062.021-669.381,2055.336z M-664.285,2026.333c0-15.17-12.298-27.467-27.467-27.467
	c-15.17,0-27.467,12.297-27.467,27.467c0,15.168,12.297,27.467,27.467,27.467c2.739,0,5.381-0.412,7.879-1.16
	c-1.053-2.773-2.005-5.294-2.394-6.337c-2.473-6.565,5.335-10.712,9.442-5.167c0.5,0.671,2.22,2.729,4.111,4.969
	C-667.524,2041.109-664.285,2034.105-664.285,2026.333z"/>
<path id="globe-3-icon" fill="#58595B" d="M-880.4,2032.2c0-23.121-18.752-41.2-41.2-41.2c-22.292,0-41.2,17.89-41.2,41.2
	c0,23.447,19.025,41.2,41.2,41.2C-899.287,2073.4-880.4,2055.481-880.4,2032.2z M-941.094,2017.083
	c-0.786,3.78-1.273,7.806-1.429,11.959h-11.82c0.527-5.53,2.422-10.66,5.345-15.048
	C-946.461,2015.278-943.787,2016.288-941.094,2017.083z M-942.505,2035.358c0.18,4.19,0.698,8.245,1.52,12.044
	c-2.757,0.809-5.398,1.808-7.956,3.092c-2.955-4.408-4.871-9.569-5.402-15.136H-942.505z M-939.328,2053.492
	c0.987,2.958,2.243,5.875,3.859,8.543c-3.487-1.624-6.642-3.839-9.335-6.519C-943.105,2054.746-941.273,2054.069-939.328,2053.492z
	 M-918.442,2044.832v-9.474h11.533c-0.171,3.699-0.628,7.263-1.34,10.591C-911.506,2045.35-914.929,2044.972-918.442,2044.832z
	 M-909.944,2052.055c-1.546,4.429-4.379,10.179-8.498,12.416v-13.319C-915.51,2051.279-912.659,2051.583-909.944,2052.055z
	 M-918.442,2029.042v-9.357c3.553-0.142,7.012-0.527,10.302-1.138c0.677,3.306,1.101,6.838,1.248,10.495L-918.442,2029.042
	L-918.442,2029.042z M-918.442,2013.364v-13.856c4.25,2.308,7.13,8.333,8.671,12.922
	C-912.538,2012.92-915.447,2013.235-918.442,2013.364z M-924.758,1999.565v13.795c-2.958-0.132-5.831-0.445-8.566-0.93
	C-931.79,2007.863-928.942,2001.913-924.758,1999.565z M-924.758,2019.68v9.362h-11.445c0.148-3.658,0.572-7.189,1.248-10.495
	C-931.697,2019.152-928.274,2019.535-924.758,2019.68z M-934.845,2045.949c-0.713-3.328-1.169-6.892-1.34-10.592h11.428v9.478
	C-928.234,2044.98-931.621,2045.356-934.845,2045.949z M-924.758,2051.156v13.258c-4.062-2.28-6.856-7.959-8.393-12.359
	C-930.467,2051.588-927.653,2051.286-924.758,2051.156z M-903.766,2053.491c1.918,0.569,3.726,1.235,5.404,1.991
	c-2.663,2.658-5.78,4.86-9.223,6.484C-905.98,2059.302-904.744,2056.42-903.766,2053.491z M-902.109,2047.401
	c0.822-3.799,1.34-7.854,1.52-12.043h11.732c-0.529,5.55-2.436,10.697-5.375,15.096
	C-896.794,2049.176-899.399,2048.196-902.109,2047.401z M-894.174,2014.034c2.907,4.38,4.793,9.495,5.318,15.008h-11.714
	c-0.156-4.153-0.643-8.178-1.429-11.958C-899.318,2016.291-896.673,2015.292-894.174,2014.034z M-898.283,2008.998
	c-1.653,0.75-3.435,1.411-5.323,1.979c-0.942-2.916-2.126-5.759-3.635-8.379C-903.9,2004.221-900.875,2006.394-898.283,2008.998z
	 M-935.811,2002.526c-1.542,2.665-2.731,5.521-3.677,8.45c-1.916-0.576-3.722-1.248-5.396-2.012
	C-942.262,2006.337-939.197,2004.15-935.811,2002.526z"/>
<path id="wireless-icon" fill="#58595B" d="M-1164.616,2048.333c3.327-3.327,7.923-5.385,13-5.385c5.077,0,9.673,2.058,13,5.385
	l-13,13L-1164.616,2048.333z M-1170.616,2042.333c4.862-4.862,11.58-7.87,19-7.87c7.42,0,14.138,3.008,19,7.87l8-8
	c-6.91-6.91-16.456-11.184-27-11.184c-10.544,0-20.09,4.274-27,11.184L-1170.616,2042.333z M-1184.616,2028.333
	c8.445-8.446,20.113-13.669,33-13.669c12.887,0,24.554,5.223,33,13.669l8.2-8.2c-10.544-10.544-25.11-17.066-41.2-17.066
	s-30.656,6.522-41.2,17.066L-1184.616,2028.333z"/>
<path id="pencil-4-icon" fill="#58595B" d="M-1341.646,397.5l-54.877,54.877l-27.085,4.998l5.464-26.62l54.876-54.876
	C-1351.054,372.94-1338.708,385.287-1341.646,397.5z M-1399.81,446.272c1.609-6.026-6.205-13.84-12.23-12.23l-3.082,15.014
	L-1399.81,446.272z"/>
<polygon id="arrow-25-icon_1_" fill="#58595B" points="-1355.999,-10.977 -1367.028,0 -1408.032,-41.2 -1367.028,-82.4 
	-1355.999,-71.423 -1386.078,-41.2 "/>
<polygon id="arrow-25-icon_2_" fill="#58595B" points="-1181.838,-15.183 -1192.816,-26.213 -1151.615,-67.217 -1110.416,-26.213 
	-1121.393,-15.183 -1151.615,-45.262 "/>
<polygon id="arrow-25-icon_3_" fill="#58595B" points="-659.517,-67.217 -648.54,-56.187 -689.74,-15.183 -730.94,-56.187 
	-719.962,-67.217 -689.74,-37.138 "/>
<path id="computer-icon" fill="#58595B" d="M-1196.615,607.892v69.581h90v-69.581H-1196.615z M-1115.814,668.274h-71.603l0-51.184
	l71.603,0L-1115.814,668.274L-1115.814,668.274z M-1138.86,682.91l9.198,9.198h-43.908l9.198-9.198H-1138.86z"/>
<path id="book-15-icon" fill="#58595B" d="M-1151.615,2463.978c-12.122-7.546-30.589-10.586-49.5-11.163v68.083
	c16.24,0.496,32.152,2.808,44,8.229c3.494,1.599,7.51,1.597,11.004-0.002c11.847-5.421,27.758-7.732,43.996-8.228v-68.083
	C-1121.026,2453.392-1139.494,2456.432-1151.615,2463.978z M-1191.504,2462.978c11.415,0.958,25.354,3.278,35.083,9.33v46.673
	c-9.448-3.749-21.184-6.161-35.083-7.205V2462.978z M-1111.727,2511.776c-13.899,1.045-25.635,3.457-35.083,7.205v-46.673
	c9.728-6.052,23.668-8.372,35.083-9.33V2511.776z"/>
<path id="lifebuoy-icon" fill="#58595B" d="M-465,2446.57c-24.838,0-45,20.144-45,45c0,24.845,20.152,45,45,45
	c24.835,0,45-20.142,45-45C-420,2466.734-440.144,2446.57-465,2446.57z M-448.627,2507.943c-9.041,9.041-23.691,9.056-32.746,0
	c-9.043-9.042-9.053-23.694,0-32.746c9.047-9.047,23.697-9.05,32.746,0C-439.585,2484.238-439.573,2498.89-448.627,2507.943z
	 M-447.468,2456.111l-5.42,9.515c-7.627-3.57-16.589-3.573-24.225,0l-5.42-9.515C-471.735,2450.76-458.63,2450.579-447.468,2456.111
	z M-500.486,2474.092l9.516,5.421c-3.558,7.644-3.595,16.777,0.236,24.607l-9.507,5.416
	C-505.805,2498.649-506.055,2485.375-500.486,2474.092z M-482.253,2527.166l5.424-9.521c7.47,3.396,16.179,3.4,23.659,0l5.424,9.521
	C-458.44,2532.359-471.288,2532.491-482.253,2527.166z M-439.266,2504.12c3.823-7.817,3.8-16.949,0.235-24.607l9.516-5.421
	c5.388,10.914,5.506,24.193-0.244,35.444L-439.266,2504.12z"/>
<path id="home-4-icon" fill="#58595B" d="M-885.885,2495.898v36.309h-25.944v-19.732h-19.54v19.732h-25.944v-36.309h-9.285
	l45-44.966l45,44.966L-885.885,2495.898L-885.885,2495.898z"/>
<path id="printer-5-icon" fill="#58595B" d="M-657.106,2473.741v-19.992h-69.291v19.992h-12.154v46.119h11.804l9.014-17.91h52.331
	l8.834,17.91h11.617v-46.119H-657.106L-657.106,2473.741z M-666.194,2473.741h-51.117v-10.905h51.117V2473.741z M-653.963,2485.275
	c-1.518,0-2.749-1.231-2.749-2.749s1.231-2.749,2.749-2.749s2.749,1.231,2.749,2.749S-652.445,2485.275-653.963,2485.275z
	 M-671.138,2510.583l8.826,18.807h-58.689l9.009-18.807H-671.138"/>
<g>
	<path fill="#58595B" d="M-1357.666,2473.433v-34.477h-49.846v34.477h-7.477v57.323h64.8v-57.323H-1357.666z M-1400.035,2446.433
		h34.892v27h-34.892V2446.433z M-1357.666,2523.28h-49.846v-42.369h49.846V2523.28z"/>
	<rect x="-1396.653" y="2452.724" fill="#58595B" width="10.681" height="10.681"/>
	<rect x="-1379.207" y="2452.848" fill="#58595B" width="10.681" height="10.681"/>
</g>
<path fill="#0073A8" d="M497.275,1056.529v223.935h1633.45v-223.935H497.275z M556.696,1217.608l39.286-98.225h47.461
	l-39.288,98.225H556.696z M633.622,1217.608l39.286-98.225h47.457l-39.286,98.225H633.622z M710.543,1217.608l39.286-98.225h47.457
	l-39.288,98.225H710.543z M783.696,1217.608l39.286-98.225h47.461l-39.288,98.225H783.696z M908.078,1217.608h-47.457l39.286-98.225
	h47.457L908.078,1217.608z M1783.647,1201.296c-18.112,0-32.8-14.688-32.8-32.804s14.688-32.8,32.8-32.8
	c18.121,0,32.808,14.683,32.808,32.8S1801.768,1201.296,1783.647,1201.296z M1904.647,1201.296c-18.112,0-32.8-14.688-32.8-32.804
	s14.688-32.8,32.8-32.8c18.121,0,32.808,14.683,32.808,32.8S1922.768,1201.296,1904.647,1201.296z M2024.647,1201.296
	c-18.112,0-32.8-14.688-32.8-32.804s14.688-32.8,32.8-32.8c18.121,0,32.808,14.683,32.808,32.8S2042.768,1201.296,2024.647,1201.296
	z"/>
<polygon fill="#0073A8" points="911.929,861.87 1721.754,861.87 2052.103,1027.6 575.897,1027.6 "/>
</svg>
